<?xml version="1.0" encoding="UTF-8"?>
<svg width="32px" height="32px" viewBox="0 0 32 32" version="1.1" xmlns="http://www.w3.org/2000/svg" xmlns:xlink="http://www.w3.org/1999/xlink">
    <title>切片</title>
    <g id="1.3.3" stroke="none" stroke-width="1" fill="none" fill-rule="evenodd">
        <g id="话术库-入口" transform="translate(-602.000000, -80.000000)" fill-rule="nonzero">
            <g id="icon/32/分析选中备份-35" transform="translate(602.000000, 80.000000)">
                <path d="M25.0751224,26 L6.95454545,26 L9.49370008,14.7598157 C9.49370008,14.3911999 9.64529142,14.0381595 9.91599023,13.778571 C10.186689,13.5189824 10.5548394,13.3684211 10.9392316,13.3684211 L27.6142771,13.3684211 C28.4155455,13.3684211 29.0598086,13.9914336 29.0598086,14.7598157 L26.526068,24.6086054 C26.526068,25.3769875 25.8763909,26 25.0751224,26 Z" id="路径" fill="#3964F9"></path>
                <path d="M15.4061313,22.8574083 L16.3103288,20.6363442 C16.3355764,20.5743263 16.329141,20.5111881 16.2929878,20.4662106 L15.022627,18.8857745 C14.9597173,18.8075095 14.990647,18.6821629 15.0917105,18.6058049 C15.1299278,18.5769301 15.1746342,18.5580461 15.2195566,18.5518028 L17.5427216,18.2289274 C17.6144564,18.2189577 17.6837874,18.1771058 17.7275838,18.1173348 L19.1924183,16.1182066 C19.2649464,16.0192241 19.4002674,15.9766451 19.4946662,16.0231038 C19.5345512,16.0427334 19.5624637,16.0763705 19.5735701,16.1181905 L20.1044992,18.1173492 C20.1203708,18.177112 20.1701427,18.2189569 20.2372124,18.2289257 L22.4095167,18.5518028 C22.5205967,18.568313 22.5759404,18.669321 22.5331303,18.7774106 C22.5169416,18.8182848 22.4880078,18.8561786 22.4503889,18.8857745 L20.441526,20.4662106 C20.3843559,20.5111881 20.3484175,20.5743263 20.3446855,20.6363442 L20.2110285,22.8574337 C20.2045345,22.9653505 20.1029096,23.0671054 19.9840429,23.0847096 C19.9357729,23.0918584 19.8897907,23.0840681 19.853484,23.0625905 L18.1041184,22.0277319 C18.0484395,21.9947943 17.9715128,21.9947961 17.900444,22.0277366 L15.6678209,23.0625603 C15.5537019,23.1154547 15.4337196,23.0807553 15.399833,22.9850572 C15.3860711,22.9461927 15.3882894,22.901235 15.4061313,22.8574083 Z" id="路径" fill="#FFFFFF"></path>
                <path d="M25.5864058,11.794004 L25.5864058,10.4130428 C25.5864058,9.63592391 24.9462351,9.00582755 24.1566912,9.00582755 L15.5837384,9.00582755 L15.5837384,7.72988242 C15.5837384,6.95276356 14.9435677,6.3226672 14.1593586,6.3226672 L7.01078565,6.3226672 C6.22124176,6.3226672 5.58640581,6.95276356 5.58640581,7.72463158 L5.58640581,24.217404 L8.08307158,13.1959684 C8.08307158,12.4241003 8.72324228,11.794004 9.51278617,11.794004 L25.5864058,11.794004 Z" id="路径" fill="#55BCFC"></path>
            </g>
        </g>
    </g>
</svg>