<?xml version="1.0" encoding="UTF-8"?>
<svg width="24px" height="24px" viewBox="0 0 24 24" version="1.1" xmlns="http://www.w3.org/2000/svg" xmlns:xlink="http://www.w3.org/1999/xlink">
    <g id="页面-1" stroke="none" stroke-width="1" fill="none" fill-rule="evenodd">
        <g id="添加标签控件" transform="translate(-312.000000, -143.000000)" fill-rule="nonzero">
            <g id="编组备份-5" transform="translate(93.000000, 131.000000)">
                <g id="icon/24/添加看板备份-3" transform="translate(219.000000, 12.000000)">
                    <g id="编组" transform="translate(4.000000, 4.000000)">
                        <path d="M8,16 C3.58159999,16 0,12.4176 0,8 C0,3.58160001 3.58159999,0 8,0 C12.4184,0 16,3.58160001 16,8 C16,12.4176 12.4184,16 8,16 Z" id="形状" fill="#F6F7F9"></path>
                        <path d="M11.0798483,8.76114284 C11.0798483,8.76114284 8.79337208,8.76114284 8.79337208,8.76114284 C8.79337208,8.76114284 8.79337208,11.047619 8.79337208,11.047619 C8.79337208,11.4681905 8.45280066,11.8087619 8.03222923,11.8087619 C7.61013398,11.8087619 7.26956256,11.4681905 7.26956256,11.047619 C7.26956256,11.047619 7.26956256,8.76114284 7.26956256,8.76114284 C7.26956256,8.76114284 4.98308638,8.76114284 4.98308638,8.76114284 C4.56251494,8.76114284 4.22194352,8.42057142 4.22194352,8 C4.22194352,7.57790475 4.56251494,7.23733333 4.98308638,7.23733333 C4.98308638,7.23733333 7.26956256,7.23733333 7.26956256,7.23733333 C7.26956256,7.23733333 7.26956256,4.95085714 7.26956256,4.95085714 C7.26956256,4.5302857 7.61013398,4.18971428 8.03070542,4.18971428 C8.45280066,4.18971428 8.79337208,4.5302857 8.79337208,4.95085714 C8.79337208,4.95085714 8.79337208,7.23733333 8.79337208,7.23733333 C8.79337208,7.23733333 11.0798483,7.23733333 11.0798483,7.23733333 C11.5004197,7.23733333 11.8409911,7.57790475 11.8409911,7.99847619 C11.8409911,8.42057142 11.5004197,8.76114284 11.0798483,8.76114284 Z" id="路径" fill="#FFFFFF"></path>
                    </g>
                </g>
            </g>
        </g>
    </g>
</svg>
