<?xml version="1.0" encoding="UTF-8"?>
<svg width="24px" height="24px" viewBox="0 0 24 24" version="1.1" xmlns="http://www.w3.org/2000/svg" xmlns:xlink="http://www.w3.org/1999/xlink">
    <g id="页面-1" stroke="none" stroke-width="1" fill="none" fill-rule="evenodd">
        <g id="分析库空" transform="translate(-1316.000000, -88.000000)" fill-rule="nonzero">
            <g id="控件/标题栏" transform="translate(322.000000, 88.000000)">
                <g id="编组" transform="translate(994.000000, 0.000000)">
                    <g id="新建-添加-表单-页面" transform="translate(5.000000, 3.000000)">
                        <rect id="矩形" fill="#26292E" opacity="0" x="0" y="0" width="16" height="16"></rect>
                        <path d="M10,4.5 L10,1 L3,1 C1.896,1 1,1.896 1,3 L1,14 C1,15.104 1.896,16 3,16 L12,16 C13.104,16 14,15.104 14,14 L14,5 L10.5,5 C10.224,5 10,4.776 10,4.5 Z M11,8.5 C11,8.776 10.776,9 10.5,9 L8,9 L8,11.5 C8,11.776 7.776,12 7.5,12 C7.224,12 7,11.776 7,11.5 L7,9 L4.5,9 C4.224,9 4,8.776 4,8.5 C4,8.224 4.224,8 4.5,8 L7,8 L7,5.5 C7,5.224 7.224,5 7.5,5 C7.776,5 8,5.224 8,5.5 L8,8 L10.5,8 C10.776,8 11,8.224 11,8.5 Z M11,1 L11,4 L14,4 L11,1 Z" id="形状" fill="#2749F1"></path>
                    </g>
                </g>
            </g>
        </g>
    </g>
</svg>
