<?xml version="1.0" encoding="UTF-8"?>
<svg width="16px" height="16px" viewBox="0 0 16 16" version="1.1" xmlns="http://www.w3.org/2000/svg" xmlns:xlink="http://www.w3.org/1999/xlink">
    <g id="页面-1" stroke="none" stroke-width="1" fill="none" fill-rule="evenodd" opacity="0.600000024">
        <g id="选择器" transform="translate(-207.000000, -1073.000000)" stroke="#26292E">
            <g id="控件/滑动切换/选中备份-5" transform="translate(207.000000, 1071.000000)">
                <g id="icon/16/箭头备份-14" transform="translate(0.000000, 2.000000)">
                    <path d="M7,9.4 C5.46153846,9.4 4.23076923,8.2 4.23076923,6.7 C4.23076923,5.2 5.46153846,4 7,4 C8.53846154,4 9.76923077,5.2 9.76923077,6.7 C9.76923077,8.2 8.53846154,9.4 7,9.4 Z M7,4.6 C5.83076923,4.6 4.84615385,5.56 4.84615385,6.7 C4.84615385,7.84 5.83076923,8.8 7,8.8 C8.16923077,8.8 9.15384615,7.84 9.15384615,6.7 C9.15384615,5.56 8.16923077,4.6 7,4.6 Z M10.6923077,13 C10.5076923,13 10.3846154,12.88 10.3846154,12.7 C10.3846154,10.9 8.84615385,9.4 7,9.4 C5.15384615,9.4 3.61538462,10.9 3.61538462,12.7 C3.61538462,12.88 3.49230769,13 3.30769231,13 C3.12307692,13 3,12.88 3,12.7 C3,10.54 4.78461538,8.8 7,8.8 C9.21538462,8.8 11,10.54 11,12.7 C11,12.88 10.8769231,13 10.6923077,13 Z" id="形状" stroke-width="0.5" fill="#000000" fill-rule="nonzero"></path>
                    <line x1="11.2497965" y1="6" x2="14.2094122" y2="6" id="路径-8" transform="translate(12.729604, 6.000000) scale(-1, -1) translate(-12.729604, -6.000000) "></line>
                    <line x1="10.1867766" y1="4" x2="14.2094122" y2="4" id="路径-8备份" transform="translate(12.198094, 4.000000) scale(-1, -1) translate(-12.198094, -4.000000) "></line>
                </g>
            </g>
        </g>
    </g>
</svg>