<?xml version="1.0" encoding="UTF-8"?>
<svg width="10px" height="10px" viewBox="0 0 10 10" version="1.1" xmlns="http://www.w3.org/2000/svg" xmlns:xlink="http://www.w3.org/1999/xlink">
    <g id="智慧运营v1.3" stroke="none" stroke-width="1" fill="none" fill-rule="evenodd">
        <g id="微信运营-关注回复-设置-小程序备份" transform="translate(-1021.000000, -470.000000)">
            <g id="编组-2" transform="translate(1011.000000, 241.000000)">
                <g id="编组-3" transform="translate(10.000000, 229.000000)">
                    <path d="M3.08023483,9.5 C1.65362036,9.5 0.5,8.36809821 0.5,6.97852776 C0.502929815,6.54055311 0.618511483,6.1114604 0.834637968,5.73619654 C1.16857172,5.17084825 1.69339419,4.75705965 2.30528376,4.5766874 C2.44744091,4.52812145 2.5960357,4.50327665 2.74559688,4.50306777 C3.10550064,4.50306777 3.39726028,4.8079536 3.39726028,5.18404932 C3.39726028,5.56014505 3.10550064,5.86503087 2.74559688,5.86503087 L2.70156557,5.86503087 C2.3937519,5.9479562 2.12674898,6.14819072 1.95303327,6.42638054 C1.85863323,6.58675576 1.80977013,6.77185346 1.81213308,6.96012284 C1.81213308,7.59509213 2.37573386,8.11042953 3.08023483,8.11042953 C3.32431892,8.11072717 3.56420512,8.04409109 3.77592955,7.91717801 C4.12010625,7.73183181 4.33972502,7.36463285 4.34833661,6.96012284 L4.34833661,3.0122703 C4.34833661,2.12883477 4.80626225,1.32822131 5.58121331,0.868098645 C5.98944042,0.626533633 6.45063135,0.499707373 6.91976517,0.5 C8.34637964,0.5 9.5,1.63190229 9.5,3.02147277 C9.49707018,3.45944741 9.38148852,3.88854013 9.16536203,4.26380399 C8.83142827,4.82915227 8.3066058,5.24294086 7.69471624,5.42331311 C7.5522577,5.47056452 7.40385816,5.49537668 7.25440313,5.49693274 C6.89449939,5.49693272 6.60273976,5.1920469 6.60273976,4.81595118 C6.60273976,4.43985547 6.89449939,4.13496965 7.25440313,4.13496963 L7.29843445,4.13496963 C7.63307242,4.02454018 7.90606655,3.83128867 8.05577301,3.56441751 C8.15017305,3.4040423 8.19903614,3.2189446 8.1966732,3.03067522 C8.1966732,2.39570592 7.62426616,1.88036853 6.92857143,1.88036853 C6.68448735,1.8800709 6.44460115,1.94670698 6.23287673,2.07362006 C5.88870003,2.25896626 5.66908126,2.62616521 5.66046967,3.03067522 L5.66046967,6.98773021 C5.66046967,7.87116574 5.20254402,8.67177919 4.42759297,9.13190186 C4.01544388,9.37157731 3.55190047,9.49821734 3.08023483,9.5 L3.08023483,9.5 Z" id="路径" fill="#7586DB" fill-rule="nonzero"></path>
                    <rect id="矩形" x="0" y="0" width="10" height="10"></rect>
                </g>
            </g>
        </g>
    </g>
</svg>