<?xml version="1.0" encoding="UTF-8"?>
<svg width="16px" height="16px" viewBox="0 0 16 16" version="1.1" xmlns="http://www.w3.org/2000/svg" xmlns:xlink="http://www.w3.org/1999/xlink">
    <g id="智慧运营v1.3" stroke="none" stroke-width="1" fill="none" fill-rule="evenodd">
        <g id="微信运营-关注回复-设置-小程序备份" transform="translate(-1022.000000, -249.000000)">
            <g id="编组-2" transform="translate(1011.000000, 241.000000)">
                <g id="编组-4" transform="translate(11.000000, 8.000000)">
                    <circle id="椭圆形" fill="#32BBAC" cx="8" cy="8" r="8"></circle>
                    <path d="M4.97549913,9.37700521 L4.97549913,8.91200521 L3.01049913,8.91200521 L3.01049913,5.80700521 L2.47049913,5.80700521 L2.47049913,9.37700521 L4.97549913,9.37700521 Z M6.56549913,9.44700521 C6.95549913,9.44700521 7.27049913,9.31200521 7.51049913,9.05200521 C7.74049913,8.80200521 7.85549913,8.47700521 7.85549913,8.08700521 C7.85549913,7.69200521 7.73549913,7.36700521 7.50549913,7.11200521 C7.27049913,6.85200521 6.95549913,6.72200521 6.56549913,6.72200521 C6.17549913,6.72200521 5.86049913,6.85200521 5.62549913,7.11200521 C5.39049913,7.36700521 5.27549913,7.69200521 5.27549913,8.08700521 C5.27549913,8.47700521 5.39049913,8.80200521 5.62049913,9.05200521 C5.86049913,9.31200521 6.17549913,9.44700521 6.56549913,9.44700521 Z M6.56549913,9.01200521 C6.32049913,9.01200521 6.13049913,8.91200521 5.99549913,8.72200521 C5.87549913,8.55700521 5.82049913,8.34700521 5.82049913,8.08700521 C5.82049913,7.82700521 5.87549913,7.61200521 5.99549913,7.44700521 C6.13049913,7.25200521 6.32049913,7.15700521 6.56549913,7.15700521 C6.81049913,7.15700521 7.00049913,7.25200521 7.14049913,7.44700521 C7.26049913,7.61200521 7.32049913,7.82700521 7.32049913,8.08700521 C7.32049913,8.34200521 7.26049913,8.55200521 7.14049913,8.72200521 C7.00049913,8.91200521 6.81049913,9.01200521 6.56549913,9.01200521 Z M9.55049913,10.4370052 C10.3504991,10.4370052 10.7554991,10.0270052 10.7554991,9.20700521 L10.7554991,6.79200521 L10.2254991,6.79200521 L10.2254991,7.13700521 C10.0354991,6.85700521 9.77549913,6.72200521 9.43549913,6.72200521 C9.08549913,6.72200521 8.80049913,6.84200521 8.58549913,7.08700521 C8.36549913,7.32700521 8.26049913,7.63700521 8.26049913,8.02700521 C8.26049913,8.41700521 8.36549913,8.72700521 8.58549913,8.96200521 C8.80049913,9.19700521 9.08549913,9.31700521 9.43549913,9.31700521 C9.77549913,9.31700521 10.0354991,9.17200521 10.2254991,8.88700521 L10.2254991,9.28700521 C10.2254991,9.77200521 10.0004991,10.0170052 9.55049913,10.0170052 C9.34049913,10.0170052 9.18549913,9.98200521 9.09049913,9.92200521 C8.99049913,9.85700521 8.93049913,9.74700521 8.90049913,9.59700521 L8.37049913,9.59700521 C8.42049913,9.88200521 8.53549913,10.0920052 8.72549913,10.2320052 C8.91549913,10.3670052 9.19049913,10.4370052 9.55049913,10.4370052 Z M9.51549913,8.88200521 C9.25549913,8.88200521 9.07049913,8.79200521 8.95549913,8.62200521 C8.85549913,8.47700521 8.80549913,8.27700521 8.80549913,8.02700521 C8.80549913,7.75200521 8.86549913,7.53700521 8.99549913,7.38700521 C9.11549913,7.22700521 9.29049913,7.15200521 9.51549913,7.15200521 C9.74049913,7.15200521 9.91549913,7.22700521 10.0454991,7.38700521 C10.1654991,7.54200521 10.2304991,7.75700521 10.2304991,8.02700521 C10.2304991,8.29200521 10.1654991,8.50200521 10.0454991,8.65700521 C9.91549913,8.80700521 9.74049913,8.88200521 9.51549913,8.88200521 Z M12.5454991,9.44700521 C12.9354991,9.44700521 13.2504991,9.31200521 13.4904991,9.05200521 C13.7204991,8.80200521 13.8354991,8.47700521 13.8354991,8.08700521 C13.8354991,7.69200521 13.7154991,7.36700521 13.4854991,7.11200521 C13.2504991,6.85200521 12.9354991,6.72200521 12.5454991,6.72200521 C12.1554991,6.72200521 11.8404991,6.85200521 11.6054991,7.11200521 C11.3704991,7.36700521 11.2554991,7.69200521 11.2554991,8.08700521 C11.2554991,8.47700521 11.3704991,8.80200521 11.6004991,9.05200521 C11.8404991,9.31200521 12.1554991,9.44700521 12.5454991,9.44700521 Z M12.5454991,9.01200521 C12.3004991,9.01200521 12.1104991,8.91200521 11.9754991,8.72200521 C11.8554991,8.55700521 11.8004991,8.34700521 11.8004991,8.08700521 C11.8004991,7.82700521 11.8554991,7.61200521 11.9754991,7.44700521 C12.1104991,7.25200521 12.3004991,7.15700521 12.5454991,7.15700521 C12.7904991,7.15700521 12.9804991,7.25200521 13.1204991,7.44700521 C13.2404991,7.61200521 13.3004991,7.82700521 13.3004991,8.08700521 C13.3004991,8.34200521 13.2404991,8.55200521 13.1204991,8.72200521 C12.9804991,8.91200521 12.7904991,9.01200521 12.5454991,9.01200521 Z" id="Logo" fill="#FFFFFF" fill-rule="nonzero"></path>
                </g>
            </g>
        </g>
    </g>
</svg>