<?xml version="1.0" standalone="no"?><!DOCTYPE svg PUBLIC "-//W3C//DTD SVG 1.1//EN" "http://www.w3.org/Graphics/SVG/1.1/DTD/svg11.dtd"><svg t="1662813851133" class="icon" viewBox="0 0 1024 1024" version="1.1" xmlns="http://www.w3.org/2000/svg" p-id="12811" xmlns:xlink="http://www.w3.org/1999/xlink" width="200" height="200"><path d="M501.30944 464.22016c0-19.99872-16-35.19488-35.99872-35.99872H310.4V350.62784L137.61536 464.22016l171.98592 113.59232V500.21888h155.70944c19.99872-0.79872 35.99872-16 35.99872-35.99872z" p-id="12812"></path><path d="M886.38464 212.01408c0-39.46496-31.99488-71.45984-71.45984-71.45984H443.88864c-39.46496 0-71.45984 31.99488-71.45984 71.45984v117.69856a29.42464 29.42464 0 1 0 58.84928 0V225.00352a25.6 25.6 0 0 1 25.6-25.6h358.05184c2.72384 0 5.23264 0.88576 7.296 2.3552l-252.50816 91.904c-15.872 5.77536-28.74368 29.28128-28.74368 52.49536v382.88384H456.87808a25.6 25.6 0 0 1-25.6-25.6V598.7328a29.42464 29.42464 0 1 0-58.84928 0v117.69856c0 39.46496 31.99488 71.45984 71.45984 71.45984h97.08544v62.68928c0 23.21408 12.86656 37.3504 28.74368 31.57504l287.42144-104.61184c15.872-5.77536 28.74368-29.28128 28.74368-52.49536v-0.39424c0.3072-2.69824 0.50688-5.43232 0.50688-8.2176v-504.4224z" p-id="12813"></path></svg>