<?xml version="1.0" encoding="UTF-8"?>
<svg width="280px" height="280px" viewBox="0 0 280 280" version="1.1" xmlns="http://www.w3.org/2000/svg" xmlns:xlink="http://www.w3.org/1999/xlink">
    <g id="1.3.2" stroke="none" stroke-width="1" fill="none" fill-rule="evenodd">
        <g id="数据管理-授权完成" transform="translate(-580.000000, -310.000000)">
            <g id="Checklist_Flatline" transform="translate(580.000000, 310.000000)">
                <rect id="矩形" x="0" y="0" width="280" height="280"></rect>
                <path d="M161.336969,194.622047 C151.988896,187.721325 148.351646,175.17069 148.504615,163.521999 C148.581099,157.650855 149.64338,151.371283 153.739535,147.167884 C155.786646,145.211124 158.193686,143.670883 160.827074,142.632638 C169.155357,139.007845 180.237072,138.42073 186.015881,145.432068 C187.611504,147.560504 188.86986,149.922523 189.746612,152.434897 C193.219562,161.034563 196.335587,169.770372 199.094684,178.642323 C201.814124,187.346933 204.763016,201.105832 192.466051,201.880142 C182.455115,202.51831 169.580269,200.680387 161.336969,194.622047 Z" id="路径" fill="#FFFFFF" fill-rule="nonzero"></path>
                <path d="M189.254388,203 C180.189375,203 169.096662,201.065713 161.556684,195.518484 C153.088053,189.298089 148.334033,177.820182 148.504428,163.990455 C148.606665,156.372602 150.361734,150.919105 153.88039,147.314684 C155.979034,145.318539 158.440006,143.742228 161.130697,142.670691 C169.650446,138.964017 180.964672,138.410146 186.894418,145.601945 C188.523356,147.765991 189.807973,150.168918 190.702746,152.725576 C194.178803,161.323354 197.33963,170.168244 200.07447,179.013135 C203.098981,188.693092 203.294935,195.262851 200.662332,199.08882 C199.094699,201.363951 196.530254,202.633593 193.037157,202.855141 C191.844392,202.957395 190.574949,203 189.254388,203 Z M173.433214,140.898304 C169.323116,140.96198 165.267425,141.848578 161.505565,143.505757 C158.914184,144.543024 156.545572,146.067389 154.527891,147.996371 C151.17111,151.404807 149.501239,156.687882 149.416041,164.075666 C149.245646,177.581592 153.87187,188.786824 162.110468,194.853839 C170.562059,201.065713 183.622834,202.642114 193.045677,202.045638 C196.249102,201.841132 198.592033,200.699306 199.997792,198.637202 C202.468519,195.049824 202.238486,188.727176 199.299173,179.328415 C196.538774,170.509088 193.386467,161.68124 189.927449,153.109025 C189.066374,150.637127 187.830806,148.312168 186.263956,146.215464 C183.10313,142.423579 178.383188,140.898304 173.433214,140.898304 L173.433214,140.898304 Z" id="形状" fill="#231F20" fill-rule="nonzero"></path>
                <path d="M62.6377449,150.916652 L35.5,139.800662 C45.1476514,119.326951 56.0299978,107.171214 63.5999555,102.412049 C73.1794858,94.4998303 96.9367208,93.9588239 118.726959,93.1135015 C125.698951,92.7088647 132.691829,93.3876666 139.452805,95.1253689 C164.870492,102.099279 188.5,138.634117 188.5,138.634117 L157.649655,142.75929 C157.649655,142.75929 161.626224,179.716789 165.117431,224.75557 C165.117431,224.75557 125.224009,233.665269 62.9357747,230.199447 C62.893199,230.23326 63.2678651,157.324197 62.6377449,150.916652 Z" id="路径" fill="#286AE5" fill-rule="nonzero"></path>
                <path d="M121.623846,88.964549 L125.026289,105.242704 C125.026289,105.242704 121.402688,116.052416 110.421303,114.916337 C103.851307,114.170674 97.9664094,110.518688 94.3957971,104.971401 L90.5,75.0433351 C90.5,75.0433351 97.8237583,69.7953257 93.2049421,53 C102.406696,55.5675622 112.132429,55.6173492 121.360157,53.1441295 C121.360157,53.1441295 128.675409,71.0077091 128.496781,79.4265674 C128.318153,87.8454258 121.623846,88.964549 121.623846,88.964549 Z" id="路径" fill="#FFFFFF" fill-rule="nonzero"></path>
                <path d="M112.525391,116 C111.978185,116 111.431336,115.972117 110.88714,115.91502 C99.7948151,114.759379 94.5302269,105.820155 94.470499,105.718187 C94.4457909,105.667076 94.4285512,105.612709 94.4193036,105.556737 L90.5028596,75.5610512 C90.4848367,75.4005273 90.5528908,75.2423893 90.6820433,75.1446805 C92.0768156,73.9128418 93.104128,72.3223722 93.6513734,70.547608 C94.7606059,67.4970552 95.5797315,62.0502466 93.2332781,53.5528853 C93.1929695,53.3959874 93.2420799,53.2297009 93.3612664,53.1195198 C93.4789117,53.006176 93.6513028,52.9698591 93.8049595,53.0260489 C102.954127,55.542631 112.611312,55.5866262 121.783217,53.1535093 C121.996953,53.0898997 122.223812,53.2010096 122.303703,53.4084301 C122.610875,54.1477006 129.675833,71.4993124 129.496649,79.8947055 C129.343063,87.2789125 124.240593,89.3182792 122.670603,89.7686393 L125.9983,105.667202 C126.019875,105.74217 126.019875,105.821664 125.9983,105.896631 C125.96417,106.032589 122.499952,116 112.525391,116 Z M95.281092,105.369795 C98.8227043,110.740676 104.572093,114.272544 110.980998,115.0143 C121.049417,116.050978 124.701351,106.907817 125.127979,105.726684 L121.714956,89.5307132 C121.69258,89.4145516 121.717902,89.2943051 121.785257,89.1968842 C121.852611,89.0994634 121.956374,89.0330021 122.073324,89.0123742 C122.3293,88.9698874 128.430079,87.7972515 128.592198,79.8777107 C128.754316,72.3065618 122.619407,56.6544222 121.612565,54.0967164 C112.641765,56.3851383 103.236518,56.3851383 94.2657176,54.0967164 C98.1394988,69.0180829 92.559206,74.6773256 91.381713,75.697009 L95.281092,105.369795 Z" id="形状" fill="#231F20" fill-rule="nonzero"></path>
                <path d="M97.0191194,73.8969331 C96.4801149,72.5022426 95.5046402,71.3242592 94.2416194,70.5428238 C93.0345424,69.8689359 91.7221057,69.4094676 90.3614104,69.1844095 C89.6324935,68.9791236 88.8668783,68.9447095 88.1228283,69.0837862 C87.6112195,69.2355283 87.1348049,69.4892726 86.7216418,69.8300756 C85.6752287,70.5326775 84.9131668,71.5920494 84.5742612,72.8152329 C84.419393,73.8277535 84.5075454,74.8630924 84.8312836,75.8339313 C85.1057878,76.9094855 85.518317,77.9440724 86.0583582,78.9113266 C87.1927026,80.8340073 89.0402112,82.2180399 91.1893512,82.755131 C93.3384911,83.2922221 95.6107565,82.9377613 97.5,81.7707048" id="路径" fill="#FFFFFF" fill-rule="nonzero"></path>
                <path d="M92.6694975,84 C89.5741167,84.0016575 86.708124,82.3536174 85.132294,79.6658587 C84.5645729,78.6593994 84.1362705,77.5791889 83.8593441,76.4553846 C83.5065226,75.4128427 83.411648,74.2991002 83.5829799,73.2111161 C83.9476106,71.8736681 84.7769377,70.7131538 85.919513,69.9415017 C86.3830876,69.5613063 86.9147421,69.2744887 87.4855764,69.0966401 C88.3003474,68.9396194 89.1400405,68.9743132 89.9393549,69.1980235 C91.3652928,69.4271844 92.7401514,69.9076291 94.0010701,70.617391 C95.3533939,71.4539845 96.399703,72.7111537 96.9824528,74.1996042 C97.0286266,74.3067983 97.0287137,74.4285011 96.9826935,74.5357624 C96.9366733,74.6430237 96.8486591,74.7262564 96.7395874,74.7656614 C96.5176104,74.8524404 96.2676966,74.7433137 96.1784845,74.5206516 C95.6692723,73.2048853 94.7452533,72.0945844 93.5488379,71.3608692 C92.3707645,70.7087449 91.0903345,70.2657824 89.7634868,70.0513337 C89.0939748,69.8571707 88.3893859,69.8196075 87.7033179,69.9415017 C87.2391076,70.0802453 86.8065501,70.3099173 86.4303679,70.617391 C85.4674887,71.2742871 84.7601408,72.2476405 84.4288217,73.3716398 C84.2896754,74.3224359 84.3787059,75.2930347 84.6884365,76.2019262 C84.9498717,77.2509061 85.3498522,78.2596865 85.8776397,79.2011849 C86.9626457,81.0408317 88.7331514,82.3651229 90.7932831,82.8779556 C92.8534148,83.3907883 95.0313382,83.0493874 96.8400834,81.9300878 C96.9374362,81.8681449 97.0554499,81.8484625 97.1673843,81.8755004 C97.2793187,81.9025382 97.3756983,81.9740075 97.434685,82.0737143 C97.4957174,82.1706126 97.5150274,82.2883976 97.4881707,82.3999603 C97.4613141,82.511523 97.3906043,82.6072529 97.2923157,82.6651174 C95.9033395,83.5326744 94.3031332,83.9947487 92.6694975,84 L92.6694975,84 Z" id="路径" fill="#231F20" fill-rule="nonzero"></path>
                <path d="M123.5,97.5838693 C119.495523,98.5578004 115.252082,97.8036272 111.864761,95.5159755 C106.447755,91.6587206 106.5,89 106.5,89 C106.5,89 114.808406,92.1060609 121.758198,89.793396 L123.5,97.5838693 Z" id="路径" fill="#231F20" fill-rule="nonzero"></path>
                <path d="M119.708746,97.9992046 C116.860917,98.0309448 114.078831,97.1119913 111.773901,95.3782377 C106.500586,91.3651507 106.492295,88.5035704 106.500586,88.391857 C106.5,88.2523135 106.568982,88.1223484 106.682997,88.0481237 C106.799663,87.9839588 106.939442,87.9839588 107.056109,88.0481237 C107.139022,88.0481237 114.90804,91.1245373 121.292398,88.8473038 C121.399448,88.7920714 121.525295,88.7920714 121.632345,88.8473038 C121.734878,88.9036784 121.807829,89.0044885 121.831338,89.1222904 L123.489613,97.0625312 C123.537774,97.2798194 123.414169,97.4983548 123.207706,97.5609446 C122.064703,97.8639217 120.888482,98.0112486 119.708746,97.9992046 Z M107.462386,89.0535438 C107.785749,90.0417772 108.830463,92.0783974 112.263092,94.690771 C115.275192,96.8566139 119.019962,97.6284864 122.602436,96.8219178 L121.126571,89.8011638 C115.62939,91.5198307 109.518647,89.8011638 107.462386,89.0535438 L107.462386,89.0535438 Z" id="形状" fill="#231F20" fill-rule="nonzero"></path>
                <path d="M112.5,65 C112.5,65 119.461014,72.0783379 118.387467,73.679586 C117.31392,75.2808342 113.454264,74.9770076 113.454264,74.9770076" id="路径" fill="#FFFFFF" fill-rule="nonzero"></path>
                <path d="M113.699816,75.9890267 C113.430178,76.0036578 113.159889,76.0036578 112.890251,75.9890267 C112.649869,75.9683334 112.472539,75.7651666 112.494173,75.5352409 C112.515808,75.3053152 112.728214,75.1356989 112.968596,75.1563922 C113.987081,75.2313293 116.816207,75.1563922 117.599657,74.0323356 C118.165482,73.199701 114.935926,69.0365283 111.628026,65.7059901 C111.546143,65.6292515 111.5,65.5242174 111.5,65.414568 C111.5,65.3049187 111.546143,65.1998845 111.628026,65.123146 C111.709751,65.0443318 111.820999,65 111.937053,65 C112.053107,65 112.164355,65.0443318 112.246081,65.123146 C113.987081,66.8550258 119.506052,72.6668149 118.339582,74.4320001 C117.460377,75.7975208 114.988156,75.9890267 113.699816,75.9890267 Z" id="路径" fill="#231F20" fill-rule="nonzero"></path>
                <ellipse id="椭圆形" fill="#231F20" fill-rule="nonzero" transform="translate(102.739808, 66.243913) rotate(-21.920000) translate(-102.739808, -66.243913) " cx="102.739808" cy="66.2439131" rx="1.38543748" ry="1.9483077"></ellipse>
                <ellipse id="椭圆形" fill="#231F20" fill-rule="nonzero" transform="translate(117.172260, 63.903375) rotate(-21.920000) translate(-117.172260, -63.903375) " cx="117.17226" cy="63.9033751" rx="1.38543748" ry="1.9483077"></ellipse>
                <path d="M113.375133,85 C110.760653,85 108.355331,83.5222642 106.289892,80.6581132 C105.11286,78.9877642 104.180484,77.1722906 103.518543,75.2618868 C103.449942,75.0421269 103.57743,74.8102762 103.806136,74.7388679 C104.03683,74.6735179 104.280216,74.7949635 104.355177,75.0128302 C104.355177,75.1207547 107.89344,85.5562264 114.813097,83.970566 C121.732755,82.3849057 121.636891,74.7388679 121.628176,74.4150943 C121.628176,74.1858441 121.823266,74 122.063922,74 C122.304579,74 122.499669,74.1858441 122.499669,74.4150943 C122.499669,74.5064151 122.673968,83.0407547 115.022256,84.8007547 C114.483325,84.9285097 113.930479,84.9953849 113.375133,85 L113.375133,85 Z" id="路径" fill="#231F20" fill-rule="nonzero"></path>
                <rect id="矩形" fill="#2D404F" fill-rule="nonzero" x="139.5" y="64" width="96" height="123" rx="5.28815"></rect>
                <rect id="矩形" fill="#FFFFFF" fill-rule="nonzero" x="145.5" y="71" width="84" height="108"></rect>
                <path d="M230.10802,180 L145.883459,180 C145.670309,179.995397 145.5,179.822449 145.5,179.610714 L145.5,71.380823 C145.5,71.1705003 145.67168,71 145.883459,71 L230.10802,71 C230.32122,71 230.495365,71.1691385 230.5,71.380823 L230.5,179.610714 C230.495481,179.823824 230.322605,179.995512 230.10802,180 Z M146.275439,179.229891 L229.71604,179.229891 L229.71604,71.7531832 L146.275439,71.7531832 L146.275439,179.229891 Z" id="形状" fill="#231F20" fill-rule="nonzero"></path>
                <path d="M209.60666,59.1328514 L197.434087,59.1328514 C196.513296,54.4110211 192.343223,51 187.49144,51 C182.639656,51 178.469584,54.4110211 177.548793,59.1328514 L165.419021,59.1328514 C163.810227,59.1328446 162.504718,60.4231098 162.5,62.0177875 L162.5,72.1065788 C162.5,73.7045712 163.80689,75 165.419021,75 L209.6409,75 C211.229583,74.967667 212.5,73.6816602 212.5,72.1065788 L212.5,62.0177875 C212.495373,60.4329921 211.205422,59.1467873 209.60666,59.1328514 L209.60666,59.1328514 Z M187.49572,60.4480429 C186.077423,60.4480429 184.927666,59.3083695 184.927666,57.902511 C184.927666,56.4966526 186.077423,55.3569792 187.49572,55.3569792 C188.914017,55.3569792 190.063773,56.4966526 190.063773,57.902511 C190.063773,58.5776281 189.793211,59.2250941 189.311608,59.7024739 C188.830004,60.1798537 188.17681,60.4480429 187.49572,60.4480429 L187.49572,60.4480429 Z" id="形状" fill="#2D404F" fill-rule="nonzero"></path>
                <path d="M178.110327,105 L157.889673,105 C157.676351,104.995586 157.504492,104.826715 157.5,104.617102 L157.5,83.3828982 C157.504492,83.1732851 157.676351,83.0044144 157.889673,83 L178.110327,83 C178.325537,83 178.5,83.1714294 178.5,83.3828982 L178.5,104.617102 C178.5,104.828571 178.325537,105 178.110327,105 Z M158.245462,104.22588 L177.729125,104.22588 L177.729125,83.7657964 L158.245462,83.7657964 L158.245462,104.22588 Z" id="形状" fill="#D1D3D4" fill-rule="nonzero"></path>
                <path d="M182.5,88.9786559 C182.394586,89.1571267 182.274365,89.3259814 182.140668,89.4833513 L169.246482,102.656757 C168.803584,103.110127 168.460964,103.118681 168.026423,102.656757 C165.603018,100.107617 163.187969,97.5413695 160.781277,94.9580133 C160.596919,94.8149893 160.492145,94.5890283 160.50046,94.3523898 C160.508776,94.1157513 160.629139,93.8980803 160.82306,93.7689852 L162.644792,92.0581533 C162.774503,91.8855073 162.975201,91.7843346 163.187969,91.7843346 C163.400738,91.7843346 163.601435,91.8855073 163.731146,92.0581533 L168.018066,96.5319787 C168.469321,96.9939033 168.803584,96.9939033 169.246482,96.5319787 L179.274364,86.3268664 C179.407721,86.1226241 179.631872,86 179.871859,86 C180.111847,86 180.335997,86.1226241 180.469354,86.3268664 C181.029244,86.9085493 181.597491,87.4902321 182.140668,88.0376983 C182.266934,88.1930135 182.38413,88.3558259 182.491643,88.5252854 L182.5,88.9786559 Z" id="路径" fill="#00C4B8" fill-rule="nonzero"></path>
                <path d="M219.156566,91.965 L189.843434,91.965 C189.646174,91.93108 189.5,91.7331646 189.5,91.5 C189.5,91.2668354 189.646174,91.06892 189.843434,91.035 L219.156566,91.035 C219.353826,91.06892 219.5,91.2668354 219.5,91.5 C219.5,91.7331646 219.353826,91.93108 219.156566,91.965 L219.156566,91.965 Z" id="路径" fill="#D1D3D4" fill-rule="nonzero"></path>
                <path d="M211.111965,97.9599431 L189.888131,97.9599431 C189.784521,97.9627043 189.684464,97.9151273 189.611182,97.8282548 C189.537901,97.7413823 189.497767,97.6227683 189.5,97.4999431 C189.5,97.2458921 189.673825,97.0399431 189.888131,97.0399431 L211.111965,97.0399431 C211.32439,97.0452463 211.495526,97.2481215 211.5,97.4999431 C211.5,97.7539941 211.326271,97.9599431 211.111965,97.9599431 L211.111965,97.9599431 Z" id="路径" fill="#D1D3D4" fill-rule="nonzero"></path>
                <path d="M178.110145,135 L157.88967,135 C157.67635,134.995584 157.504492,134.826651 157.5,134.61696 L157.5,113.383222 C157.5,113.171675 157.674461,113.000087 157.88967,113.000087 L178.110145,113.000087 C178.214191,112.997883 178.31467,113.0375 178.388261,113.109838 C178.461851,113.182177 178.502154,113.280946 178.499911,113.383222 L178.499911,134.61696 C178.499911,134.828507 178.325354,135 178.110145,135 Z M158.245455,134.23392 L177.728946,134.23392 L177.728946,113.766262 L158.245455,113.766262 L158.245455,134.23392 Z" id="形状" fill="#D1D3D4" fill-rule="nonzero"></path>
                <path d="M182.5,117.975303 C182.394645,118.156386 182.274435,118.327981 182.140668,118.488234 L169.246482,131.653466 C169.115273,131.86899 168.884646,132 168.636452,132 C168.388259,132 168.157631,131.86899 168.026423,131.653466 C165.603018,129.100209 163.187969,126.535553 160.781277,123.959499 C160.596919,123.816564 160.492145,123.590743 160.50046,123.354251 C160.508776,123.11776 160.629139,122.900224 160.82306,122.771209 L162.644792,121.061438 C162.776368,120.891925 162.976383,120.793124 163.187969,120.793124 C163.399556,120.793124 163.59957,120.891925 163.731146,121.061438 L168.018066,125.532488 C168.469321,125.994126 168.803584,126.002675 169.246482,125.532488 L179.274364,115.333707 C179.405062,115.125724 179.630168,115 179.871859,115 C180.11355,115 180.338657,115.125724 180.469354,115.333707 C181.029244,115.915029 181.597491,116.487802 182.140668,117.043478 C182.266934,117.198697 182.38413,117.361408 182.491643,117.530762 L182.5,117.975303 Z" id="路径" fill="#00C4B8" fill-rule="nonzero"></path>
                <path d="M219.107955,120.96 L189.892045,120.96 C189.675525,120.96 189.5,120.754051 189.5,120.5 C189.5,120.245949 189.675525,120.04 189.892045,120.04 L219.107955,120.04 C219.324475,120.04 219.5,120.245949 219.5,120.5 C219.5,120.754051 219.324475,120.96 219.107955,120.96 Z" id="路径" fill="#D1D3D4" fill-rule="nonzero"></path>
                <path d="M211.111965,127.960057 L189.888131,127.960057 C189.673825,127.960057 189.5,127.754108 189.5,127.500057 C189.497767,127.377232 189.537901,127.258618 189.611182,127.171745 C189.684464,127.084873 189.784521,127.037296 189.888131,127.040057 L211.111965,127.040057 C211.326271,127.040057 211.5,127.246006 211.5,127.500057 C211.495526,127.751879 211.32439,127.954754 211.111965,127.960057 Z" id="路径" fill="#D1D3D4" fill-rule="nonzero"></path>
                <path d="M178.109512,164 L157.889658,164 C157.676344,163.995589 157.504492,163.82691 157.5,163.617534 L157.5,142.382464 C157.504492,142.173089 157.676344,142.004409 157.889658,142 L178.109512,142 C178.324714,142 178.49917,142.171235 178.49917,142.382464 L178.49917,163.592591 C178.506207,163.698275 178.468282,163.802092 178.39443,163.879307 C178.320579,163.956523 178.217413,164.000224 178.109512,164 Z M158.245432,163.23507 L177.728325,163.23507 L177.728325,142.789871 L158.245432,142.789871 L158.245432,163.23507 Z" id="形状" fill="#D1D3D4" fill-rule="nonzero"></path>
                <path d="M219.156566,150.965 L189.843434,150.965 C189.646174,150.93108 189.5,150.733165 189.5,150.5 C189.5,150.266835 189.646174,150.06892 189.843434,150.035 L219.156566,150.035 C219.353826,150.06892 219.5,150.266835 219.5,150.5 C219.5,150.733165 219.353826,150.93108 219.156566,150.965 L219.156566,150.965 Z" id="路径" fill="#D1D3D4" fill-rule="nonzero"></path>
                <path d="M182.5,145.975303 C182.394645,146.156386 182.274435,146.327981 182.140668,146.488234 L169.246482,159.653466 C169.115273,159.86899 168.884646,160 168.636452,160 C168.388259,160 168.157631,159.86899 168.026423,159.653466 C165.603018,157.100209 163.187969,154.535553 160.781277,151.959499 C160.596919,151.816564 160.492145,151.590743 160.50046,151.354251 C160.508776,151.11776 160.629139,150.900224 160.82306,150.771209 L162.644792,149.061438 C162.776368,148.891925 162.976383,148.793124 163.187969,148.793124 C163.399556,148.793124 163.59957,148.891925 163.731146,149.061438 L168.018066,153.532488 C168.469321,153.994126 168.803584,154.002675 169.246482,153.532488 L179.274364,143.333707 C179.405062,143.125724 179.630168,143 179.871859,143 C180.11355,143 180.338657,143.125724 180.469354,143.333707 C181.029244,143.915029 181.597491,144.487802 182.140668,145.043478 C182.266934,145.198697 182.38413,145.361408 182.491643,145.530762 L182.5,145.975303 Z" id="路径备份" fill="#00C4B8" fill-rule="nonzero"></path>
                <path d="M211.111965,156.959943 L189.888131,156.959943 C189.784521,156.962704 189.684464,156.915127 189.611182,156.828255 C189.537901,156.741382 189.497767,156.622768 189.5,156.499943 C189.5,156.245892 189.673825,156.039943 189.888131,156.039943 L211.111965,156.039943 C211.32439,156.045246 211.495526,156.248121 211.5,156.499943 C211.5,156.753994 211.326271,156.959943 211.111965,156.959943 Z" id="路径" fill="#D1D3D4" fill-rule="nonzero"></path>
                <path d="M72.7146763,144.072509 L59.5593443,175.190222 L88.8540434,149.96447 L107.5,156.264531 C107.5,156.264531 103.339402,183.981401 77.8727942,207.387703 C52.4061859,230.794004 26.1125735,226.304892 24.6035044,204.394961 C23.0944352,182.48503 38.5858403,140 38.5858403,140" id="路径" fill="#FFFFFF" fill-rule="nonzero"></path>
                <path d="M45.2555402,222.998954 C42.2420647,223.027172 39.2506855,222.484449 36.4407883,221.399701 C29.3855702,218.601008 25.174647,212.39965 24.6023715,203.952533 C23.1076219,182.192487 38.4736478,139.769755 38.6273934,139.301889 C38.7099462,139.066984 38.9680747,138.943205 39.2039397,139.025422 C39.4398046,139.107639 39.5640887,139.364717 39.4815361,139.599622 C39.3277904,140.024955 24.0300959,182.277554 25.5077627,203.850453 C26.0544139,211.940291 30.0688843,217.869435 36.7909868,220.540528 C48.0229623,224.989513 63.8587667,219.630315 78.1229485,206.547066 C101.654578,184.948646 106.992969,159.343588 107.599411,156.017483 L89.5257526,149.909698 L60.3653233,174.987343 C60.208976,175.110823 59.9891368,175.115304 59.8278472,174.998299 C59.6665576,174.881295 59.6034131,174.671529 59.6734678,174.48545 L72.86143,143.385087 C72.9239869,143.23313 73.0631912,143.125954 73.226606,143.103931 C73.3900208,143.081908 73.5528195,143.148384 73.6536773,143.278318 C73.7545352,143.408252 73.7781295,143.581903 73.7155726,143.73386 L61.2792559,173.141397 L89.0901399,149.127085 C89.2096843,149.023315 89.3757122,148.990893 89.5257526,149.042019 L108.19731,155.353963 C108.398406,155.421271 108.523632,155.620818 108.49626,155.830336 C108.453553,156.111056 104.012012,183.987393 78.6781413,207.236106 C67.5913699,217.427089 55.4967103,222.998954 45.2555402,222.998954 Z" id="路径" fill="#231F20" fill-rule="nonzero"></path>
                <polygon id="路径" fill="#231F20" fill-rule="nonzero" points="96.349814 105 129.237615 130.922214 130.130116 132.45884 134.5 140 126.105444 137.48628 124.387801 136.968504 91.5 111.054641"></polygon>
                <path d="M135.064265,140.997969 L134.937538,140.997969 L124.79933,137.948691 C124.747428,137.931915 124.698837,137.906337 124.655706,137.873089 L91.6558404,111.832418 C91.570292,111.760045 91.5158731,111.657842 91.5037673,111.54681 C91.4886903,111.438731 91.5192719,111.329266 91.5882523,111.244402 L96.4545919,105.154245 C96.6019823,104.978299 96.8624714,104.948699 97.0459873,105.087044 L130.045852,131.127715 C130.088189,131.158754 130.12286,131.198972 130.147235,131.245318 L135.427551,140.376353 C135.52415,140.518449 135.52415,140.704669 135.427551,140.846765 C135.339867,140.954878 135.203262,141.011735 135.064265,140.997969 Z M125.120373,137.15067 L134.168724,139.87234 L129.462906,131.72413 L96.8516717,105.960666 L92.5091395,111.395606 L125.120373,137.15067 Z" id="形状" fill="#231F20" fill-rule="nonzero"></path>
                <polygon id="路径" fill="#68E1FD" fill-rule="nonzero" points="130.335507 133 134.5 141 126.5 138.333333"></polygon>
                <path d="M135.091037,140.994336 C135.050546,141.001888 135.008957,141.001888 134.968465,140.994336 L126.797001,138.599167 C126.664564,138.558462 126.560831,138.457111 126.519171,138.327714 C126.478792,138.196989 126.502953,138.05535 126.584543,137.944487 L130.490503,133.154148 C130.577735,133.044545 130.716987,132.987099 130.858219,133.002454 C130.996108,133.012903 131.120597,133.087068 131.193249,133.202051 L135.426067,140.38756 C135.524644,140.526891 135.524644,140.711295 135.426067,140.850626 C135.343036,140.946429 135.219417,140.999455 135.091037,140.994336 L135.091037,140.994336 Z M127.663176,137.952471 L134.200348,139.884574 L130.801018,134.104232 L127.663176,137.952471 Z" id="形状" fill="#231F20" fill-rule="nonzero"></path>
                <path d="M134.632907,138.865005 C134.804776,138.865398 134.944006,139.004628 134.944398,139.176497 L134.948735,141.076386 C134.949125,141.247244 134.810933,141.386068 134.640075,141.386458 C134.639604,141.386459 134.639133,141.386459 134.638662,141.386458 C134.466793,141.386065 134.327563,141.246835 134.327171,141.074966 L134.322834,139.175077 C134.322444,139.004219 134.460636,138.865395 134.631494,138.865005 C134.631965,138.865004 134.632436,138.865004 134.632907,138.865005 Z" id="矩形" fill="#FFFFFF" fill-rule="nonzero" transform="translate(134.635784, 140.125731) rotate(-51.530000) translate(-134.635784, -140.125731) "></path>
                <path d="M135.659451,142 C135.469698,141.99879 135.28589,141.927113 135.137883,141.796609 L133.817138,140.640978 C133.644671,140.490238 133.532909,140.271147 133.50588,140.030804 C133.47941,139.785996 133.543008,139.539708 133.68254,139.346671 C133.971467,138.950143 134.497389,138.884088 134.860274,139.19875 L136.181019,140.354381 C136.355409,140.507323 136.467373,140.730135 136.492277,140.973799 C136.523483,141.216142 136.459228,141.461614 136.315617,141.648688 L136.315617,141.648688 C136.15692,141.869402 135.915416,141.998703 135.659451,142 Z" id="路径" fill="#231F20" fill-rule="nonzero"></path>
                <path d="M91.5292339,97.2459753 L97.2876634,97.2591383 C98.3649349,97.2615998 99.2402314,98.1378222 99.242693,99.2162357 L99.2886195,119.336921 L89.6290449,119.314849 L89.5831132,99.1941638 C89.5806568,98.1157503 90.4519625,97.2435189 91.5292339,97.2459753 L91.5292339,97.2459753 Z" id="路径" fill="#231F20" fill-rule="nonzero" transform="translate(94.435866, 108.291448) rotate(-51.530000) translate(-94.435866, -108.291448) "></path>
                <path d="M100.164184,118.999925 C100.070873,119.001684 99.9796277,118.972286 99.904982,118.916332 L84.386289,106.598371 C83.8992806,106.213919 83.5857704,105.651455 83.5151526,105.035479 C83.4445347,104.419502 83.6226335,103.800817 84.0100276,103.316365 L87.5385235,98.8818983 C88.3427349,97.8730914 89.8128305,97.7049653 90.8245399,98.5060961 L106.343233,110.815707 C106.522546,110.959119 106.552416,111.220166 106.410124,111.400288 L100.490278,118.849523 C100.422588,118.935012 100.322964,118.989286 100.214352,118.999925 L100.164184,118.999925 Z M89.3780238,98.8234154 L89.2024351,98.8234154 C88.8050527,98.8649232 88.4407733,99.0633786 88.19071,99.3746168 L84.662214,103.817434 L84.662214,103.817434 C84.413696,104.129671 84.2996167,104.527759 84.3450958,104.924041 C84.390575,105.320323 84.5918832,105.682304 84.9046936,105.930278 L100.097293,117.989354 L105.498735,111.191509 L90.3144966,99.1407843 C90.0467246,98.9332514 89.7169534,98.8215012 89.3780238,98.8234154 L89.3780238,98.8234154 Z" id="形状" fill="#231F20" fill-rule="nonzero"></path>
                <path d="M94.0507969,118 C93.9495082,118.001402 93.8508858,117.967069 93.7718828,117.902857 C93.4319562,117.629214 85.3347317,111.194196 84.2713718,110.179069 C83.0424066,109.005053 83.6438151,106.453996 83.6699633,106.34807 C83.7277283,106.104314 83.9696718,105.954136 84.2103593,106.012637 C84.4510468,106.071139 84.5993348,106.316167 84.5415698,106.559923 C84.4021127,107.151344 84.1842111,108.846164 84.8902124,109.51703 C85.9187081,110.496848 94.2425503,117.126065 94.3297109,117.187855 C94.5216018,117.343173 94.5563911,117.625036 94.4081555,117.823412 C94.3206321,117.932829 94.1898175,117.997455 94.0507969,118 L94.0507969,118 Z" id="路径" fill="#231F20" fill-rule="nonzero"></path>
                <path d="M86.945076,109 C86.8410322,109.000988 86.7401342,108.965491 86.6610622,108.900062 C86.5705968,108.828488 86.5133697,108.724966 86.5020612,108.612435 C86.4907526,108.499904 86.5262964,108.387656 86.6008168,108.300563 L92.7114185,101.156523 C92.8686215,100.973213 93.1493466,100.94717 93.3396917,101.098238 C93.4314854,101.171193 93.4887924,101.27703 93.4985237,101.391574 C93.508255,101.506119 93.4695794,101.619587 93.3913306,101.706064 L87.2807288,108.841778 C87.2003827,108.942165 87.0763092,109.000644 86.945076,109 Z" id="路径" fill="#FFFFFF" fill-rule="nonzero"></path>
                <path d="M106.441779,158 C107.295936,156.589625 107.979261,152.902259 107.979261,152.902259 C107.979261,152.902259 115.299383,153.488499 116.836865,151.253989 C118.374347,149.019479 122.978251,133.157008 121.440769,130.455205 C119.903287,127.753402 114.001065,123.998066 112.232961,123.292879 C110.464857,122.587691 103.247234,123.998066 103.247234,123.998066 L108.918834,118.356566 C108.918834,118.356566 118.135183,123.760172 122.269301,123.40333 C126.403419,123.046488 127.590696,121.525662 125.463846,119.061754 C123.336997,116.597845 107.859679,109.656421 105.263043,110.013263 C102.666407,110.370105 91.2036261,121.058369 90.9644623,122.587691 C90.7252985,124.117014 81.8762363,153.828348 83.7639224,157.116392" id="路径" fill="#FFFFFF" fill-rule="nonzero"></path>
                <path d="M106.943432,159 C106.866215,158.994991 106.791986,158.968405 106.729278,158.923299 C106.627675,158.866135 106.553291,158.770896 106.522715,158.658824 C106.492139,158.546752 106.507914,158.427167 106.566521,158.32674 C107.248226,156.742912 107.748222,155.087652 108.057032,153.392337 C108.103634,153.174708 108.305223,153.025203 108.528171,153.042924 C110.498387,153.196325 115.869366,153.238936 117.008665,151.577091 C118.482043,149.44652 123.004973,133.629162 121.617256,131.183266 C120.118179,128.558403 114.216098,124.825643 112.588529,124.186472 C111.235076,123.641045 105.8127,124.527363 103.833918,124.910866 C103.644578,124.951488 103.451399,124.860635 103.362779,124.689286 C103.271299,124.517897 103.302541,124.30723 103.439875,124.169427 L109.127802,118.510631 C109.272577,118.371329 109.492294,118.343571 109.66747,118.442452 C109.753131,118.493586 118.816124,123.777402 122.79082,123.453555 C124.90666,123.274587 126.217282,122.76325 126.551362,122.021812 C126.885442,121.280373 126.234414,120.453711 125.694746,119.81454 C123.690266,117.479434 108.305451,110.576385 105.829832,110.891709 C103.508404,111.198511 92.1668143,121.672398 91.8584327,123.129708 C91.8070358,123.445033 91.4815219,124.655197 90.7962295,127.152226 C88.7060876,134.771148 83.1637851,155.003049 84.5857669,157.474511 C84.7086254,157.686333 84.6357858,157.957129 84.4230099,158.079593 C84.2094754,158.196948 83.9408939,158.125442 83.8148129,157.91767 C82.4099634,155.463252 85.9306532,141.57193 89.9396139,126.922125 C90.496414,124.885299 90.9418541,123.274587 90.9846849,122.993352 C91.267368,121.186628 102.977302,110.380372 105.70134,110.013914 C108.425377,109.647456 124.101441,116.618684 126.35434,119.235025 C127.382279,120.428144 127.716359,121.476385 127.365147,122.345658 C126.91114,123.445033 125.394931,124.101249 122.859349,124.322828 C118.987447,124.663719 111.149415,120.308833 109.504713,119.362859 L105.058878,123.785924 C107.311777,123.402421 111.509193,122.797339 112.914043,123.35981 C114.627274,124.050115 120.760641,127.902187 122.336813,130.740108 C123.912986,133.578028 119.304394,149.736278 117.702523,152.045817 C116.220578,154.193432 110.481254,154.014464 108.802288,153.912197 C108.499268,155.576245 107.989978,157.196482 107.286078,158.735809 C107.226932,158.878015 107.096607,158.9785 106.943432,159 L106.943432,159 Z" id="路径" fill="#231F20" fill-rule="nonzero"></path>
                <path d="M101.5,131.132044 C101.5,131.132044 111.146959,129.559106 113.265206,130.121452 C115.383454,130.683798 121.5,137 121.5,137" id="路径" fill="#FFFFFF" fill-rule="nonzero"></path>
                <path d="M121.047852,137.998332 C120.925107,138.000432 120.807136,137.952175 120.722905,137.865409 C119.012659,136.095869 114.300932,131.418636 112.650545,130.978328 C111.000157,130.53802 103.688856,131.576482 101.012321,132.01679 C100.774719,132.052074 100.551263,131.897534 100.507799,131.667867 C100.485551,131.556241 100.511373,131.440634 100.579244,131.348007 C100.647115,131.255381 100.7511,131.193831 100.86695,131.177713 C101.268858,131.111251 110.692313,129.516173 112.889979,130.147558 C115.087645,130.778943 120.731456,136.610947 121.372799,137.28387 C121.5424,137.449213 121.5424,137.716681 121.372799,137.882024 C121.288111,137.966466 121.168687,138.009211 121.047852,137.998332 Z" id="路径" fill="#231F20" fill-rule="nonzero"></path>
                <path d="M108.5,153 C108.5,153 109.723717,148.198347 109.463757,145" id="路径" fill="#FFFFFF" fill-rule="nonzero"></path>
                <path d="M107.895373,154 C107.768387,153.998726 107.649538,153.93136 107.575296,153.818574 C107.501055,153.705788 107.480287,153.561052 107.519367,153.42878 C107.519367,153.378379 108.969677,148.598615 108.662733,145.473709 C108.652043,145.359973 108.683327,145.246278 108.749622,145.157927 C108.815918,145.069577 108.911724,145.013902 109.015719,145.003293 C109.119647,144.989109 109.224431,145.021119 109.306634,145.092161 C109.388836,145.163204 109.441597,145.267351 109.453114,145.381306 C109.775405,148.691019 108.332768,153.495983 108.27138,153.69759 C108.216578,153.874898 108.066319,153.995747 107.895373,154 L107.895373,154 Z" id="路径" fill="#231F20" fill-rule="nonzero"></path>
                <path d="M102.5,145.5025 C102.973239,145.3625 111.035211,145.6325 111.5,145.5025" id="路径" fill="#FFFFFF" fill-rule="nonzero"></path>
                <path d="M110.926688,145.974093 C110.20611,145.974093 109.125242,145.974093 107.495362,145.974093 C105.633868,145.974093 103.309144,145.910739 103.02606,145.974093 C102.791132,146.014134 102.566686,145.856264 102.511361,145.612067 C102.457659,145.369771 102.599446,145.127187 102.828759,145.069027 C104.385932,144.976991 105.946767,144.976991 107.503941,145.069027 C109.374013,145.069027 111.690158,145.132381 111.973243,145.069027 C112.209133,145.024211 112.436424,145.184082 112.487942,145.431053 C112.542667,145.672791 112.406152,145.916845 112.179122,145.983144 C111.761889,146.008315 111.343556,146.005292 110.926688,145.974093 Z" id="路径" fill="#231F20" fill-rule="nonzero"></path>
                <path d="M99.5,137.961567 C99.5,137.961567 106.450596,136.525152 109.721465,137.163559 C112.992334,137.801965 118.912266,144.449374 119.5,145" id="路径" fill="#FFFFFF" fill-rule="nonzero"></path>
                <path d="M120.055403,145.999907 C119.939783,145.999637 119.829001,145.955679 119.747386,145.877685 C119.661825,145.796204 119.482149,145.608797 119.225467,145.33176 C117.659711,143.653245 112.876882,138.544367 110.138948,137.998443 C106.964655,137.346592 100.102708,138.772515 100.034259,138.813256 C99.7960273,138.858527 99.5637046,138.713447 99.5123408,138.48733 C99.4844305,138.379073 99.5043189,138.264652 99.5673711,138.170734 C99.6304233,138.076815 99.7311316,138.011603 99.8460265,137.990294 C100.136932,137.925109 106.956099,136.515483 110.327181,137.175481 C113.030891,137.729554 117.0779,141.779175 119.884283,144.777687 C120.123852,145.038428 120.294973,145.217686 120.371977,145.29102 C120.542674,145.455971 120.542674,145.720882 120.371977,145.885833 C120.285868,145.961343 120.172433,146.002218 120.055403,145.999907 L120.055403,145.999907 Z" id="路径" fill="#231F20" fill-rule="nonzero"></path>
                <path d="M217.519092,186.876776 C217.718404,185.520563 217.846514,184.154847 217.902894,182.785241 C217.99494,179.946421 217.552279,177.115602 216.597965,174.440215 C216.306829,173.247287 215.650969,172.174681 214.721595,171.371563 C213.740765,170.647021 212.162909,170.621448 211.446477,171.610236 C210.730045,172.599024 211.088261,173.681576 211.327072,174.730032 C211.959973,177.568948 212.101326,180.495278 211.74499,183.381924 C211.292956,179.503489 210.781219,175.471622 208.65751,172.18987 C208.216314,171.423778 207.588455,170.781621 206.832314,170.323107 C206.051531,169.874608 205.086626,169.894289 204.324802,170.374252 C203.241625,171.166986 203.326914,172.769504 203.471906,174.107777 C203.817504,177.528892 203.765988,180.978477 203.318385,184.387759 C203.559901,181.391594 203.341305,178.376134 202.670185,175.44605 C202.226679,173.528143 201.356726,171.405659 199.488885,170.800453 C199.084529,170.653909 198.647006,170.624364 198.2266,170.715213 C197.366438,171.007808 196.735011,171.746773 196.580512,172.641644 C196.439946,173.516859 196.439946,174.408879 196.580512,175.284094 C196.931917,178.726632 196.825805,182.200515 196.264941,185.61522 C196.702742,182.62199 196.587107,179.573871 195.923783,176.622367 C195.748273,175.43747 195.279176,174.315217 194.559151,173.357663 C193.795886,172.399178 192.512077,172.023812 191.352264,172.420019 C190.529509,172.865065 189.957133,173.663414 189.799995,174.585123 C189.657835,175.49861 189.626335,176.42589 189.706176,177.346909 C189.785731,180.831042 189.140996,184.293766 187.812749,187.516079 C186.703985,190.201149 185.254063,193.167512 185.535518,196.167971 C185.816974,199.16843 188.264783,201.930216 191.181685,203.098008 C194.166317,204.12865 197.384582,204.279558 200.452657,203.532734 C210.567995,201.529586 218.91784,196.713509 222.5,187.047257" id="路径" fill="#FFFFFF" fill-rule="nonzero"></path>
                <path d="M195.676737,203.998473 C193.895442,204.024663 192.125231,203.713792 190.459183,203.082205 C187.17469,201.763464 184.7883,198.800579 184.531699,195.743499 C184.292205,192.943315 185.455463,190.160259 186.481867,187.719732 L186.841108,186.863407 C188.149883,183.680325 188.784807,180.260021 188.705743,176.818713 L188.705743,176.390551 C188.639488,175.572442 188.679741,174.74918 188.82549,173.941461 C189.001937,172.874931 189.670939,171.954388 190.63025,171.458118 C191.971276,171.002731 193.453934,171.421487 194.359519,172.511398 C194.995216,173.309731 195.437317,174.244786 195.651077,175.243075 C195.651077,175.088937 195.651077,174.934798 195.60831,174.789223 L195.60831,174.575142 C195.46475,173.724847 195.46475,172.856461 195.60831,172.006166 C195.7952,170.944085 196.551582,170.071595 197.575585,169.736905 C198.078983,169.624413 198.603919,169.657074 199.089531,169.8311 C200.800205,170.379149 201.937802,172.057546 202.570752,174.814913 C202.570752,174.909108 202.613519,175.011867 202.639179,175.106063 C202.604965,174.609395 202.562198,174.112726 202.510878,173.616057 C202.356917,172.091799 202.305597,170.379149 203.562942,169.462881 C204.460435,168.874736 205.612856,168.844897 206.539514,169.385811 C207.365164,169.881057 208.053373,170.57595 208.541002,171.406739 C209.705988,173.317246 210.514581,175.423759 210.927392,177.623659 C210.825911,176.505954 210.651621,175.396078 210.405637,174.301118 C210.157589,173.187895 209.858221,171.834901 210.602364,170.807311 C210.974216,170.30574 211.53233,169.975424 212.150524,169.891043 C212.982051,169.766875 213.829138,169.972746 214.511253,170.464781 C215.514244,171.329891 216.225324,172.484487 216.546955,173.770196 C217.534624,176.512919 217.987584,179.419867 217.88128,182.333447 C217.88128,182.753047 217.821406,183.12983 217.8043,183.480923 C217.755596,184.488003 217.649936,185.491512 217.487825,186.486624 C217.494524,186.668613 217.389858,186.836344 217.223555,186.910128 C217.057251,186.983912 216.862831,186.948876 216.732665,186.821666 C216.602498,186.694456 216.562823,186.500713 216.632488,186.332486 C216.790962,185.368719 216.893773,184.396602 216.940409,183.42098 C216.940409,183.069887 216.983176,182.693104 217.01739,182.264941 C217.119307,179.472611 216.680731,176.686908 215.725831,174.061347 C215.461012,172.950464 214.864271,171.946781 214.015158,171.184094 C213.519503,170.830714 212.906348,170.683387 212.304484,170.773058 C211.919974,170.818884 211.570839,171.019946 211.337954,171.329669 C210.824752,172.040419 211.064246,173.127952 211.27808,174.087036 C211.934992,176.996684 212.082588,179.99839 211.714302,182.958565 C211.68459,183.177609 211.498869,183.34167 211.27808,183.343911 L211.27808,183.343911 C211.054426,183.341098 210.867649,183.172438 210.841858,182.950001 C210.41419,179.302056 209.926648,175.166006 207.813966,171.886281 C207.398301,171.179193 206.809564,170.589776 206.103293,170.17363 C205.475902,169.800498 204.694982,169.800498 204.067591,170.17363 C203.212254,170.824438 203.212254,172.245937 203.374768,173.530425 C203.718384,177.00192 203.663858,180.501389 203.212254,183.960465 C203.172987,184.194271 202.96058,184.358423 202.724712,184.337248 C202.48686,184.314621 202.311447,184.104645 202.331257,183.866269 C202.576395,180.89935 202.359984,177.912314 201.689755,175.011867 C201.133786,172.579904 200.158702,171.115588 198.798716,170.670299 C198.470385,170.549608 198.114952,170.52292 197.772312,170.59323 C197.078778,170.85274 196.576507,171.463345 196.455094,172.194558 C196.331044,172.957374 196.331044,173.735256 196.455094,174.498072 L196.455094,174.712154 C196.811894,178.210351 196.705482,181.74041 196.138619,185.2107 C196.095144,185.447432 195.871633,185.606726 195.63397,185.570356 C195.517621,185.55355 195.412971,185.490442 195.343734,185.395331 C195.274496,185.300221 195.246531,185.181159 195.266176,185.065124 C195.696988,182.109505 195.583932,179.099907 194.932594,176.185033 C194.766673,175.070987 194.328936,174.015087 193.658142,173.110826 C193.030791,172.284379 191.952447,171.941652 190.963832,172.254501 C190.262665,172.636412 189.778954,173.323252 189.655166,174.112726 C189.529887,174.850734 189.495416,175.601331 189.552526,176.347735 L189.552526,176.775897 C189.649504,180.342096 188.999771,183.88913 187.645125,187.188811 L187.285884,188.045136 C186.250926,190.519915 185.173202,193.071764 185.395589,195.657866 C185.635084,198.40667 187.799086,201.061278 190.784211,202.25157 C193.239027,203.236343 196.284026,203.373355 199.833674,202.671169 C211.124119,200.427597 218.454356,194.964243 221.619102,186.400992 C221.70177,186.164524 221.960259,186.039922 222.196454,186.122686 C222.432649,186.20545 222.557107,186.464238 222.474438,186.700705 C219.189945,195.580797 211.637321,201.258232 200.030401,203.553184 C198.597511,203.845723 197.139114,203.994887 195.676737,203.998473 Z" id="路径" fill="#231F20" fill-rule="nonzero"></path>
                <line x1="59.5" y1="175" x2="45.5" y2="186" id="路径" fill="#FFFFFF" fill-rule="nonzero"></line>
                <path d="M45.937819,187 C45.8026972,187.001339 45.6748367,186.937458 45.5927064,186.827557 C45.5212478,186.733821 45.4890828,186.614844 45.5032907,186.496814 C45.5174986,186.378783 45.5769149,186.271371 45.6684628,186.198218 L59.8012423,175.094259 C59.891396,175.021541 60.0062234,174.988819 60.1200921,175.003397 C60.2339609,175.017975 60.3373907,175.07864 60.4072936,175.171849 C60.4787522,175.265585 60.5109172,175.384562 60.4967093,175.502592 C60.4825014,175.620623 60.4230851,175.728035 60.3315372,175.801188 L46.1987577,186.905147 C46.1243918,186.965407 46.0326376,186.998753 45.937819,187 L45.937819,187 Z" id="路径" fill="#231F20" fill-rule="nonzero"></path>
                <path d="M84.6778076,67 C84.477258,67.001662 84.3019818,66.8664841 84.2547992,66.6737485 C82.9603934,61.3117664 81.7167485,55.8995941 80.5492453,50.5710721 L80.4308029,50.0189803 C79.8041792,47.6800253 79.4912918,45.2697616 79.5,42.8501524 C79.6609275,40.231899 81.6067664,40.1147886 83.3411009,40.1733438 C83.5806168,37.6702891 84.9160424,35.3962538 86.9958939,33.9497639 C92.1904375,30.4029926 97.7487683,32.0090777 103.120975,33.5649727 C106.674246,34.593871 110.35442,35.6562294 113.814629,35.1459627 C116.109859,34.6770578 118.318433,33.8616832 120.362799,32.72847 C121.107294,32.3604088 121.851789,32.0007127 122.604744,31.6661116 C123.357699,31.3315106 131.107214,28.01896 132.993831,31.783222 C133.518362,32.8372154 133.086893,34.0083191 132.596203,35.0121223 C131.625525,36.9742237 130.493708,38.8542934 129.212136,40.6334203 C130.134793,40.033747 131.118784,39.5318632 132.147814,39.1360805 C134.06927,38.3173725 136.23615,38.2634351 138.196835,38.98551 C138.998065,39.2913729 139.681741,39.8386006 140.151134,40.54977 C141.064832,42.0387448 140.667204,44.0128911 138.95825,46.4052887 C137.452927,48.5195377 135.799116,50.5265164 134.009052,52.4113779 C134.508202,52.1520621 135.007352,51.8425561 135.489581,51.5748753 C137.105473,50.5710721 138.780587,49.5338087 140.692585,50.0273453 C141.38408,50.1791228 141.975955,50.6180367 142.316937,51.2319092 C142.926069,52.5033932 141.851628,53.8919877 141.47092,54.3520641 C138.400038,58.3101527 134.523595,61.5873098 130.091993,63.9718449 C129.879237,64.0834421 129.615275,64.005144 129.499782,63.7961793 C129.386915,63.5858159 129.466104,63.3248223 129.677445,63.2106274 C134.001551,60.8855927 137.783194,57.6879653 140.777187,53.8250675 C141.513221,52.8630894 141.750106,52.1520621 141.487841,51.5999703 C141.261011,51.2172805 140.879004,50.9492274 140.43878,50.863848 C138.890569,50.4623267 137.45234,51.3573846 135.92105,52.3026326 C134.844122,53.0657054 133.637906,53.6322853 132.359319,53.9756379 C132.169911,54.0166294 131.97611,53.9276625 131.885549,53.7581472 C131.797348,53.5881462 131.831669,53.3811383 131.970151,53.2478806 C134.262873,50.9984539 136.352049,48.5549048 138.213755,45.9452123 C139.702745,43.8455906 140.091913,42.1976803 139.372799,41.0265765 C138.990287,40.4755629 138.447393,40.0525501 137.816128,39.8136477 C136.062505,39.1826355 134.131077,39.2395077 132.41854,39.9725832 C130.656092,40.7284195 128.998571,41.7038768 127.486262,42.8752475 C127.311508,43.0224849 127.050746,43.0086207 126.892968,42.8437032 C126.735191,42.6787857 126.735666,42.4205839 126.89405,42.2562355 C128.806508,39.9167855 130.441526,37.3683463 131.767107,34.6607912 C132.164735,33.8242885 132.528522,32.9125006 132.164735,32.1512832 C130.92955,29.6836003 125.582724,31.2645903 122.926231,32.4440591 C122.181736,32.7786602 121.445701,33.1299913 120.709666,33.4896875 C118.598866,34.6681112 116.315527,35.5147338 113.941531,35.9991955 C110.286738,36.5345572 106.513503,35.4471037 102.86717,34.3931103 C97.4442023,32.8288503 92.3342603,31.3482406 87.4865836,34.6607912 C85.5093128,36.0399657 84.2857135,38.2436008 84.1701975,40.6334203 C84.1707361,40.7483276 84.1214578,40.8579568 84.0348348,40.9345612 C83.9479786,41.0092957 83.8369446,41.0508361 83.7218085,41.0516716 C81.4629435,40.9596563 80.4731037,41.1018618 80.337741,42.9003425 C80.3375625,45.2406914 80.6418042,47.5713453 81.2429791,49.8349497 L81.3698816,50.3954065 C82.5289247,55.7071985 83.7725696,61.1193708 85.0669754,66.4729879 C85.0948982,66.5839737 85.0765824,66.7013974 85.0161382,66.7989079 C84.9556939,66.8964184 84.8581834,66.9658493 84.745489,66.9916195 L84.6778076,67 Z" id="路径" fill="#231F20" fill-rule="nonzero"></path>
            </g>
        </g>
    </g>
</svg>
