<?xml version="1.0" encoding="UTF-8"?>
<svg width="280px" height="280px" viewBox="0 0 280 280" version="1.1" xmlns="http://www.w3.org/2000/svg" xmlns:xlink="http://www.w3.org/1999/xlink">
    <defs>
        <rect id="path-1" x="0" y="0" width="280" height="280"></rect>
    </defs>
    <g id="1.3.2" stroke="none" stroke-width="1" fill="none" fill-rule="evenodd">
        <g id="数据管理-添加授权账户" transform="translate(-953.000000, -314.000000)">
            <g id="编组" transform="translate(953.000000, 314.000000)">
                <mask id="mask-2" fill="white">
                    <use xlink:href="#path-1"></use>
                </mask>
                <g id="矩形"></g>
                <g id="Settings_Flatline" mask="url(#mask-2)" fill-rule="nonzero">
                    <g transform="translate(22.000000, 11.000000)">
                        <path d="M127.904193,29.7265544 C128.290578,29.4690984 128.842556,29.2116425 129.173743,29.5362609 C129.50493,29.8608792 129.306217,30.4541473 129.041268,30.8459281 C128.331293,31.944115 127.451593,32.9192513 126.435931,33.7339123 C128.164177,32.9278466 130.002889,32.3919284 131.889475,32.1444016 C132.26482,32.1444016 132.7616,32.1444016 132.838877,32.5137949 C132.916154,32.8831883 132.640165,33.0734818 132.397295,33.2525816 C130.78293,34.4084793 128.971297,35.2510398 127.054147,35.7375912 C128.1951,35.5466369 129.365703,35.6703583 130.443292,36.0957908 C130.639537,36.1580054 130.810196,36.2838546 130.929033,36.4539904 C131.127745,36.8681587 130.686163,37.2823269 130.288738,37.5062017 C126.336575,39.7449491 121.722038,40.3158297 117.217897,40.6068668 C117.037531,40.6377406 116.852157,40.6103293 116.687998,40.5285107 C116.367851,40.3270234 116.445128,39.834499 116.566563,39.409137 C118.332893,34.4615052 123.720199,32.46902 127.904193,29.7265544 Z" id="路径" fill="#FFFFFF"></path>
                        <path d="M116.805323,40.6189409 C116.566484,40.6235995 116.33068,40.5666256 116.122208,40.4538902 C115.593889,40.0471271 115.444941,39.3320117 115.769266,38.7593693 C117.260733,34.7211281 121.063404,32.6194821 124.729453,30.5948598 C125.719969,30.0446907 126.744641,29.4945216 127.689616,28.900339 C128.634592,28.3061564 129.420173,28.526224 129.693419,28.7682984 C130.205755,29.2304405 130.19437,29.9786704 129.693419,30.7709139 C129.437115,31.1519115 129.159668,31.5192278 128.862296,31.8712522 C129.914944,31.5631064 130.992854,31.3422392 132.084321,31.2110492 C132.938214,31.1120188 133.541632,31.3981067 133.68964,31.981286 C133.769337,32.3113874 133.68964,32.7955362 133.006525,33.2796851 C132.079048,33.9020378 131.091536,34.4363492 130.057747,34.8751755 C130.316847,34.9408911 130.571585,35.0217309 130.820559,35.1172499 C131.157497,35.2174598 131.442405,35.4377409 131.617526,35.7334393 C131.936312,36.3386253 131.617526,37.0318383 130.729477,37.4939804 C126.516936,39.6946568 121.621281,40.3218496 117.010257,40.6079375 L116.805323,40.6189409 Z M128.896452,29.6155588 C128.680534,29.6445941 128.476338,29.7280868 128.30442,29.8576332 L128.30442,29.8576332 C127.336674,30.4518159 126.300617,31.0239917 125.298715,31.5851642 C121.803445,33.5107561 118.194323,35.5133716 116.839479,39.1554911 C116.783207,39.2954888 116.759873,39.4458336 116.771167,39.5956264 C116.771167,39.5956264 116.896405,39.5956264 116.941946,39.5956264 C121.496043,39.3205418 126.163994,38.7593693 130.182985,36.6137098 C130.336629,36.5342736 130.47215,36.4257508 130.581468,36.2946117 L130.581468,36.2946117 L130.41069,36.2285914 C129.393782,35.8444553 128.288086,35.7341716 127.211436,35.9094934 C126.909015,35.9505447 126.625377,35.7581767 126.562477,35.4693581 C126.505082,35.1822334 126.690131,34.9018856 126.983731,34.8311619 C128.908727,34.3391641 130.72294,33.5072488 132.334796,32.3774077 C132.380953,32.3499815 132.423078,32.3166719 132.460034,32.2783773 L132.220944,32.2783773 C130.330062,32.5068853 128.486841,33.0153263 126.756026,33.7858406 C126.497675,33.891042 126.198533,33.7987945 126.050971,33.5684205 C125.903409,33.3380464 125.951363,33.0381367 126.163994,32.8615565 C127.164587,32.0966602 128.033098,31.1829967 128.737059,30.1547245 C128.878081,29.9867934 128.954525,29.7768177 128.953378,29.5605419 L128.896452,29.6155588 Z" id="形状" fill="#231F20"></path>
                        <path d="M244.437506,246.307947 L0.56249426,246.307947 C0.251837258,246.307947 0,246.114481 0,245.875828 C0,245.637175 0.251837258,245.443709 0.56249426,245.443709 L244.437506,245.443709 C244.748163,245.443709 245,245.637175 245,245.875828 C245,246.114481 244.748163,246.307947 244.437506,246.307947 Z" id="路径" fill="#D1D3D4"></path>
                        <path d="M68.0968163,35.7357771 C68.0968163,35.7357771 122.5,31.6533818 122.5,31.9974039 C122.5,32.341426 120.592486,41.1025216 120.592486,41.1025216 C120.592486,41.1025216 73.7970474,57.0078091 68.0968163,51.595195 C62.3965852,46.182581 68.0968163,35.7357771 68.0968163,35.7357771 Z" id="路径" fill="#00A39B"></path>
                        <path d="M50.567194,254.942219 C50.4583659,254.953035 50.3487267,254.953035 50.2398985,254.942219 C49.0104187,254.762705 48.1578693,253.62737 48.3325557,252.402223 L77.4167125,49.4835823 C77.5943562,48.2421658 78.7489525,47.3792062 79.9955754,47.5561081 C81.2421983,47.7330099 82.1087772,48.8827841 81.9311334,50.1242006 L52.8244045,253.020364 C52.660718,254.133078 51.6964378,254.954095 50.567194,254.942219 L50.567194,254.942219 Z" id="路径" fill="#231F20"></path>
                        <path d="M12.6064227,254.941989 C12.4977559,254.953112 12.3882326,254.953112 12.2795658,254.941989 C11.0517334,254.762475 10.2003265,253.627142 10.3747788,252.401997 L39.4650463,49.4835801 C39.6424521,48.242165 40.7955012,47.3792064 42.0404536,47.5561081 C43.285406,47.7330097 44.1508235,48.8827825 43.9734179,50.1241976 L14.8380666,253.020136 C14.6757845,254.12435 13.7256109,254.942623 12.6064227,254.941989 L12.6064227,254.941989 Z" id="路径" fill="#231F20"></path>
                        <path d="M52.1165093,229.023179 L16.0348992,229.023179 C14.8021542,229.023179 13.8028169,228.055847 13.8028169,226.862583 C13.8028169,225.669319 14.8021542,224.701987 16.0348992,224.701987 L52.1165093,224.701987 C53.3492543,224.701987 54.3485915,225.669319 54.3485915,226.862583 C54.3485915,228.055847 53.3492543,229.023179 52.1165093,229.023179 Z" id="路径" fill="#231F20"></path>
                        <path d="M56.4298895,199.639073 L20.3482795,199.639073 C19.1155345,199.639073 18.1161972,198.671741 18.1161972,197.478477 C18.1161972,196.285213 19.1155345,195.317881 20.3482795,195.317881 L56.4298895,195.317881 C57.6626346,195.317881 58.6619718,196.285213 58.6619718,197.478477 C58.6619718,198.671741 57.6626346,199.639073 56.4298895,199.639073 Z" id="路径" fill="#231F20"></path>
                        <path d="M60.7426553,170.254967 L24.6622743,170.254967 C23.4291899,170.254967 22.4295775,169.287635 22.4295775,168.094371 C22.4295775,166.901107 23.4291899,165.933775 24.6622743,165.933775 L60.7426553,165.933775 C61.9757397,165.933775 62.9753521,166.901107 62.9753521,168.094371 C62.9753521,169.287635 61.9757397,170.254967 60.7426553,170.254967 Z" id="路径" fill="#231F20"></path>
                        <path d="M65.0560356,140.870861 L28.9756546,140.870861 C27.7425702,140.870861 26.7429577,139.903529 26.7429577,138.710265 C26.7429577,137.517001 27.7425702,136.549669 28.9756546,136.549669 L65.0560356,136.549669 C66.28912,136.549669 67.2887324,137.517001 67.2887324,138.710265 C67.2887324,139.903529 66.28912,140.870861 65.0560356,140.870861 Z" id="路径" fill="#231F20"></path>
                        <path d="M69.3694158,112.350993 L33.2890349,112.350993 C32.0559505,112.350993 31.056338,111.383662 31.056338,110.190397 C31.056338,108.997133 32.0559505,108.029801 33.2890349,108.029801 L69.3694158,108.029801 C70.6025003,108.029801 71.6021127,108.997133 71.6021127,110.190397 C71.6021127,111.383662 70.6025003,112.350993 69.3694158,112.350993 Z" id="路径" fill="#231F20"></path>
                        <path d="M72.8201201,82.9668874 L36.7397391,82.9668874 C35.5066547,82.9668874 34.5070423,81.9995556 34.5070423,80.8062914 C34.5070423,79.6130272 35.5066547,78.6456954 36.7397391,78.6456954 L72.8201201,78.6456954 C74.0532045,78.6456954 75.0528169,79.6130272 75.0528169,80.8062914 C75.0528169,81.9995556 74.0532045,82.9668874 72.8201201,82.9668874 Z" id="路径" fill="#231F20"></path>
                        <path d="M89.7970355,70.0824119 C90.9216879,66.7802309 92.0463404,63.4667796 93.1709928,60.1645986 C93.7670586,58.462792 94.4530965,56.7835259 95.150381,55.1042598 C95.9165937,52.9281211 98.0963084,51.5846521 100.380015,51.8809704 C103.056688,52.185267 105.699621,52.7487791 108.365047,53.1770483 C109.777641,53.4919224 111.215342,53.6805001 112.661219,53.7405604 C113.72665,53.7639069 114.768786,53.4263846 115.619055,52.7825898 C118.67811,49.863597 121.613452,46.8093613 124.503809,43.7663959 C125.509703,42.6024516 125.853212,41.0045306 125.414778,39.5287847 C124.72874,36.2942252 123.952729,33.0822061 123.300431,29.8476465 C122.991161,28.5953635 122.869866,27.3038822 122.940542,26.0157641 C123.019614,25.0677807 123.468104,24.1891543 124.188906,23.5701215 C129.118184,20.3524281 134.501514,17.8944282 140.158971,16.2782746 C141.874007,15.7239656 143.74621,16.4003065 144.713813,17.92373 C146.749434,20.7300204 148.89752,23.4574191 150.843169,26.3200606 C152.132829,28.5319813 154.599985,29.7769909 157.141222,29.498269 C160.661384,29.2390534 164.204039,29.1827022 167.746695,29.0136486 C169.063093,28.9375018 170.257676,28.2167111 170.940707,27.0864371 C172.200318,25.2155769 173.39245,23.2996357 174.629567,21.4513159 C175.686741,19.8396712 176.732667,18.2054861 177.85732,16.6389224 C178.870928,14.9774514 180.917252,14.268705 182.738311,14.948386 C187.630549,16.6389224 192.522787,18.3294588 197.358793,20.2454 C199.248586,20.9953586 200.352575,22.9726067 200.001726,24.9789018 C199.731809,27.6950302 199.124497,30.3773479 198.685883,33.0822061 C198.483445,34.3557435 198.292254,35.6405511 198.191036,36.9253587 C197.980281,38.6033373 198.587004,40.2805876 199.821782,41.4334557 C202.397236,43.8678281 205.017676,46.2683897 207.503158,48.8041943 C208.961433,50.3780547 211.172469,51.0080083 213.238885,50.4383794 C216.736554,49.6720029 220.21173,48.8267347 223.709399,48.0603583 C226.464797,47.4630354 228.354213,48.3083036 229.568838,50.8553784 C231.570719,55.0403951 233.493875,59.2554657 235.338305,63.5005904 C236.676641,66.599907 236.193041,68.3918756 233.538861,70.4994109 C231.739417,71.9307317 229.793768,73.1704584 227.915599,74.5341577 C226.599756,75.525939 225.306405,76.5515311 224.058041,77.6334744 C222.982181,78.524192 222.37975,79.8648266 222.427295,81.2624924 C222.506021,84.9365914 222.562253,88.6106905 222.730951,92.2735193 C222.783826,94.3046172 223.898745,96.1581725 225.666294,97.1535342 C227.668175,98.3481799 229.703796,99.5090149 231.683185,100.726201 C232.932412,101.463099 234.137824,102.272165 235.293319,103.149303 C237.0175,104.291497 237.695715,106.495622 236.912818,108.412506 C235.308314,112.830441 233.662573,117.240863 231.975594,121.643771 C231.679159,122.314996 231.301437,122.947122 230.850942,123.525901 C230.036658,124.98482 228.387082,125.763793 226.74596,125.464383 C223.563194,124.945952 220.391674,124.40498 217.220154,123.875279 C216.983977,123.875279 216.736554,123.875279 216.500377,123.762577 C213.780467,123.029441 210.890467,124.045536 209.223876,126.320922 C207.435678,128.439727 205.411304,130.355668 203.476902,132.361772 C201.649557,134.159638 200.96933,136.8255 201.711198,139.2817 C202.487208,142.369747 203.251971,145.457793 203.881777,148.57965 C204.545322,151.881831 203.881777,153.301882 200.890201,154.755743 C196.582783,156.829468 192.207885,158.77922 187.810494,160.66135 C185.782368,161.770927 183.242683,161.103781 182.018534,159.139868 C180.320309,156.987251 178.757042,154.733203 177.171282,152.490425 C173.797325,147.689301 172.908849,147.261032 167.04941,147.565329 C164.800105,147.678031 162.460828,147.824544 160.166537,147.948517 C157.942988,147.981367 155.898992,149.178707 154.779452,151.104185 C153.384883,153.358233 152.046547,155.770065 150.584499,158.035384 C149.812328,159.215811 148.927164,160.317994 147.941566,161.326295 C147.05234,162.380406 145.595119,162.755651 144.308938,162.261725 C139.67537,160.533621 135.0493,158.80176 130.430727,157.066143 C129.803895,156.788193 129.208247,156.444406 128.653777,156.040551 C127.189261,155.231198 126.402187,153.57667 126.696881,151.926912 C127.202975,148.782515 127.742808,145.649387 128.226409,142.50499 C128.372613,141.547019 128.462586,140.577778 128.518818,139.608537 C128.693326,138.014724 128.100327,136.432848 126.921812,135.348386 C124.40259,133.041743 121.898364,130.705046 119.409134,128.338295 C117.96821,126.92471 115.872959,126.410593 113.943323,126.997136 C110.861775,127.763513 107.757735,128.439727 104.66494,129.149752 L104.305052,129.239914 C100.256303,129.98375 98.9517062,129.442779 97.1860019,125.712329 C95.2403532,121.564879 93.4634024,117.327268 91.7314377,113.078387 C90.6855109,110.463691 91.1353719,108.987289 93.4071698,107.262942 C95.8814051,105.380811 98.38938,103.555032 100.998574,101.875766 C103.588981,100.399953 105.049709,97.5166936 104.709927,94.5501082 C104.484996,91.2479272 104.395024,87.9457462 104.226326,84.6322949 C104.212027,83.2298482 103.4876,81.9307717 102.30317,81.1836007 C99.5590185,79.4254429 96.7923736,77.7010958 94.0594682,75.9203975 C92.2600243,74.7933733 90.4493339,73.5987276 89.7183099,71.4123005 L89.7970355,70.0824119 Z M194.71586,88.543069 C194.734032,80.1805385 191.417809,72.1572411 185.504379,66.256737 C179.59095,60.356233 171.570368,57.0675062 163.225592,57.1216332 C148.773808,57.0540117 132.376376,69.7555749 132.387617,88.5768797 C132.472958,105.742687 146.298879,119.658005 163.428029,119.818041 C183.503075,119.851802 195.604335,102.394197 194.71586,88.543069 Z" id="形状" fill="#FFFFFF"></path>
                        <path d="M145.136243,163.34106 C144.664202,163.336016 144.196666,163.248424 143.754701,163.082232 L139.958269,161.664308 C136.596143,160.418935 133.226529,159.162309 129.849426,157.894429 C129.275527,157.645353 128.729596,157.336033 128.22078,156.971653 L127.973674,156.814106 C126.301698,155.907787 125.396659,154.030799 125.727265,152.155212 C125.940674,150.771047 126.176547,149.386883 126.401188,148.002719 C126.693221,146.247193 126.974022,144.491668 127.254823,142.736143 C127.378376,141.914647 127.468232,141.014377 127.535625,139.900294 C127.696473,138.481044 127.175456,137.06954 126.131619,136.096655 C123.885209,134.093556 121.762352,132.056696 119.605799,130.019837 L118.617379,129.097061 C117.322222,127.805177 115.417922,127.341207 113.675278,127.89295 C111.518725,128.421858 109.35094,128.917007 107.183155,129.400901 L104.274054,130.06485 L104.015717,130.13237 C99.6464507,130.93136 98.1301243,130.13237 96.2993006,126.306225 C94.1539795,121.726104 92.2557635,117.13473 90.8405255,113.646186 C89.7173208,110.832844 90.2002988,109.077319 92.6938134,107.186753 C95.5579855,105.003599 97.9841077,103.293088 100.309142,101.785136 C102.701166,100.426265 104.056826,97.7717372 103.75738,95.0331153 C103.622596,92.9850024 103.532739,90.9031293 103.442883,88.8887764 C103.442883,87.6283992 103.341794,86.3792753 103.274402,85.1301514 C103.265624,83.9107288 102.639575,82.7791592 101.612059,82.1255022 L98.2424448,79.9536021 C96.636262,78.940799 95.0188472,77.9167425 93.4126644,76.8701793 C91.5369125,75.6548155 89.6386964,74.416945 88.8636852,72.0649911 C88.85295,72.005455 88.85295,71.9444733 88.8636852,71.8849372 L88.8636852,70.6133066 C88.8540383,70.5536778 88.8540383,70.4928816 88.8636852,70.4332527 L89.8184092,67.6199107 C90.6158846,65.2567034 91.4133599,62.8822427 92.2557635,60.5302888 C92.8847582,58.7410033 93.6148412,56.9517178 94.2438359,55.4437664 C95.0866217,53.023643 97.51673,51.5354963 100.050804,51.8877021 C101.825468,52.0790094 103.611364,52.4053571 105.341099,52.709198 L108.03679,53.1818395 L109.103835,53.3618933 C110.132926,53.593103 111.183043,53.7175461 112.237576,53.7332545 C113.161914,53.7512053 114.067548,53.4711093 114.820947,52.9342654 C118.078241,49.8170824 121.122126,46.6211259 123.6718,43.9315709 C124.545424,42.90251 124.833522,41.4974908 124.43558,40.2067061 C124.132314,38.7775283 123.817817,37.3483506 123.492088,35.9304262 C123.087734,34.1298873 122.68338,32.3293484 122.368883,30.5288095 C122.049281,29.222776 121.924376,27.8765411 121.998225,26.5338638 C122.086607,25.4117579 122.635701,24.3766856 123.514552,23.6755083 C128.467061,20.4094998 133.892082,17.9271684 139.598844,16.3158056 C141.532845,15.6955284 143.641698,16.4520969 144.743121,18.161358 C145.461972,19.1516544 146.192056,20.1306974 146.922139,21.1097404 C148.24752,22.8765192 149.61783,24.7108182 150.887051,26.5676239 C152.060093,28.605771 154.326543,29.7544001 156.660324,29.4934996 C158.906733,29.3246991 161.287927,29.2459255 163.534337,29.1558986 L167.274609,29.0096048 C168.411476,28.9386708 169.440636,28.3115853 170.02646,27.332853 C170.767775,26.2075162 171.486626,25.0821794 172.205477,23.9568425 C172.699688,23.1803602 173.193898,22.4151311 173.69934,21.7061689 L174.227246,20.8959264 C175.092114,19.568029 175.990677,18.1951181 176.945402,16.878474 C178.088317,15.0052923 180.399446,14.2114011 182.449105,14.9879082 C188.323466,17.0135144 192.827517,18.6452528 197.050766,20.2769912 C199.17603,21.1094114 200.424379,23.324028 200.038491,25.5773276 C199.87001,27.4003732 199.533049,29.2234188 199.20732,30.9901976 C199.038839,31.9017204 198.88159,32.8019899 198.735574,33.7135127 C198.533397,34.9176231 198.342452,36.2117604 198.241364,37.5058977 C198.048016,39.0098187 198.591911,40.5146575 199.70153,41.5458569 L201.521121,43.2563688 C203.464266,45.0794144 205.474802,46.9812336 207.373018,48.8830528 C208.697679,50.313408 210.708996,50.8823363 212.584688,50.3572441 C214.291959,49.9858829 215.954302,49.592015 217.706502,49.2319073 C219.458701,48.8717995 221.267061,48.4104114 223.041724,48.0165435 C226.096841,47.3638482 228.219698,48.3766513 229.522616,51.1224731 C231.52192,55.2974727 233.453832,59.5512458 235.284656,63.7600055 C236.722358,67.0684957 236.194452,69.1391154 233.33028,71.4122957 C232.263235,72.2675517 231.08387,73.0552875 230.03929,73.8092631 C229.264279,74.3494248 228.500499,74.9346 227.73672,75.4522549 C226.343946,76.4988181 225.085957,77.5003679 223.906592,78.513171 C222.958697,79.2965832 222.430944,80.4789951 222.480122,81.7091275 L222.480122,83.9598012 C222.547514,86.8069033 222.603675,89.7665391 222.738459,92.6699081 C222.78451,94.5085907 223.796775,96.1860629 225.400454,97.0812283 L227.938897,98.5779263 C229.062102,99.2643817 230.263931,99.9395838 231.420832,100.648546 C232.680068,101.405122 233.898568,102.227762 235.071247,103.113034 C236.998845,104.391225 237.752256,106.858612 236.868375,108.998545 C235.352048,113.173545 233.734634,117.494838 231.937506,122.221253 C231.664509,122.870416 231.317774,123.485907 230.904158,124.055552 L230.803069,124.213099 C229.857042,125.844131 227.996277,126.711142 226.141769,126.384999 L219.694574,125.315929 L216.38112,124.764514 C216.21088,124.745445 216.042047,124.715373 215.875678,124.674487 C213.354962,123.983691 210.670745,124.929432 209.13645,127.048948 C207.87846,128.545645 206.474454,129.96357 205.126609,131.325227 L203.374409,133.114513 C201.688695,134.772028 201.061213,137.230355 201.745762,139.495173 C202.49831,142.432302 203.273321,145.594498 203.92478,148.801708 C204.654863,152.391532 203.857387,154.045778 200.63379,155.553729 C196.702573,157.444295 192.423163,159.379874 187.548454,161.461747 C185.288312,162.66497 182.484896,161.93098 181.101259,159.773742 C179.697253,157.99571 178.360639,156.116397 177.080186,154.293352 L176.237783,153.111748 C172.924329,148.4416 172.284102,148.137759 166.589454,148.430347 C165.286536,148.486614 163.994851,148.565387 162.691933,148.644161 L159.726673,148.812961 C157.68918,148.828284 155.812528,149.924719 154.795804,151.693824 C154.324058,152.459053 153.863544,153.235535 153.40303,154.012017 C152.504466,155.542476 151.572206,157.117947 150.595018,158.625898 C149.808137,159.839441 148.901252,160.970487 147.888095,162.001909 C147.190505,162.804339 146.197027,163.287802 145.136243,163.34106 L145.136243,163.34106 Z M115.348853,126.598813 C116.90676,126.600183 118.400823,127.219171 119.504711,128.320578 L120.481899,129.243354 C122.638452,131.283965 124.809981,133.30582 126.996486,135.30892 C128.29338,136.510081 128.950752,138.252506 128.77115,140.012828 C128.703758,141.138164 128.613901,142.094701 128.479117,142.949957 C128.198315,144.716735 127.906282,146.472261 127.625481,148.23904 C127.389608,149.611951 127.164967,150.996115 126.951558,152.369026 C126.701173,153.792562 127.383114,155.217854 128.647597,155.913837 L128.905934,156.082637 C129.343601,156.399239 129.814378,156.667148 130.30994,156.881626 L140.418783,160.662758 L144.215215,162.069429 C145.288415,162.493179 146.511951,162.169625 147.236636,161.27044 C148.195615,160.291375 149.057067,159.220996 149.808775,158.074483 C150.774731,156.577785 151.706991,155.013567 152.594323,153.494363 C153.054837,152.71788 153.51535,151.941398 153.987096,151.164915 C155.214724,149.097704 157.427062,147.818933 159.827761,147.788905 C160.816181,147.788905 161.793369,147.676371 162.78179,147.620104 L166.690542,147.40629 C172.76708,147.091196 173.766732,147.575091 177.316059,152.560333 L178.158463,153.75319 C179.427684,155.553729 180.753066,157.421788 182.134607,159.177313 C183.516149,160.932839 185.122332,161.427987 187.267653,160.527718 C192.13113,158.445844 196.388076,156.521519 200.30806,154.642206 C203.059912,153.314309 203.610282,152.177718 202.981288,149.094296 C202.352293,146.010873 201.554818,142.758649 200.813502,139.832774 C200.036543,137.193636 200.77012,134.340227 202.72295,132.405551 C203.307017,131.797869 203.846155,131.20144 204.486382,130.605012 C205.822996,129.254608 207.204537,127.847937 208.440063,126.384999 C210.248896,123.938474 213.369699,122.853053 216.302496,123.65043 C216.426048,123.65043 216.560833,123.65043 216.695618,123.717951 L216.976419,123.717951 L220.042768,124.224352 L226.489963,125.349689 C227.893659,125.533451 229.262324,124.818596 229.915737,123.560403 L230.028058,123.402856 C230.38963,122.903692 230.698305,122.368141 230.949086,121.804878 C232.746213,117.078463 234.3187,112.802184 235.868723,108.593424 C236.570904,106.909711 235.964594,104.963939 234.431021,103.979543 C233.294799,103.116425 232.109712,102.319857 230.881694,101.593829 C229.758489,100.884867 228.579124,100.209665 227.422223,99.5232092 C226.568587,99.028061 225.726184,98.5329128 224.88378,98.0152579 C222.95218,96.933116 221.734926,94.9090669 221.682647,92.6924148 C221.53663,89.7777925 221.48047,86.8181566 221.413077,83.9598012 L221.413077,81.7091275 C221.35753,80.1454434 222.029786,78.6445484 223.232669,77.6466617 C224.434498,76.6113518 225.70372,75.5872953 227.13019,74.5294787 C227.893969,73.9668103 228.66898,73.4041419 229.455223,72.8639802 C230.578428,72.1212579 231.645473,71.3335222 232.690053,70.5120263 C235.149872,68.5539403 235.542993,67.0234822 234.3187,64.1876334 C232.487876,59.9901271 230.555964,55.7476074 228.567892,51.5838612 C227.444687,49.3331876 225.883432,48.5454518 223.333758,49.0968668 C221.559094,49.4794814 219.784431,49.895856 218.009767,50.3009772 C216.235104,50.7060985 214.640153,51.0999664 212.876721,51.426314 C210.624938,52.0361982 208.221191,51.3474909 206.631703,49.6370285 C204.744719,47.7127026 202.745415,45.8333901 200.80227,44.0103445 L198.982679,42.2885792 C197.631688,41.0225746 196.960616,39.1892841 197.174319,37.3483506 C197.286639,36.0204531 197.477584,34.6925557 197.679761,33.4659386 C197.825778,32.5544158 197.994258,31.6316396 198.162739,30.7201168 C198.477237,28.9758447 198.814198,27.1753058 198.982679,25.408527 C199.317469,23.6648433 198.377233,21.9268159 196.736269,21.2560342 C192.501787,19.6355492 188.008968,18.0038108 182.134607,15.9894579 C180.545517,15.3694191 178.741446,15.9814058 177.855197,17.4411424 C176.922937,18.7352798 176.024374,20.1081907 175.159506,21.4248347 L174.642832,22.2350772 C174.141134,22.9853018 173.646924,23.7355263 173.160202,24.4857508 C172.430118,25.6110877 171.700035,26.7364245 170.913792,27.8617613 C170.128895,29.1391009 168.76946,29.950425 167.274609,30.0336613 L163.534337,30.1799551 C161.287927,30.269982 158.974126,30.3487556 156.69402,30.5175561 C153.98304,30.8034311 151.353113,29.4859717 149.954791,27.1415457 C148.696802,25.3072467 147.337724,23.4842011 146.023575,21.7286757 C145.293492,20.7383793 144.563409,19.7593363 143.844558,18.7690399 C142.989842,17.459214 141.348728,16.909585 139.879645,17.4411424 C134.284337,19.0291013 128.963003,21.4614502 124.098618,24.6545514 C123.522968,25.1784538 123.169299,25.9032405 123.110198,26.6801576 C123.04404,27.9098382 123.161397,29.1425266 123.458391,30.3375022 C123.817817,32.1380411 124.222171,33.9273267 124.581596,35.7166122 C124.896093,37.1457899 125.221823,38.5749677 125.525088,40.0041454 C125.993345,41.655338 125.600737,43.4317712 124.480508,44.73056 C121.919601,47.4651285 118.864484,50.6723384 115.584726,53.8007747 C114.624085,54.5529156 113.434054,54.9503455 112.215112,54.9261115 C111.08255,54.902715 109.95456,54.7746335 108.845498,54.543497 L107.812149,54.3634431 C106.902353,54.2171493 105.992558,54.0483488 105.082762,53.8908016 C103.375491,53.5757073 101.612059,53.260613 99.8710917,53.0693058 C97.8331662,52.777093 95.87746,53.9839812 95.221024,55.9389146 C94.6032614,57.4356126 93.8731783,59.2023914 93.2554157,60.9691702 C92.4242442,63.3211241 91.6267688,65.6843314 90.8292935,68.0475387 L89.8970335,70.7821071 L89.8970335,71.8061636 C90.5709564,73.7304896 92.1996033,74.7883062 93.9181065,75.913643 C95.6366098,77.0389798 97.1754003,77.9955161 98.7928151,79.0195726 L102.162429,81.1914726 C103.494808,82.0408635 104.313157,83.5031644 104.341447,85.085138 C104.408839,86.3342618 104.464999,87.594639 104.509927,88.8550163 C104.599784,90.8581158 104.678408,92.9399889 104.824425,94.9768485 C105.194544,98.1608589 103.634927,101.259455 100.859512,102.854206 C98.5569421,104.339651 96.164516,106.038909 93.311576,108.210809 C91.2224151,109.797534 90.8742217,111.001645 91.8289457,113.353599 C93.2329516,116.819636 95.1199356,121.399757 97.2652567,125.946117 C98.8602074,129.322128 99.8935558,129.851036 103.75738,129.142074 C103.817118,129.148409 103.877355,129.148409 103.937093,129.142074 L104.094342,129.142074 L106.879889,128.511885 C109.036442,128.016737 111.204228,127.532842 113.349549,126.992681 C113.995504,126.772779 114.667886,126.640318 115.348853,126.598813 L115.348853,126.598813 Z M163.017663,120.882102 L162.95027,120.882102 C145.504948,120.789304 131.406497,106.603771 131.388217,89.1250971 C131.393288,80.6929701 134.771408,72.6146804 140.766977,66.6971345 C146.753658,60.7215961 154.919356,57.1542784 162.624541,57.1542784 L162.748093,57.1542784 C171.242224,57.063788 179.41765,60.3905801 185.443218,66.3895108 C191.468786,72.3884416 194.840933,80.5581742 194.804357,89.0688303 C195.264871,96.5860801 192.086202,104.744772 186.290465,110.911618 C180.242736,117.331177 171.794263,120.929104 162.983966,120.837088 L163.017663,120.882102 Z M162.624541,58.2796152 C154.676634,58.5114186 147.126184,61.813954 141.55322,67.4961237 C132.786089,76.1956774 130.115703,89.331255 134.788151,100.773378 C139.460598,112.215501 150.554903,119.70884 162.89411,119.756765 L162.961502,119.756765 C171.458668,119.827724 179.600314,116.344642 185.425597,110.146389 C191.041621,104.193357 194.074274,96.338506 193.624992,89.1250971 L193.624992,89.1250971 C193.664575,80.9099289 190.412456,73.0223718 184.597526,67.2302513 C178.782596,61.4381308 170.891167,58.2258511 162.691933,58.3133753 L162.624541,58.2796152 Z" id="形状" fill="#231F20"></path>
                        <path d="M200.174438,165.12567 C200.510368,164.141058 200.835101,163.156447 201.182229,162.183024 C201.361392,161.668341 201.574148,161.176035 201.775706,160.672541 C202.0067,160.029688 202.654234,159.634029 203.332183,159.721495 C204.138415,159.811006 204.922253,159.978837 205.717288,160.101914 C206.136855,160.196255 206.564112,160.252428 206.993823,160.269745 C207.313282,160.27651 207.625442,160.173855 207.878439,159.978837 C208.785451,159.117302 209.658869,158.211012 210.52109,157.293533 C210.817581,156.944115 210.92234,156.470981 210.801032,156.029203 C210.588276,155.078157 210.364323,154.115924 210.162765,153.15369 C210.069519,152.788513 210.035494,152.410757 210.061986,152.034813 C210.082241,151.752593 210.215445,151.490431 210.431509,151.307543 C211.898394,150.346844 213.50312,149.614916 215.190521,149.136923 C215.70168,148.972632 216.25929,149.175237 216.54544,149.629228 C217.150114,150.457197 217.788382,151.273977 218.370661,152.124323 C218.758113,152.780087 219.49437,153.147923 220.251871,153.064179 C221.304452,152.985858 222.357034,152.974669 223.409615,152.918726 C223.80183,152.897592 224.158184,152.68395 224.361417,152.348098 C224.742138,151.78866 225.089266,151.229222 225.481185,150.658595 C225.873104,150.087968 226.108255,149.696361 226.444185,149.226433 C226.748759,148.735196 227.35655,148.524975 227.899883,148.722938 C229.355581,149.226433 230.811279,149.752305 232.255779,150.300554 C232.822028,150.521363 233.151138,151.11329 233.039616,151.710339 C232.961232,152.51593 232.78207,153.310332 232.647697,154.115924 C232.591709,154.496342 232.535721,154.87676 232.502128,155.2348 C232.438399,155.732443 232.622424,156.229751 232.994825,156.566263 C233.756267,157.293533 234.540105,158.009614 235.234361,158.804017 C235.669369,159.273693 236.331416,159.45961 236.947605,159.285134 C237.988989,159.061358 239.019175,158.815205 240.060559,158.580241 C240.773829,158.346727 241.544474,158.716935 241.807396,159.419399 C242.400873,160.661352 242.983152,161.914494 243.531838,163.178824 C243.745156,163.522099 243.808404,163.937713 243.706844,164.328829 C243.605285,164.719945 243.347788,165.052405 242.99435,165.248746 C242.456861,165.673919 241.874582,166.043148 241.325896,166.457133 C240.77721,166.871117 240.553256,167.050137 240.206129,167.374612 C239.877318,167.650307 239.698697,168.065375 239.724628,168.493488 C239.724628,169.612365 239.724628,170.731241 239.81421,171.771797 C239.837943,172.370869 240.167726,172.915846 240.687629,173.215148 C241.292303,173.573188 241.896978,173.908851 242.490454,174.334024 C242.84878,174.5578 243.218303,174.792764 243.554234,175.050105 C244.066504,175.391645 244.271561,176.04358 244.046931,176.616533 C243.565431,177.925618 243.072733,179.245893 242.568838,180.554978 C242.487316,180.752268 242.377963,180.936888 242.244105,181.103228 C242.013624,181.548462 241.514908,181.786193 241.023559,181.685044 L238.190547,181.215116 L237.977791,181.215116 C237.168167,180.990972 236.30408,181.289156 235.805442,181.964763 C235.267954,182.602523 234.685674,183.17315 234.092198,183.766154 C233.548517,184.301928 233.345978,185.094216 233.565907,185.824887 C233.801058,186.742366 234.025012,187.659845 234.215372,188.588513 C234.364187,188.94928 234.351369,189.356436 234.180156,189.707144 C234.008943,190.057852 233.695705,190.318578 233.319558,190.42347 C232.043023,191.038852 230.732895,191.620668 229.422767,192.180107 C228.817161,192.508363 228.060414,192.307052 227.698325,191.721367 C227.194429,191.083607 226.724127,190.412281 226.253825,189.752144 C225.234836,188.319982 224.97729,188.196906 223.230452,188.286416 L221.181278,188.398303 C220.515783,188.406472 219.903504,188.763351 219.568812,189.33816 C219.154498,190.020675 218.76258,190.725567 218.32587,191.396893 C218.09302,191.743233 217.830773,192.068908 217.542033,192.370316 C217.272244,192.701497 216.816288,192.815395 216.422265,192.650035 C215.044951,192.135351 213.65644,191.631857 212.279125,191.105985 C212.093176,191.024802 211.916692,190.923498 211.752835,190.803888 C211.307246,190.57359 211.069326,190.075271 211.170556,189.584313 C211.327323,188.644456 211.48409,187.715789 211.62966,186.775932 C211.62966,186.496213 211.696846,186.205305 211.719242,185.925586 C211.768984,185.448338 211.59053,184.975604 211.237742,184.650067 C210.487497,183.967552 209.748451,183.273849 208.998207,182.568956 C208.569594,182.15117 207.946698,182.000935 207.374544,182.177349 C206.456334,182.401125 205.526927,182.602523 204.608718,182.815109 L204.496741,182.815109 C203.29859,183.038884 202.906671,182.882242 202.38038,181.774554 C201.854089,180.666866 201.260613,179.279459 200.756717,178.015128 C200.585856,177.721195 200.541826,177.370518 200.634725,177.043521 C200.727624,176.716523 200.949481,176.441264 201.249415,176.28087 C201.988462,175.73262 202.738706,175.161993 203.48895,174.692065 C204.283634,174.243779 204.726614,173.358524 204.608718,172.454312 C204.541532,171.4697 204.519136,170.485089 204.463148,169.511666 C204.459953,169.093939 204.244921,168.706347 203.892066,168.482299 C203.074636,167.956427 202.246008,167.452933 201.439775,166.915872 C200.861156,166.636389 200.400781,166.160519 200.140845,165.57322 L200.174438,165.12567 Z M231.438348,170.608165 C231.444418,168.121744 230.45475,165.736228 228.689929,163.98332 C226.925107,162.230412 224.531819,161.255807 222.043499,161.276734 C216.966173,161.420553 212.908278,165.544361 212.850207,170.619354 C212.880469,175.718257 216.996729,179.85116 222.099487,179.90603 C224.579602,179.936198 226.967436,178.967387 228.724429,177.218107 C230.481423,175.468826 231.459603,173.0864 231.438348,170.608165 L231.438348,170.608165 Z" id="形状" fill="#D1D3D4"></path>
                        <path d="M216.372235,192.72229 C216.185676,192.720384 216.000832,192.68637 215.825774,192.621732 L214.788613,192.230672 C213.762604,191.850785 212.725443,191.470898 211.710586,191.113358 C211.512496,191.025402 211.322223,190.920743 211.141821,190.80051 C210.491183,190.442347 210.134401,189.714044 210.249639,188.979288 L210.439228,187.772589 L210.706882,186.186003 C210.706882,185.917848 210.762643,185.649692 210.784948,185.381537 C210.823012,185.075632 210.71567,184.769549 210.494989,184.554725 C209.837005,183.962548 209.201326,183.370372 208.565646,182.767022 L208.253383,182.476521 C207.959513,182.187804 207.530807,182.084722 207.138156,182.208365 L205.219965,182.655291 L204.372393,182.845234 L204.238565,182.845234 C203.701498,183.056157 203.100421,183.029519 202.58404,182.77191 C202.067659,182.514301 201.684212,182.049785 201.528564,181.493284 C200.881732,180.118988 200.312967,178.755865 199.900333,177.716763 C199.439074,176.873299 199.736596,175.815121 200.569469,175.336884 C201.428193,174.677669 202.164243,174.163704 202.855684,173.705606 C203.454124,173.379154 203.790818,172.717821 203.703257,172.040808 C203.703257,171.426285 203.636343,170.800589 203.614038,170.174893 L203.558277,169.057579 C203.563119,168.822442 203.444619,168.601959 203.246013,168.476576 L202.242309,167.839707 L200.792514,166.912336 C200.113863,166.564116 199.580413,165.98612 199.286958,165.281058 C199.275239,165.222046 199.275239,165.1613 199.286958,165.102288 L199.286958,164.744747 C199.275239,164.685735 199.275239,164.624989 199.286958,164.565977 L199.621526,163.582741 L200.290662,161.616268 C200.480251,161.102304 200.680991,160.588339 200.892885,160.085548 C201.213495,159.208012 202.097907,158.669877 203.022968,158.789464 C203.558277,158.789464 204.138195,158.945888 204.617743,159.035273 L205.420706,159.180524 L205.744122,159.236389 C206.022219,159.300324 206.306384,159.334038 206.591694,159.336947 C206.771667,159.339684 206.948995,159.293338 207.104699,159.20287 C208.063794,158.286672 208.967128,157.336955 209.71433,156.543662 C209.879573,156.327262 209.929487,156.043884 209.848157,155.783889 C209.758939,155.35931 209.658569,154.93473 209.56935,154.521324 C209.480132,154.107918 209.324001,153.40401 209.212478,152.901219 C209.112408,152.476952 209.074836,152.0403 209.100955,151.605135 C209.14184,151.160905 209.368795,150.75487 209.725482,150.487821 C211.235325,149.499326 212.886032,148.745888 214.621329,148.253193 C215.353227,148.025051 216.14768,148.307041 216.572976,148.945927 C216.784869,149.247602 216.996762,149.538104 217.219808,149.828605 C217.621289,150.364916 218.022771,150.945919 218.401948,151.448711 C218.66582,151.943393 219.207165,152.223463 219.762525,152.152618 C220.442814,152.152618 221.134254,152.074406 221.825695,152.05206 L222.940922,152.05206 C223.156984,152.042223 223.351905,151.919108 223.453926,151.728039 L224.089606,150.744803 L224.702981,149.806259 C224.970635,149.392853 225.227137,148.99062 225.517096,148.59956 C225.95306,147.900043 226.820888,147.605551 227.591419,147.895652 C229.342325,148.499002 230.69175,149.012966 231.951956,149.471065 C232.73587,149.792101 233.197277,150.61032 233.067183,151.448711 C233.011422,152.007368 232.911051,152.566025 232.821833,153.091162 C232.766072,153.359318 232.721463,153.627473 232.676854,153.895628 C232.632245,154.163784 232.565331,154.621882 232.531874,155.012942 C232.484518,155.340735 232.601309,155.67087 232.844138,155.89562 L233.390599,156.409585 C233.981669,156.968242 234.572739,157.526899 235.141505,158.096729 C235.433067,158.435444 235.898153,158.567319 236.323646,158.431923 L237.840355,158.085556 L239.435129,157.728015 C240.389935,157.434013 241.410842,157.91876 241.788258,158.845329 C242.390481,160.096721 242.903485,161.348113 243.505708,162.621851 C244.060825,163.570281 243.752853,164.789545 242.814267,165.35927 C242.490851,165.616252 242.145131,165.850888 241.810563,166.085524 L241.141426,166.565969 C240.762249,166.845298 240.383072,167.146972 240.026199,167.448647 C239.831586,167.605712 239.723791,167.846629 239.73624,168.096689 L239.73624,168.644173 C239.73624,169.526851 239.73624,170.409529 239.814306,171.281034 C239.825365,171.695887 240.054365,172.07402 240.416529,172.275444 L241.163731,172.722369 L242.212044,173.336892 C242.598114,173.56837 242.970479,173.822052 243.327271,174.096665 C244.052214,174.587442 244.331987,175.521765 243.996407,176.331294 C243.51686,177.649724 243.02616,178.956981 242.524308,180.264239 C242.436643,180.486944 242.320427,180.697275 242.178588,180.889935 C241.819969,181.532144 241.095422,181.877172 240.37192,181.750266 L237.550396,181.280995 L237.293893,181.280995 C236.689838,181.115613 236.04719,181.348115 235.687966,181.861998 C235.308789,182.308923 234.896155,182.733503 234.472369,183.158082 L233.959365,183.68322 C233.544447,184.074729 233.392395,184.67102 233.569035,185.21394 C233.803233,186.130137 234.037431,187.057508 234.227019,187.996052 C234.400098,188.478788 234.370945,189.011135 234.146192,189.472004 C233.92144,189.932872 233.520195,190.283081 233.033726,190.442969 C231.862738,191.001626 230.580227,191.560283 229.130432,192.197152 C228.297946,192.628164 227.275126,192.363561 226.754998,191.58263 C226.331212,191.057492 225.952035,190.465316 225.561705,189.962524 L225.294051,189.593811 C224.390717,188.320073 224.323803,188.286553 222.762486,188.364765 L220.732773,188.476497 C220.269087,188.487446 219.845394,188.742137 219.617546,189.146885 L219.204912,189.828447 C218.937257,190.297719 218.65845,190.755817 218.368491,191.213916 C218.120614,191.611502 217.836904,191.985503 217.520919,192.33123 C217.203788,192.607042 216.791437,192.747423 216.372235,192.72229 Z M207.450419,181.012839 C208.013392,181.011424 208.554272,181.232195 208.955976,181.627362 L209.257087,181.917864 L211.175277,183.705566 C211.6816,184.118138 211.956125,184.751561 211.911327,185.403883 C211.904245,185.711073 211.874424,186.017312 211.822109,186.320081 C211.744043,186.856391 211.654825,187.437395 211.565607,187.929013 L211.376018,189.124539 C211.320046,189.395612 211.458984,189.669367 211.710586,189.783754 C211.838283,189.881249 211.976735,189.963725 212.12322,190.029563 L215.201247,191.146877 L216.238408,191.537937 C216.372235,191.537937 216.528367,191.604976 216.729108,191.392686 C216.993478,191.120959 217.232395,190.825493 217.442853,190.510008 C217.72166,190.063083 217.989314,189.616157 218.256969,189.158058 L218.680755,188.465324 C219.106078,187.735662 219.878468,187.278972 220.72162,187.258624 L222.762486,187.146893 C224.702981,187.046335 225.126767,187.247451 226.264298,188.84521 L226.520801,189.213924 C226.899978,189.750235 227.279155,190.275372 227.636028,190.789337 C227.735194,190.987029 227.91545,191.131593 228.129697,191.185255 C228.343944,191.238917 228.570896,191.196346 228.751255,191.068665 C230.189897,190.465316 231.450104,189.951351 232.60994,189.336829 C233.256772,189.012807 233.334838,188.856383 233.189858,188.118956 C233.000269,187.202759 232.777224,186.286561 232.543026,185.381537 C232.275312,184.466857 232.532582,183.478812 233.212163,182.811715 L233.736319,182.275404 C234.137801,181.873171 234.52813,181.470938 234.851546,181.035185 C235.481581,180.20105 236.551843,179.830391 237.561548,180.096642 L237.739984,180.096642 L240.561508,180.577087 C240.83462,180.630336 241.109298,180.492741 241.230645,180.241893 C241.333201,180.101354 241.422788,179.951763 241.498299,179.794967 C241.988999,178.48771 242.479699,177.180452 242.959246,175.873195 C243.106339,175.532211 242.977316,175.134844 242.658135,174.945824 C242.3319,174.695667 241.989111,174.467958 241.632126,174.264263 L240.61727,173.64974 L239.858915,173.202814 C239.18914,172.800688 238.769087,172.085261 238.743688,171.30338 C238.743688,170.409529 238.743688,169.526851 238.665623,168.644173 L238.665623,168.018477 C238.648629,167.437595 238.899554,166.881228 239.345911,166.510103 C239.725088,166.174909 240.115418,165.862061 240.528052,165.560386 L241.219492,165.068768 C241.542908,164.845306 241.855172,164.621843 242.167435,164.376034 C242.758506,163.906762 242.825419,163.638606 242.53546,162.957045 C241.988999,161.705653 241.420233,160.465435 240.829163,159.225216 C240.759192,159.001266 240.598698,158.81697 240.386717,158.717152 C240.174735,158.617334 239.93069,158.611141 239.713936,158.700079 L238.141466,159.057619 L236.602453,159.403986 C235.798594,159.626102 234.938204,159.380432 234.371999,158.767117 C233.814385,158.197287 233.256772,157.649803 232.654549,157.113493 L232.108088,156.599528 C231.633469,156.131861 231.392161,155.476243 231.450104,154.811826 C231.450104,154.409593 231.539322,154.018533 231.606236,153.627473 C231.673149,153.236413 231.706606,153.079989 231.751215,152.800661 C231.856473,152.291213 231.934649,151.776523 231.985413,151.258767 C232.061721,150.916828 231.883469,150.569056 231.561627,150.431955 C230.312572,149.95151 228.985452,149.459892 227.245698,148.867715 C226.937368,148.738109 226.581528,148.869968 226.431582,149.16939 C226.152776,149.538104 225.896274,149.929164 225.650924,150.286704 L225.048701,151.225248 L224.390717,152.23083 C224.086329,152.713913 223.566206,153.018233 222.996683,153.04647 L221.881456,153.04647 C221.21232,153.04647 220.543184,153.04647 219.862896,153.147028 C218.911754,153.247678 217.988929,152.785403 217.498614,151.962675 C217.130589,151.415191 216.74026,150.901227 216.383387,150.376089 C216.160342,150.074414 215.937297,149.783913 215.725403,149.482238 C215.574881,149.215778 215.254001,149.097586 214.967049,149.202909 C213.340059,149.66168 211.793853,150.37027 210.383466,151.30346 C210.319726,151.392053 210.281181,151.496318 210.271943,151.605135 C210.256759,151.931728 210.286784,152.258855 210.361162,152.577198 C210.472684,153.113508 210.584207,153.638646 210.706882,154.174957 C210.829557,154.711268 210.896471,155.024115 210.996841,155.448695 C211.160494,156.065767 211.005669,156.723957 210.584207,157.202878 C209.825853,158.018517 208.911367,158.979407 207.929967,159.917951 C207.572596,160.204402 207.127407,160.358339 206.66976,160.353703 C206.294775,160.351497 205.921031,160.310308 205.554533,160.230799 L205.253422,160.174933 L204.428154,160.040855 C203.926302,159.95147 203.42445,159.850912 202.911445,159.795046 C202.479095,159.735483 202.066062,159.994111 201.930046,160.409569 C201.729305,160.901187 201.528564,161.392805 201.350128,161.884423 L200.680991,163.839723 L200.37988,164.957037 C200.61389,165.372394 200.967606,165.707301 201.394737,165.917927 L202.855684,166.856471 L203.859388,167.49334 C204.365101,167.808806 204.676017,168.36024 204.684656,168.957021 L204.740418,170.074335 C204.740418,170.688858 204.740418,171.30338 204.829636,171.90673 C204.940799,172.993654 204.409208,174.045729 203.469059,174.599457 C202.799923,175.024036 202.09733,175.526827 201.238605,176.163696 C200.747905,176.53241 200.703296,176.700007 200.915189,177.28101 C201.327823,178.308939 201.896589,179.660889 202.521116,181.001666 C202.922598,181.850825 203.045273,181.917864 204.026672,181.739093 L204.963463,181.526804 L206.859349,181.079878 C207.053178,181.035034 207.251489,181.012542 207.450419,181.012839 L207.450419,181.012839 Z M221.613802,180.096816 L221.613802,180.096816 C216.216198,180.059867 211.856528,175.672095 211.844414,170.264278 C211.845325,167.653683 212.8943,165.153175 214.755156,163.325758 C216.560123,161.503123 218.996299,160.446804 221.558041,160.37605 C224.182996,160.346113 226.710263,161.372226 228.573829,163.224579 C230.437396,165.076931 231.481538,167.600737 231.472408,170.230759 C231.544466,172.751338 230.595053,175.193798 228.840473,177.001682 C226.981611,178.991074 224.378339,180.112899 221.658411,180.096816 L221.613802,180.096816 Z M221.502279,161.493364 C219.24147,161.556398 217.093787,162.498018 215.51351,164.119051 C213.865498,165.73745 212.937006,167.952281 212.937336,170.264278 C212.943364,175.057547 216.807276,178.948645 221.591497,178.979328 L221.591497,178.979328 C224.009509,179.000108 226.3262,178.007697 227.981748,176.241908 C229.532343,174.655442 230.373531,172.506197 230.312572,170.286625 L230.312572,170.286625 C230.327741,167.949053 229.40375,165.703623 227.748654,164.055938 C226.093558,162.408253 223.846493,161.496826 221.513431,161.526883 L221.502279,161.493364 Z" id="形状" fill="#231F20"></path>
                        <path d="M107.834507,203.352785 C108.395398,201.107397 108.95629,198.86201 109.505963,196.616623 C109.808845,195.493929 110.167815,194.371235 110.526786,193.18118 C110.906684,191.703097 112.267553,190.692147 113.791174,190.756162 C115.574808,190.756162 117.347225,191.025608 119.119642,191.160331 C120.071465,191.285246 121.032384,191.326569 121.991406,191.283828 C122.695627,191.242041 123.364474,190.960818 123.887219,190.486715 C125.73816,188.387278 127.499359,186.209252 129.226905,184.02 C129.817836,183.194488 129.952827,182.12635 129.585875,181.179585 C128.957677,179.091374 128.262172,177.025618 127.645191,174.926181 C127.369575,174.12313 127.218256,173.282626 127.196478,172.433801 C127.185321,171.802505 127.432542,171.19409 127.880766,170.74976 C130.94056,168.348736 134.344034,166.422319 137.976811,165.03525 C139.077599,164.576167 140.349271,164.917399 141.072931,165.866043 C142.57612,167.594991 144.135398,169.234124 145.560062,171.041661 C146.537357,172.421613 148.230665,173.10212 149.890144,172.781836 C152.201016,172.411347 154.534325,172.164354 156.856415,171.85 C157.719744,171.725901 158.466607,171.184196 158.853188,170.401725 C159.571129,169.099401 160.244199,167.774622 160.950922,166.461071 C161.567903,165.338377 162.162448,164.215683 162.813082,163.09299 C163.388463,161.9451 164.69587,161.366173 165.931638,161.712076 C169.296986,162.54287 172.572592,163.407344 175.870633,164.361633 C177.15631,164.749745 177.994223,165.986554 177.878625,167.325545 C177.878625,169.133082 177.598179,170.929391 177.474783,172.736928 C177.407476,173.590175 177.351387,174.443423 177.362604,175.29667 C177.323404,176.40742 177.814937,177.470493 178.686308,178.159539 C180.526032,179.61904 182.388191,181.044861 184.160608,182.571725 C185.213449,183.526349 186.709181,183.81622 188.041977,183.32393 C190.285542,182.62786 192.529108,181.864428 194.772673,181.168358 C196.297677,180.504501 198.073995,181.169919 198.788656,182.672767 C200.347934,185.311097 201.851123,187.983108 203.275787,190.666346 C204.330263,192.63106 204.117124,193.832342 202.479321,195.370433 C201.357538,196.414538 200.168449,197.346374 199.035448,198.345571 C198.216547,199.075322 197.420081,199.8163 196.657269,200.590958 C195.997274,201.237173 195.677625,202.155353 195.793496,203.072111 C196.051506,205.485903 196.298298,207.899694 196.623615,210.302259 C196.777368,211.643672 197.63174,212.802286 198.867181,213.344759 C200.246973,214.018375 201.649202,214.669537 203.028995,215.35438 C203.892793,215.769394 204.731801,216.234222 205.541788,216.74652 C206.746712,217.394834 207.321208,218.808675 206.910363,220.114601 C206.10268,223.12342 205.261343,226.121013 204.408788,229.096151 C204.252889,229.55025 204.049859,229.986743 203.803025,230.398475 C203.383061,231.414367 202.364137,232.050584 201.267796,231.981474 C199.147626,231.824296 197.027457,231.644665 194.907287,231.476261 C194.750238,231.476261 194.58197,231.476261 194.424921,231.476261 C192.587755,231.138047 190.733404,231.974301 189.769522,233.575699 C188.715046,235.068881 187.525957,236.449794 186.336867,237.875615 C185.230839,239.162196 184.928464,240.956307 185.551619,242.534794 C186.247124,244.521962 186.920194,246.50913 187.514739,248.529978 C188.109284,250.550827 187.795184,251.63984 185.899372,252.762533 C183.173439,254.367985 180.402636,255.906076 177.609397,257.388031 C176.335611,258.235444 174.622289,257.939804 173.705593,256.714415 C172.460414,255.400864 171.304977,253.997497 170.138323,252.616583 C167.614312,249.652672 167.030985,249.416906 163.172052,249.944572 L158.684921,250.595735 C157.222672,250.740785 155.944414,251.644821 155.319573,252.975845 C154.534325,254.581297 153.78273,256.197976 152.952611,257.780974 C152.504843,258.598131 151.982882,259.372312 151.393333,260.093723 C150.867993,260.841423 149.92505,261.171044 149.048807,260.91329 C145.907815,260.037589 142.755605,259.173114 139.614614,258.286186 C139.182114,258.140013 138.768024,257.944102 138.380652,257.702386 C137.373046,257.257694 136.762965,256.217453 136.866246,255.12019 C137.012077,253.020753 137.191563,250.921316 137.337394,248.821879 C137.37104,248.182386 137.37104,247.541565 137.337394,246.902072 C137.35426,245.847801 136.876831,244.846463 136.047344,244.196381 C134.252492,242.815468 132.480075,241.4121 130.707658,240.008733 C129.678527,239.158927 128.269509,238.935365 127.028211,239.424933 C125.031437,240.109776 123.034664,240.727257 121.026673,241.37842 C120.953518,241.405994 120.878556,241.428501 120.802316,241.445781 C118.177344,242.164305 117.279918,241.894859 115.911343,239.537202 C114.385719,236.921326 112.972272,234.226861 111.603697,231.532396 C110.76236,229.870809 110.975499,228.871612 112.377727,227.602968 C113.779956,226.334324 115.451412,224.886049 117.066779,223.628633 C118.694818,222.515027 119.495399,220.531869 119.097206,218.598965 C118.771889,216.443393 118.525097,214.265367 118.222216,212.109795 C118.131718,211.187835 117.583579,210.373399 116.763898,209.942997 C114.845649,208.943799 112.927401,207.967056 111.031588,206.945405 C109.702542,206.433521 108.597668,205.466966 107.913032,204.217259 L107.834507,203.352785 Z M178.013239,209.5276 C177.549453,204.019131 174.904849,198.924727 170.667971,195.378125 C166.431093,191.831524 160.953493,190.127002 155.454187,190.643892 C145.930251,191.418551 135.845423,200.748135 136.922335,213.097766 C137.950126,224.389276 147.849135,232.761006 159.144852,231.891658 C172.393107,230.780191 179.370596,218.610192 178.013239,209.5276 Z" id="形状" fill="#286AE5"></path>
                        <path d="M150.040375,261 C149.782554,261 149.526082,260.962735 149.279327,260.887883 L146.716387,260.181583 C144.478011,259.542549 142.138909,258.914726 139.855766,258.264481 C139.464135,258.131494 139.088705,257.954739 138.736578,257.737559 L138.557508,257.636659 C137.357776,257.085736 136.635563,255.83654 136.755615,254.519967 C136.822767,253.578233 136.889918,252.625288 136.968261,251.683554 C137.057796,250.562442 137.147331,249.385274 137.225674,248.24174 C137.260408,247.621879 137.260408,247.000555 137.225674,246.380694 C137.227445,245.498081 136.812427,244.666619 136.106487,244.13847 C134.494856,242.905247 132.894418,241.63839 131.305171,240.382745 L130.767961,239.956722 C129.890287,239.223647 128.679401,239.038033 127.623043,239.474644 C126.224058,239.945511 124.813882,240.405167 123.403705,240.853612 L121.635388,241.414168 L121.377975,241.503857 C118.468087,242.299846 117.337707,241.851401 115.871571,239.328899 C114.19279,236.43643 112.681886,233.521539 111.551506,231.301737 C110.568488,229.781171 110.964346,227.75387 112.446857,226.716389 C114.215173,225.113199 115.714885,223.846342 117.169829,222.72523 C118.619986,221.732084 119.334476,219.964879 118.982913,218.240782 C118.770268,216.895448 118.60239,215.538902 118.423319,214.193568 C118.322593,213.375156 118.221866,212.556744 118.109947,211.738332 C118.029766,210.999859 117.589684,210.349097 116.9348,210.000609 L114.562122,208.767385 L111.204558,207.007239 C109.762055,206.446999 108.569841,205.384105 107.846995,204.01387 C107.84061,203.954249 107.84061,203.894114 107.846995,203.834492 L107.846995,203.072136 C107.830344,203.002112 107.830344,202.929149 107.846995,202.859125 L108.328246,200.863546 C108.719961,199.293989 109.100485,197.713221 109.514585,196.143664 C109.827957,194.932863 110.186097,193.755695 110.544237,192.668217 C110.989816,190.997283 112.511153,189.842774 114.237557,189.865437 L114.338284,189.865437 C115.524623,189.865437 116.722154,190.011181 117.874917,190.112081 L119.688002,190.269037 L120.404282,190.336304 C121.081644,190.402585 121.763842,190.402585 122.441204,190.336304 C123.007566,190.30585 123.549099,190.093581 123.985683,189.730903 C125.944261,187.488679 127.768538,185.246455 129.290633,183.29572 C129.763636,182.615888 129.860537,181.742277 129.548046,180.975018 C129.279441,180.044495 128.97726,179.136394 128.686272,178.217083 C128.31694,177.095971 127.958799,175.896381 127.567084,174.719213 C127.280303,173.861639 127.121899,172.966246 127.097025,172.062178 C127.094376,171.260828 127.422448,170.494009 128.003567,169.943276 C131.102262,167.508716 134.55116,165.558288 138.232943,164.158338 C139.549338,163.624382 141.059584,164.026587 141.937455,165.144916 C142.463473,165.750317 142.989491,166.355717 143.526702,166.949907 C144.500395,168.071019 145.507664,169.192131 146.447782,170.313243 C147.293674,171.53714 148.784561,172.140688 150.241828,171.849166 C151.74154,171.613733 153.274827,171.423144 154.71858,171.243766 L157.169601,170.929854 C157.849771,170.844247 158.442085,170.423444 158.747656,169.808742 C159.172947,169.035175 159.587046,168.261608 159.989954,167.476829 C160.280943,166.949907 160.56074,166.355717 160.840537,165.873639 L161.176293,165.268239 C161.668736,164.337716 162.17237,163.407193 162.70958,162.510303 C163.407063,161.147819 164.961493,160.460449 166.436476,160.862268 C170.443168,161.871269 173.509743,162.689681 176.363671,163.519304 C177.901205,163.962619 178.912872,165.43112 178.781117,167.028385 C178.781117,168.239186 178.646814,169.472409 178.534896,170.649576 C178.467744,171.254977 178.411785,171.860377 178.367018,172.465778 C178.311058,173.261767 178.255099,174.113813 178.266291,174.965858 C178.227017,175.909913 178.643508,176.815255 179.385478,177.398671 L180.661353,178.396461 C182.049145,179.517573 183.492898,180.638685 184.869499,181.759797 C185.775802,182.596075 187.077727,182.843865 188.227062,182.39883 C189.34625,182.062497 190.465438,181.703741 191.528666,181.344985 L194.975764,180.223873 C196.747916,179.470789 198.798032,180.245841 199.631586,181.984019 C201.187257,184.618632 202.709352,187.309301 204.108337,189.977548 C205.227525,192.141294 205.014879,193.643584 203.212986,195.358886 C202.552666,195.975497 201.847577,196.569687 201.164873,197.130243 C200.694814,197.533843 200.213563,197.926232 199.754696,198.341044 C198.892922,199.1034 198.131874,199.820911 197.415594,200.583268 C196.8729,201.109572 196.611324,201.862377 196.710505,202.61248 L196.867192,204.058715 C197.068646,205.975816 197.281291,207.904129 197.527513,209.821231 C197.650982,210.966968 198.37671,211.959076 199.430132,212.422211 L201.164873,213.263045 C201.970688,213.644223 202.787695,214.036612 203.59351,214.440212 C204.468814,214.864807 205.320633,215.336358 206.145258,215.852813 C207.56393,216.622063 208.235953,218.293241 207.745697,219.832761 C206.939882,222.837341 206.100491,225.83071 205.249908,228.801657 C205.102544,229.256474 204.903516,229.69283 204.656739,230.102147 L204.656739,230.214258 C204.09786,231.417614 202.841709,232.136649 201.523013,232.008038 L197.146989,231.660493 L195.020532,231.492326 L194.662392,231.492326 C193.040026,231.195899 191.404016,231.937165 190.554973,233.353372 C189.805117,234.418429 188.965726,235.427429 188.148719,236.414008 C187.790579,236.828819 187.443631,237.254842 187.096682,237.680865 C186.123102,238.814582 185.86391,240.398371 186.42517,241.784135 C187.074299,243.678814 187.768195,245.719238 188.383748,247.804506 C189.088837,250.203686 188.618778,251.425698 186.514705,252.670132 C184.030108,254.138789 181.321673,255.65229 178.221523,257.300325 C176.736429,258.293825 174.734831,257.948978 173.666429,256.515547 C172.636776,255.394435 171.651891,254.273323 170.700581,253.15221 L170.085028,252.423488 C167.689966,249.609496 167.264675,249.44133 163.627314,249.94583 L161.041991,250.315797 L159.139371,250.596075 C157.861635,250.709915 156.740626,251.495544 156.195907,252.658921 C155.927302,253.197055 155.669889,253.780033 155.412476,254.273323 C154.89765,255.394435 154.382823,256.414646 153.823229,257.468492 C153.363054,258.317524 152.823421,259.120857 152.211599,259.867672 C151.705537,260.56573 150.901473,260.98506 150.040375,261 L150.040375,261 Z M128.887725,238.084465 C129.838989,238.089877 130.759553,238.422325 131.495433,239.026199 L132.032643,239.463433 C133.62189,240.719078 135.211136,241.974724 136.822767,243.207947 C137.790904,243.957225 138.34727,245.121778 138.322478,246.34706 C138.357145,247.000582 138.357145,247.655486 138.322478,248.309007 C138.244135,249.430119 138.1546,250.618497 138.065065,251.773243 C137.986722,252.714977 137.919571,253.656711 137.85242,254.598445 C137.756803,255.478319 138.254448,256.31525 139.072334,256.65008 L139.251404,256.75098 C139.544959,256.928811 139.856299,257.075355 140.18033,257.188214 L147.040951,259.105315 L149.603891,259.811616 C150.262779,260.004753 150.970447,259.745738 151.349824,259.172582 C151.922715,258.476839 152.425093,257.725732 152.849536,256.930358 C153.397938,255.898935 153.901572,254.833879 154.416399,253.780033 C154.673812,253.230688 154.931225,252.658921 155.19983,252.154421 C155.908834,250.657347 157.348041,249.64094 158.993877,249.474963 L160.896496,249.194685 L163.493012,248.824718 C167.53328,248.264162 168.294327,248.555651 170.946802,251.683554 L171.573548,252.423488 C172.502474,253.5446 173.476167,254.665712 174.483436,255.786824 C175.22774,256.827317 176.667879,257.076904 177.717889,256.34738 C180.784463,254.710556 183.481706,253.197055 185.955111,251.739609 C187.611509,250.764242 187.880114,250.057941 187.32052,248.152051 C186.760926,246.24616 186.022262,244.071203 185.373133,242.187735 C184.686142,240.432294 185.021858,238.440407 186.2461,237.008197 L187.298136,235.73013 C188.103951,234.765973 188.93215,233.768184 189.659622,232.73676 C190.742017,230.970817 192.794163,230.049767 194.83027,230.416059 L195.076491,230.416059 L197.247716,230.584225 L201.62374,230.93177 C202.502342,231.030636 203.34088,230.537605 203.683045,229.720969 L203.750197,229.608858 C203.951099,229.27208 204.116151,228.915104 204.242639,228.543801 C205.093222,225.550432 205.921415,222.568274 206.738428,219.574905 C207.109772,218.507628 206.630069,217.330336 205.61924,216.828181 C204.828474,216.329976 204.010155,215.877068 203.168219,215.471635 C202.373596,215.068035 201.56778,214.686857 200.761965,214.350523 L199.016032,213.509689 C197.629106,212.876165 196.673954,211.562168 196.49786,210.045453 C196.240447,208.11714 196.038993,206.188828 195.826347,204.260515 L195.669661,202.81428 C195.538559,201.728094 195.919073,200.64259 196.699314,199.876967 C197.426786,199.125822 198.210217,198.374677 199.094375,197.634743 C199.564434,197.219931 200.045685,196.816331 200.526936,196.412731 C201.198448,195.852175 201.881153,195.291619 202.51909,194.675007 C203.962842,193.307251 204.13072,192.365516 203.201795,190.650215 C201.758042,187.993179 200.247139,185.313722 198.725043,182.679108 C198.44732,182.065605 197.936168,181.588863 197.305477,181.355106 C196.674786,181.121349 195.976959,181.15 195.36748,181.434674 C194.248292,181.782219 193.073145,182.152186 191.931574,182.555786 L188.57401,183.620843 C187.064914,184.169874 185.376441,183.837639 184.186794,182.757586 C182.832577,181.636474 181.400016,180.515362 180.012224,179.39425 L178.73635,178.385249 C177.727743,177.595977 177.157647,176.370456 177.203062,175.08918 C177.203062,174.19229 177.203062,173.317823 177.314981,172.4882 C177.314981,171.8828 177.415708,171.266188 177.471667,170.660788 C177.583586,169.539676 177.695505,168.295241 177.717889,167.118074 C177.802925,166.041097 177.141861,165.045479 176.11745,164.707683 C173.263521,163.87806 170.208139,163.070859 166.22383,162.061858 C165.229814,161.769033 164.170936,162.244682 163.728041,163.18297 C163.190831,164.068649 162.70958,164.987961 162.217138,165.907273 L161.881381,166.512673 L161.041991,168.104652 C160.627891,168.889431 160.213792,169.674209 159.777308,170.458987 C159.282913,171.370759 158.377326,171.985276 157.348671,172.107022 L154.89765,172.420933 C153.420322,172.600311 151.898226,172.7909 150.420898,173.026334 C148.57057,173.395993 146.676326,172.640506 145.586007,171.098021 C144.657081,169.976909 143.661004,168.855797 142.687311,167.734685 L141.086872,165.918484 C140.516659,165.148626 139.49405,164.870517 138.613467,165.245816 C135.037623,166.602016 131.686976,168.491885 128.67508,170.851377 C128.374714,171.195641 128.211373,171.638619 128.216213,172.095811 C128.242968,172.88981 128.386269,173.675538 128.641504,174.427724 C128.97726,175.548836 129.346592,176.748426 129.760692,177.903171 C130.051681,178.822483 130.342669,179.741795 130.622466,180.672318 C131.050571,181.798633 130.877702,183.065709 130.163599,184.035654 C128.641504,185.975178 126.806036,188.273458 124.825074,190.515682 C124.206717,191.080877 123.420445,191.427431 122.586698,191.50226 C121.840129,191.550857 121.09064,191.528334 120.348322,191.434993 L119.665618,191.434993 L117.729423,191.165927 C116.610235,191.065026 115.423896,190.952915 114.271133,190.919282 C112.997025,190.854111 111.859957,191.714286 111.57389,192.959706 C111.226942,194.080818 110.868802,195.20193 110.566621,196.323042 C110.152522,197.892599 109.771998,199.462156 109.391474,201.031712 L108.921415,202.937603 L108.921415,203.543003 C109.566589,204.616016 110.545671,205.447107 111.708193,205.90855 L115.065756,207.668696 L117.449626,208.91313 C118.430331,209.422659 119.09032,210.391184 119.206751,211.491688 C119.31867,212.310099 119.419397,213.128511 119.531315,213.946923 C119.699194,215.292257 119.867072,216.626381 120.079717,217.971715 C120.520399,220.120555 119.639871,222.32566 117.841342,223.577275 C116.408781,224.698387 114.931454,225.93161 113.185521,227.512378 C111.965606,228.63349 111.820112,229.351002 112.536392,230.763603 C113.655579,233.005827 115.166483,235.864663 116.822881,238.73471 C118.031604,240.819978 118.635965,241.055412 121.075795,240.382745 L121.277248,240.315478 L123.045565,239.743711 C124.455742,239.295266 125.854726,238.846821 127.253711,238.375954 C127.778907,238.190323 128.330844,238.091864 128.887725,238.084465 L128.887725,238.084465 Z M157.796346,232.086516 C146.854995,232.046663 137.749725,223.655023 136.800383,212.736122 C136.317796,207.126473 138.11783,201.559414 141.791961,197.298409 C147.24212,190.671198 156.168138,188.030639 164.338016,190.628671 C172.507893,193.226703 178.27911,200.541003 178.91542,209.103719 C179.530785,214.495453 177.939991,219.906979 174.50582,224.104198 C170.858728,228.731421 165.444478,231.618023 159.575855,232.064093 C158.986416,232.071567 158.393246,232.075304 157.796346,232.075304 L157.796346,232.086516 Z M157.650852,190.762326 C157.068874,190.762326 156.531664,190.762326 155.893727,190.829593 C150.697241,191.409449 145.929384,193.990448 142.597776,198.027132 C139.152122,202.061764 137.463232,207.310765 137.908379,212.601588 C138.645173,220.792465 144.283293,227.710031 152.147402,230.071839 C160.011512,232.433647 168.518946,229.764381 173.632853,223.330631 C176.875542,219.373192 178.381375,214.269631 177.807424,209.182197 C176.977615,198.682229 168.164825,190.623852 157.650852,190.751115 L157.650852,190.762326 Z" id="形状" fill="#231F20"></path>
                        <path d="M120.629738,59.8228898 C121.30631,59.8232333 121.854694,60.3716172 121.855037,61.0481888 L121.860336,71.4875344 C121.860679,72.1632187 121.313207,72.711247 120.637523,72.71159 C120.637109,72.7115902 120.636695,72.7115902 120.636281,72.71159 C119.959709,72.7112465 119.411325,72.1628626 119.410982,71.486291 L119.405683,61.0469454 C119.40534,60.3712611 119.952812,59.8232328 120.628496,59.8228898 C120.62891,59.8228896 120.629324,59.8228896 120.629738,59.8228898 Z" id="矩形" fill="#231F20" transform="translate(120.633009, 66.267240) rotate(41.730000) translate(-120.633009, -66.267240) "></path>
                        <path d="M117.353159,71.7317881 C116.921146,71.7312286 116.504031,71.5730764 116.179351,71.2867302 L116.179351,71.2867302 C115.831481,70.9731133 115.623932,70.5319749 115.603521,70.062821 C115.56769,69.5963229 115.728393,69.1361348 116.046467,68.7944061 L122.889988,61.072652 C123.540991,60.3565818 124.644421,60.3006487 125.363845,60.9472517 C126.083268,61.5938547 126.150441,62.7019008 125.514445,63.4314587 L118.670924,71.1420864 C118.363105,71.4988996 117.92238,71.7122612 117.452822,71.7317881 L117.353159,71.7317881 Z M124.207753,61.595595 C124.02053,61.5934893 123.842039,61.6750084 123.720512,61.8181239 L116.865918,69.5287516 C116.755808,69.663378 116.696933,69.8329593 116.699813,70.0071888 C116.710215,70.179661 116.790204,70.3404021 116.921286,70.4522467 L116.921286,70.4522467 C117.052614,70.5675568 117.22324,70.6273612 117.397454,70.6191434 C117.566245,70.6069134 117.724319,70.5314702 117.8404,70.4077409 L124.739288,62.6859868 C124.848363,62.5557683 124.903819,62.3886077 124.89432,62.218676 C124.889734,62.0439833 124.81361,61.8789333 124.68392,61.7624917 C124.553195,61.6461455 124.382137,61.5861895 124.207753,61.595595 L124.207753,61.595595 Z" id="形状" fill="#231F20"></path>
                        <line x1="125.088028" y1="61.3609272" x2="131.989437" y2="53.5827815" id="路径" fill="#231F20"></line>
                        <path d="M124.752572,62.223912 C124.617969,62.2211587 124.4888,62.1694431 124.388515,62.0781542 C124.28409,61.9728909 124.225352,61.8296021 124.225352,61.6801233 C124.225352,61.5306444 124.28409,61.3873556 124.388515,61.2820923 L131.007733,53.7923835 C131.136008,53.6300401 131.342245,53.5533224 131.543329,53.5931483 C131.744412,53.6329742 131.907214,53.7827825 131.966125,53.9821994 C132.025035,54.1816162 131.970348,54.3977883 131.824103,54.5435968 L125.204885,62.0333056 C125.091643,62.1650982 124.924349,62.2355965 124.752572,62.223912 Z" id="路径" fill="#231F20"></path>
                        <polygon id="路径" fill="#231F20" points="131.630922 55.2792494 130.364917 55.3112583 130.264085 54.116262 132.661652 51.8543046 133.18822 52.3024283 133.714789 52.7505519"></polygon>
                        <path d="M110.456108,69.5114713 L115.111571,67.9767746 C115.111571,67.9767746 119.006044,63.0461531 120.416112,63.0896906 C121.82618,63.1332281 119.117954,66.8121465 119.297011,66.9209903 C119.476067,67.029834 125.586362,64.0692843 125.910901,65.5495592 C126.23544,67.029834 124.500833,69.9033088 123.415304,70.6107931 C122.329776,71.3182774 110.422535,76.0529801 110.422535,76.0529801 L110.456108,69.5114713 Z" id="路径" fill="#FFFFFF"></path>
                        <path d="M110.11379,76.9131971 C110.002391,76.9140246 109.893671,76.8781079 109.803604,76.8107244 C109.651079,76.7072128 109.559478,76.5317587 109.559873,76.3439041 L109.559873,69.5123877 C109.558183,69.2685842 109.710709,69.0518815 109.936541,68.9772522 L114.367763,67.4173893 C115.409101,66.0283143 118.43341,62.2254368 119.906791,62.2254368 L119.906791,62.2254368 C120.239163,62.2172183 120.549352,62.3962741 120.71549,62.6922571 C121.081065,63.352637 120.637943,64.3887503 119.906791,65.7778254 C122.244261,64.8100272 124.338014,64.0130169 125.368273,64.5367665 C125.642775,64.6798956 125.838614,64.9440761 125.90002,65.2540758 C126.287752,67.1213569 124.36017,70.2980121 123.208052,71.117794 C122.055934,71.937576 111.443157,76.4008334 110.235649,76.9131971 C110.195197,76.918559 110.154242,76.918559 110.11379,76.9131971 L110.11379,76.9131971 Z M110.667693,69.8767352 L110.667693,75.4899645 C115.364788,73.5088248 121.945154,70.6509737 122.654149,70.1499959 C123.606862,69.4668442 125.15779,66.7342377 124.86976,65.4362495 C124.526341,65.2540758 122.942179,65.720896 120.194821,66.870868 C119.087015,67.3490741 118.898688,67.4060034 118.621737,67.2693731 C118.488862,67.1895418 118.387061,67.0647909 118.333707,66.9164114 C118.234005,66.5976073 118.333707,66.3585042 118.798986,65.5501081 C119.201316,64.8509783 119.531746,64.1107035 119.784933,63.3412512 C119.009469,63.6145118 116.982185,65.720896 115.132149,68.2030137 C115.063941,68.2929677 114.971471,68.3602874 114.866276,68.3965733 L110.667693,69.8767352 Z" id="形状" fill="#231F20"></path>
                        <path d="M36.5315998,156.427152 C36.5315998,156.693832 35.8583876,163.094134 36.5315998,163.094134 C37.2048119,163.094134 43.1338028,164.205298 43.1338028,164.205298 L43.1338028,156.427152 L36.5315998,156.427152 Z" id="路径" fill="#FFFFFF"></path>
                        <path d="M42.5980944,165.069536 L42.4955119,165.069536 C39.7371835,164.574456 36.6141175,163.993274 36.2265838,163.993274 C36.0398041,163.980348 35.8631049,163.9083 35.7250695,163.788785 C35.4059241,163.455143 35.166565,162.712523 35.622487,157.428076 C35.622487,157.180536 35.622487,157.008334 35.622487,156.954521 C35.6345099,156.663934 35.8844662,156.432633 36.1923896,156.427152 L42.5639003,156.427152 C42.8786487,156.427152 43.1338028,156.668082 43.1338028,156.965283 L43.1338028,164.499118 C43.1312134,164.660102 43.0566958,164.812556 42.9286379,164.91886 C42.8381173,165.000846 42.7223848,165.053602 42.5980944,165.069536 L42.5980944,165.069536 Z M36.5685253,162.981588 C37.6513402,163.11074 40.5692413,163.616583 42.0281918,163.885648 L42.0281918,157.535702 L36.7167,157.535702 C36.4854655,159.342518 36.4358528,161.165944 36.5685253,162.981588 Z" id="形状" fill="#231F20"></path>
                        <path d="M32.7839602,80.3741722 C32.6957729,81.0241366 35.1980859,142.176824 36.6201052,157.574257 C36.6201052,157.574257 42.5286505,159.019868 43.2341485,159.019868 C43.9396464,159.019868 53.4859155,93.3510481 53.4859155,93.3510481 L32.7839602,80.3741722 Z" id="路径" fill="#404650"></path>
                        <path d="M43.2420868,159.884106 C42.4822562,159.884106 37.3222122,158.664605 36.2902034,158.416188 C36.054677,158.359292 35.881505,158.159645 35.8592547,157.919354 C34.4643417,143.093379 31.7879233,80.8988103 31.9240124,80.0067677 C31.9511263,79.8198647 32.0702955,79.6588349 32.2415535,79.5776838 C32.4116649,79.4873504 32.6157985,79.4873504 32.7859098,79.5776838 L54.0725087,92.6421566 C54.2648731,92.7624501 54.3707434,92.9820588 54.3446869,93.2067406 C54.3446869,93.3761158 51.8610613,109.941009 49.3434135,126.302652 C44.1833695,159.884106 43.9452137,159.884106 43.2420868,159.884106 Z M36.9479672,157.411228 C39.3522075,157.975812 41.8925368,158.540396 42.8678419,158.709771 C43.9225322,154.633475 49.5021841,118.116185 53.1652483,93.4212825 L33.0694287,81.0907689 C33.2962438,89.1191527 35.6210988,142.83367 36.9479672,157.411228 Z" id="形状" fill="#231F20"></path>
                        <path d="M53.4299604,126.178808 C53.4299604,126.178808 48.8761909,131.195927 48.3098592,133.183436 L54.9209154,133.956954 C54.9209154,133.956954 60.9656398,127.650639 61.2430268,127.564693 C61.5204138,127.478747 53.4299604,126.178808 53.4299604,126.178808 Z" id="路径" fill="#FFFFFF"></path>
                        <path d="M54.4823462,134.821192 L54.4144479,134.821192 L47.9414724,133.979688 C47.780146,133.964651 47.6343421,133.875537 47.5453988,133.737611 C47.4528673,133.599263 47.4239565,133.42677 47.466184,133.264985 C48.04332,131.028659 52.4114468,125.749084 52.592509,125.518535 C52.7240733,125.363132 52.9256644,125.288856 53.1243794,125.322568 C61.2042823,126.751973 61.2042823,126.751973 61.2495479,127.328345 C61.2577123,127.544775 61.154851,127.749968 60.9779545,127.870136 C60.5139825,128.273597 57.0172177,132.215987 54.9010527,134.636753 C54.7922705,134.754196 54.6408575,134.820893 54.4823462,134.821192 L54.4823462,134.821192 Z M48.8241509,132.930689 L54.2786512,133.633864 C57.2774947,130.175627 58.8052075,128.527201 59.5860384,127.685697 C58.1488568,127.39751 55.3084428,126.878775 53.2714924,126.532951 C51.5833413,128.514418 50.0864405,130.656887 48.8015181,132.930689 L48.8241509,132.930689 Z" id="形状" fill="#231F20"></path>
                        <path d="M34.9555486,70.0033113 C34.9555486,70.0033113 29.6738583,85.1067754 33.0420548,91.0901137 C36.4102514,97.073452 70.573388,103.793545 70.573388,103.793545 L51.2706004,127.235728 L57.9846134,129.635762 C57.9846134,129.635762 87.9403018,121.721234 90.4356767,110.937829 C92.9310515,100.154425 62.4606222,81.0099747 62.4606222,81.0099747" id="路径" fill="#404650"></path>
                        <path d="M58.3889284,130.5 L58.1993399,130.5 L51.5079821,128.077387 C51.3395762,128.01789 51.210518,127.87908 51.162262,127.705544 C51.1084051,127.530266 51.1461958,127.339352 51.2626323,127.198486 L69.9092161,104.178029 C64.3330846,103.051233 36.2628386,96.9665306 33.1067481,91.2649394 C29.6718511,85.0675576 34.7572831,70.1487694 34.9803283,69.5177633 C35.085421,69.2253015 35.4017976,69.0704667 35.6940732,69.1684563 C35.8349577,69.216714 35.9502814,69.3209182 36.0134204,69.4570121 C36.0765593,69.593106 36.0820559,69.7493258 36.028641,69.8896062 C36.028641,70.0360898 30.8874478,84.9548779 34.076995,90.712809 C36.7200814,95.4904269 61.6676937,101.383574 71.0467469,103.254056 C71.239373,103.293889 71.3989032,103.429624 71.4705329,103.614631 C71.5343739,103.803788 71.4963649,104.012873 71.3701625,104.166761 L52.6678175,127.254826 L58.4112329,129.350667 C60.8089695,128.685857 87.8978163,120.956032 90.1951825,110.93881 C92.5706145,100.561012 62.8275291,81.518148 62.526418,81.3265926 C62.2646509,81.1616797 62.1847623,80.8135857 62.3479818,80.5491029 C62.5112012,80.28462 62.8557208,80.2039026 63.1174879,80.3688154 C64.3776936,81.168841 93.8308202,100.042686 91.2881043,111.197973 C88.7453883,122.35326 59.771809,130.150693 58.5339078,130.477464 L58.3889284,130.5 Z" id="路径" fill="#231F20"></path>
                        <path d="M70.1896936,31.9847124 C67.823855,31.3703705 65.6719573,30.1232662 63.9670948,28.3784866 C63.1778644,27.6146352 62.6428431,26.6282459 62.4341553,25.5522908 C62.251859,24.4497479 62.8203137,23.3592871 63.8308335,22.8730572 C62.7951684,22.1986124 62.1551658,21.0635281 62.1162123,19.8320705 C62.0773246,18.6489547 62.3597716,17.4773081 62.93378,16.4406355 C63.5052109,14.982007 64.7938606,13.9214444 66.3403122,13.6370493 C65.7612017,12.5065709 65.2048015,11.0595587 65.681716,9.84994688 C65.9919207,9.2564431 66.4395277,8.74494502 66.9875533,8.3577155 C68.00501,7.52794137 69.1001225,6.79731634 70.2578242,6.17589233 C70.8262876,5.73813757 71.591955,5.65102053 72.244968,5.94979667 C72.8939379,3.45252175 74.9095382,1.53786313 77.4456071,1.0096064 C78.68067,0.725231795 79.9758001,0.860538187 81.1246619,1.39396903 C82.2090485,2.1464204 83.2236921,2.99388437 84.1564755,3.92624047 C86.2556636,3.34037007 88.5097018,3.79002026 90.2201028,5.13585228 C91.4143679,6.3525364 91.8494032,8.11961443 91.3556135,9.74820383 C92.6876874,10.4468343 93.850319,11.4268332 94.7621457,12.6196188 C95.6662843,13.827256 95.9750087,15.3764972 95.6024237,16.8363029 C95.1632699,18.2987684 93.7968687,19.2889519 92.2640221,19.2555265 C93.5202888,20.5388607 93.6271325,22.5502241 92.5138345,23.9583164 C91.3415789,25.2932127 89.474524,25.7891853 87.7901099,25.2131473 C87.5659246,25.1117996 87.3206482,25.0652874 87.0747381,25.0774899 C86.7875945,25.1679489 86.5292248,25.3316373 86.325301,25.5522908 C85.5645088,26.1401395 84.6220349,25.9705678 83.8158223,26.3549304 C82.7193972,27.0241464 81.6789293,27.7802462 80.7045229,28.615887 C79.6960432,29.3305107 78.6498778,29.9909004 77.5705133,30.5942241 C76.4352838,31.4210183 75.2176692,32.1294084 73.936879,32.7082186 C72.8013682,33.0812764 72.0973516,32.583866 70.9845511,32.2560272 L70.1896936,31.9847124 Z" id="路径" fill="#FFFFFF"></path>
                        <path d="M72.7883162,32.839175 C72.2474904,32.8152377 71.7154594,32.6935973 71.217942,32.480134 C70.9864686,32.3898355 70.7506166,32.3111966 70.5112736,32.2445133 L69.6700017,31.9864526 L69.6700017,31.9864526 C67.2429158,31.3435965 65.0365568,30.0519994 63.2875523,28.2501824 C62.4031326,27.411267 61.8030733,26.3167415 61.5713576,25.1197938 C61.431799,24.0927483 61.7950052,23.0612945 62.547233,22.3484461 C61.7820918,21.5754022 61.3236891,20.5506913 61.2572828,19.4648982 C61.1980581,18.1660942 61.5009773,16.8763927 62.1322055,15.739848 C62.719205,14.3819872 63.8325662,13.3209672 65.2168692,12.8001999 C64.6337018,11.7171077 64.5319582,10.4388589 64.9364452,9.27711023 C65.2687404,8.60303822 65.7618432,8.0211717 66.3722159,7.58288557 C67.4196939,6.72910468 68.5465377,5.9776697 69.7373035,5.33887941 C70.2888645,4.98991004 70.9368654,4.82491919 71.5881016,4.86763811 C72.4457582,2.46145072 74.4944213,0.675819692 76.9946757,0.155225167 C78.3323818,-0.151272377 79.7341529,-0.00118254501 80.976696,0.581586339 C82.0153596,1.29799395 82.9944239,2.09721926 83.9043222,2.9714529 C86.0793052,2.46275858 88.3673089,2.98421865 90.1073003,4.38517679 C91.332763,5.62323718 91.8661726,7.38775201 91.531854,9.09758974 C92.7631276,9.7981312 93.8332323,10.7500207 94.6726025,11.8913774 C95.6645883,13.2344377 95.9983707,14.9532693 95.5811761,16.5701303 C95.1709956,17.8778182 94.1291663,18.8903992 92.8105873,19.2629377 C93.5940212,20.7234656 93.4445829,22.5084224 92.4292107,23.8182702 C91.1303937,25.3375474 89.0323521,25.9034163 87.1460232,25.2432141 C87.0070948,25.1827844 86.859419,25.1449085 86.7085618,25.1310138 C86.5877803,25.1909029 86.4778391,25.2705372 86.38327,25.3666344 L86.2262326,25.4900548 C85.730247,25.8356766 85.1556921,26.0516758 84.5549058,26.1183765 C84.2433025,26.158154 83.9380057,26.2373267 83.6463321,26.3539971 C82.9306288,26.7500186 82.2610027,27.2241534 81.6497135,27.767721 C81.3132048,28.0482218 80.976696,28.3175025 80.6514042,28.5531232 C79.6422775,29.2730921 78.5937276,29.936107 77.5106558,30.5390686 C77.1180622,30.7634693 76.7366856,31.02153 76.3889599,31.2908107 C75.6149982,31.8800342 74.7565864,32.3490748 73.8427103,32.6820945 C73.5038788,32.7988081 73.146444,32.8520576 72.7883162,32.839175 L72.7883162,32.839175 Z M69.9952935,30.9205497 L70.8253485,31.1561703 L71.5993186,31.4254511 C72.1607778,31.7121987 72.8097755,31.7763148 73.4164659,31.6049716 C74.2194584,31.2933559 74.9746506,30.8703325 75.6598576,30.3483281 C76.0636681,30.0678273 76.4674786,29.7985466 76.8825061,29.562926 C77.8247306,29.0131445 78.9239926,28.3623827 79.9335188,27.6330807 C80.2363767,27.40868 80.5504516,27.1506193 80.8757434,26.8925586 C81.5617598,26.2889821 82.3144319,25.7657317 83.1191351,25.3329743 C83.5069484,25.1695734 83.9140615,25.0564554 84.3305666,24.9963734 C84.730385,24.9566494 85.1149442,24.8220168 85.4522625,24.6036723 L85.575649,24.491472 C85.8209476,24.2542986 86.1280407,24.0909892 86.4617888,24.0202307 C86.7675398,23.9854041 87.0770657,24.0318458 87.3591454,24.1548711 C88.8156297,24.6805343 90.4453218,24.2674474 91.4757693,23.1114082 C92.3967246,21.9451315 92.3152954,20.2777723 91.285081,19.2068375 C91.1050806,19.0452583 91.0489052,18.7864581 91.1457114,18.5647621 C91.2425176,18.343066 91.4704987,18.2084142 91.7113254,18.2306948 C92.9640695,18.2459767 94.0737193,17.4249778 94.4258294,16.2223093 C94.7450245,14.9378643 94.4689919,13.577928 93.6742931,12.5196991 C92.8325556,11.4058144 91.7565641,10.4903967 90.5223278,9.83811177 C90.294974,9.70805513 90.1878795,9.43791676 90.2643377,9.18734998 C90.6814879,7.76240992 90.2903693,6.2233021 89.2435945,5.17057895 C87.7002165,3.9943126 85.6954928,3.60820418 83.8258035,4.12711608 L83.8258035,4.12711608 C83.5604571,4.20545679 83.2770883,4.08263 83.152786,3.83539528 C82.2870554,3.03228762 81.373037,2.28288697 80.4158481,1.59138911 C79.3980297,1.11008047 78.2462924,0.991312148 77.1517131,1.25478819 C74.854999,1.73124201 73.0283157,3.47141684 72.4405905,5.74280052 C72.3948788,5.92477398 72.2659885,6.07449406 72.0928648,6.14672163 C71.9172453,6.21640884 71.7181525,6.19098579 71.5656677,6.07940144 C71.2403759,5.8437808 70.6458771,6.07940144 70.1971988,6.33746215 C69.0841682,6.93822287 68.0290261,7.64059164 67.0452334,8.43560792 C66.5787328,8.76620683 66.1948604,9.20010146 65.9235375,9.7034714 C65.4972931,10.6908341 66.0357071,11.9474776 66.5629042,13.0021605 C66.6526399,13.1704609 66.6526399,13.3724215 66.5629042,13.5407219 C66.4429667,13.6955229 66.2533838,13.779805 66.058141,13.7651226 C64.4877668,13.8548828 63.4782406,15.5266674 63.1192979,16.2447494 C62.5871145,17.1961026 62.3234645,18.2742609 62.3565447,19.3639179 C62.3974605,20.3972184 62.9423566,21.3447587 63.8147493,21.8996449 C63.9992901,22.0136079 64.1035353,22.2221555 64.0839563,22.4382064 C64.0663867,22.6518508 63.9262753,22.8357974 63.7250137,22.9094477 C62.9631277,23.3000661 62.5446795,24.1417412 62.6930535,24.9851534 C62.8854842,25.935274 63.3628498,26.8041608 64.0615224,27.4760002 C65.6839434,29.1244053 67.7169098,30.3096588 69.9504257,30.9093297 L69.9952935,30.9205497 Z" id="形状" fill="#231F20"></path>
                        <path d="M86.821903,25.9271523 C86.821903,25.9271523 88.7076863,31.7607234 87.6931826,32.5747101 C86.6786789,33.3886968 84.5422535,32.0772738 84.5422535,32.0772738" id="路径" fill="#FFFFFF"></path>
                        <path d="M86.4213453,32.8410596 C85.5450892,32.772099 84.7017814,32.4822082 83.9729937,31.9994281 C83.7869154,31.9013955 83.6733668,31.7083646 83.6798403,31.5010715 C83.6863138,31.2937785 83.8116937,31.1079451 84.0035394,31.021297 C84.1953851,30.934649 84.4206367,30.962118 84.5850816,31.0922149 C85.2528138,31.5184958 86.4324741,31.9775675 86.8108557,31.6168683 C87.1892373,31.2561691 86.6661804,28.4689479 85.8203862,25.7691689 C85.775491,25.6314778 85.7891816,25.4818085 85.8583462,25.3541817 C85.9275108,25.2265549 86.0462736,25.1318131 86.187639,25.0914916 C86.3277854,25.0441026 86.4816788,25.0560337 86.6125193,25.1244319 C86.7433598,25.1928301 86.8393836,25.3115457 86.8776289,25.4521908 C87.5787478,27.6382467 88.6026039,31.5622169 87.5231034,32.4584998 C87.2101255,32.7041187 86.8219587,32.8389006 86.4213453,32.8410596 Z" id="路径" fill="#231F20"></path>
                        <path d="M89.1656517,14.8079179 C89.4224941,15.071068 89.5805719,15.4179778 89.6122592,15.7880213 C89.7968847,17.0864269 89.7400667,18.4087207 89.4447814,19.6856415 C88.9611451,22.2205978 88.3197074,24.7215121 87.5243691,27.1731752 C86.5641629,30.4325886 85.5258005,33.6806055 84.4092817,36.8944327 C83.7058748,38.9344153 78.4359061,37.3958809 77.7101689,36.50695 L76.1805381,44.9403974 C76.1805381,44.9403974 73.4562323,44.8834146 69.7828855,41.6126046 C66.1095386,38.3417946 66.4333291,37.3047085 66.4333291,37.3047085 L69.4925906,27.9481406 C69.4925906,27.9481406 72.964964,29.0194163 76.1917033,25.4067098 C76.705302,24.8368823 77.1407443,23.8225893 77.7548296,23.3781239 C78.368915,22.9336584 79.3849471,22.9450549 80.0548584,22.1358999 C80.6758789,21.3766942 80.9078174,20.3620739 80.6801089,19.4007277 C80.6801089,19.1955898 80.5796222,18.9448657 80.6801089,18.7967106 C80.7837,18.7284086 80.9030633,18.6891064 81.0262297,18.6827451 C81.7078682,18.5429968 82.3063426,18.1305634 82.6881179,17.5374693 C83.0698933,16.9443752 83.2032,16.2199748 83.0582939,15.5259006 C84.3869513,15.9247799 85.6597827,14.830711 86.6423192,13.8278146 C86.329694,14.146918 88.6855486,14.5457972 88.7190442,14.5571938 C88.8833242,14.6082813 89.0354093,14.6936614 89.1656517,14.8079179 L89.1656517,14.8079179 Z" id="路径" fill="#FFFFFF"></path>
                        <path d="M76.0703736,44.9331702 L76.0703736,44.9331702 C75.9451283,44.9331702 73.0303266,44.8428858 69.2388071,41.4910773 C65.6294628,38.3649798 65.4814456,37.078427 65.5839191,36.6608616 L68.7264397,27.3615679 C68.8332635,27.0793615 69.1384077,26.9232564 69.4323682,27.0004303 C69.5576136,27.0004303 72.6887482,27.8919888 75.7174094,24.6417502 C75.9238781,24.405213 76.1104712,24.1523251 76.2753206,23.8856183 C76.5690507,23.3761305 76.9550337,22.9246865 77.4139151,22.5539233 C77.7637247,22.3229308 78.1479259,22.1477565 78.5525095,22.034788 C78.984908,21.9488612 79.3814588,21.7366119 79.6911039,21.4253682 C80.2184281,20.7986309 80.4129435,19.9603687 80.2148573,19.1682581 C80.0709041,18.7831342 80.1493984,18.3508999 80.4198043,18.039703 C80.5941549,17.8874132 80.814208,17.7962024 81.0460312,17.7801354 C81.5983398,17.6855909 82.0833101,17.3610197 82.3781867,16.8885769 C82.6907722,16.4412778 82.8020972,15.8854741 82.6856072,15.353742 C82.6274358,15.1564701 82.6844421,14.9434948 82.8336245,14.80075 C82.9835693,14.6632285 83.1944476,14.6120401 83.3915357,14.6653234 C84.4618145,14.9813188 85.6004089,14.0107615 86.4771266,13.1304885 L86.4771266,13.1304885 C86.5840216,13.0236636 86.7295316,12.9635762 86.8813276,12.9635762 C87.0331236,12.9635762 87.1786336,13.0236636 87.2855286,13.1304885 C87.3312306,13.1814003 87.3695522,13.2383759 87.3993881,13.2997718 C87.9226117,13.4724627 88.4596785,13.6008263 89.0048062,13.6834805 L89.2097532,13.6834805 C89.4289397,13.761341 89.6330448,13.8758536 89.8132083,14.022047 L89.8132083,14.022047 C90.1653059,14.3692693 90.3932168,14.8210719 90.4622071,15.3085998 C90.6629353,16.6647546 90.608892,18.0460104 90.3028039,19.3826836 C89.8592603,21.674441 89.269808,23.9360728 88.5379825,26.154014 L88.3216496,26.8537181 C87.3424584,30.0926711 86.2721796,33.3316242 85.1335852,36.5028639 C84.8419919,37.2327847 84.1580892,37.7357224 83.3687639,37.8007022 C81.5739998,37.9745375 79.7656355,37.6543232 78.1426155,36.8752871 L76.7421444,44.3914638 C76.7344936,44.5551689 76.6568,44.7078787 76.5285451,44.8113017 C76.4002901,44.9147246 76.233637,44.9590525 76.0703736,44.9331702 L76.0703736,44.9331702 Z M66.6428119,36.8865726 C66.6428119,37.1009981 67.0754778,38.1731254 69.9219638,40.644661 C71.5098674,42.1569186 73.4744916,43.2240399 75.6149359,43.7369019 L77.0837227,35.9047297 C77.1186509,35.689678 77.2801349,35.5162795 77.4936167,35.4645932 C77.7061168,35.4085788 77.9321633,35.47887 78.0742998,35.6451621 C79.5676042,36.5410577 81.3121788,36.9367538 83.0499574,36.7737171 C83.550939,36.6834327 83.8583595,36.4915783 83.960833,36.2094396 C85.0994274,33.060771 86.1469342,29.8218179 87.1261254,26.605436 L87.3424584,25.9057318 C88.0579017,23.7315577 88.6359104,21.5152919 89.0731219,19.2698281 C89.3529901,18.0712981 89.4108594,16.8323432 89.243911,15.6133097 C89.1528235,15.2070298 89.0958938,15.0490321 88.9820343,14.9587477 L88.9820343,14.9587477 C88.9049287,14.8938111 88.8160538,14.8440204 88.7201576,14.8120356 C88.0693908,14.7117207 87.429152,14.5530723 86.807319,14.3380424 C86.022132,15.2260339 84.9372415,15.7998079 83.755886,15.9518762 C83.733928,16.539461 83.5487465,17.1096334 83.2207466,17.5995666 C82.7623543,18.3106406 82.0297762,18.8042382 81.1940485,18.9651182 L81.1940485,18.9651182 C81.4614353,20.0929445 81.1789548,21.2797665 80.4311903,22.1702146 C80.0029132,22.6395521 79.4444681,22.9732351 78.8257721,23.1294864 C78.5262884,23.2071991 78.2416678,23.3330054 77.9832123,23.5019096 C77.6480262,23.7937405 77.3667546,24.1412752 77.1520383,24.5288947 C76.9492988,24.84764 76.7208322,25.1495762 76.4688817,25.4317387 C74.7930818,27.4584502 72.1966937,28.5073829 69.5689995,28.2192697 L66.6428119,36.8865726 Z" id="形状" fill="#231F20"></path>
                        <path d="M84.5422535,33.705298 C82.6828803,33.5386035 81.2213135,32.0743897 81.0915493,30.2483444" id="路径" fill="#FFFFFF"></path>
                        <path d="M84.7328196,34.5695364 L84.7328196,34.5695364 C82.3217099,34.3839761 80.4099147,32.4785529 80.2357929,30.0874983 C80.1851753,29.75299 80.4176997,29.4411416 80.7551506,29.3909653 C81.0926016,29.3407891 81.4071934,29.5712857 81.4578111,29.905794 C81.5422368,31.7217422 82.9673205,33.1964934 84.7939205,33.3581748 C85.1313715,33.3581748 85.4049296,33.6293473 85.4049296,33.9638556 C85.4049296,34.2983639 85.1313715,34.5695364 84.7939205,34.5695364 L84.7328196,34.5695364 Z" id="路径" fill="#231F20"></path>
                        <path d="M80.1623342,26.2578482 C80.3020542,25.3935542 80.2207911,24.5040299 79.9274461,23.6867122 C79.7753628,23.0327345 79.538063,22.4058784 79.2227819,21.8252562 C78.8922132,21.2400663 78.3411703,20.844022 77.7173631,20.7432849 C77.1631938,20.7200224 76.6265608,20.9573132 76.2439744,21.3947945 C75.8605365,21.8291415 75.5753838,22.3549788 75.4111894,22.9304957 C74.6295033,25.4584733 75.1465487,28.2488968 76.7671341,30.2483444 L76.6496901,30.0040283" id="路径" fill="#FFFFFF"></path>
                        <path d="M76.637395,30.2483444 C76.4681556,30.251113 76.3054977,30.1854382 76.1893612,30.0673565 C74.2878997,27.9498104 73.6918836,25.0276599 74.6212428,22.3791774 C74.8322717,21.74483 75.1911182,21.164871 75.6705852,20.6832556 C76.2159448,20.136912 76.9815008,19.8440907 77.76927,19.8805193 C78.6413391,19.986282 79.4169344,20.4641053 79.8797451,21.180726 C80.2590256,21.7943422 80.5448857,22.4567991 80.7286513,23.1479953 C81.089856,24.0401205 81.1837837,25.0113117 80.9998297,25.9519195 C80.9083734,26.2520819 80.5840809,26.4276319 80.2688272,26.3476346 C79.9574249,26.2650268 79.7733868,25.9574478 79.8561644,25.6579597 C79.9829419,24.9216183 79.8931161,24.1659648 79.5967764,23.4758736 C79.4516887,22.8866653 79.2131006,22.3223178 78.8893546,21.802564 C78.6357218,21.386308 78.2049956,21.0971823 77.7103182,21.0111338 C77.2633382,20.9940331 76.8314797,21.1679646 76.5312818,21.4859919 C76.1489986,21.849856 75.8621158,22.2954417 75.6941659,22.7861987 C74.9688825,24.876197 75.3469623,27.1737676 76.7081372,28.9480481 C76.8350272,28.999085 76.9393023,29.0910781 77.0028963,29.2080894 L77.1325903,29.4568246 C77.2552668,29.7129145 77.1711842,30.0164605 76.9321541,30.1804179 C76.8401668,30.2231879 76.7396054,30.2463314 76.637395,30.2483444 L76.637395,30.2483444 Z" id="路径" fill="#231F20"></path>
                        <path d="M77.6408451,35.980616 C76.2005822,34.9901278 75.0724904,33.6000755 74.3915803,31.9768212 C74.3915803,31.9768212 73.1235746,37.0475297 76.9502348,39.7549669 L77.6408451,35.980616 Z" id="路径" fill="#231F20"></path>
                        <path d="M76.458953,40.6191898 C76.3485168,40.6200484 76.2405501,40.5851135 76.149993,40.5192035 C72.3039736,37.708926 73.4865447,32.6104384 73.5398137,32.3993899 C73.5970423,32.1575312 73.801728,31.9849881 74.0405419,31.9772929 C74.2794081,31.9669662 74.494477,32.1271335 74.5625778,32.3660664 C75.1657346,33.8157666 76.1524045,35.0563927 77.4071406,35.9427832 C77.5838989,36.0677778 77.6719627,36.2907613 77.6308703,36.5092819 L76.9809889,40.1637534 C76.9479067,40.3482584 76.827679,40.5028583 76.6613751,40.5747426 C76.5977017,40.6044006 76.5286906,40.6195484 76.458953,40.6191898 L76.458953,40.6191898 Z M74.3921171,34.4321202 C74.3209138,36.1555455 74.938101,37.8326396 76.0967241,39.0640796 L76.5228758,36.6758991 C75.710385,36.041616 74.99236,35.2855054 74.3921171,34.4321202 Z" id="形状" fill="#231F20"></path>
                        <ellipse id="椭圆形" fill="#231F20" transform="translate(85.163981, 22.176611) rotate(-71.510000) translate(-85.163981, -22.176611) " cx="85.1639808" cy="22.1766108" rx="1.20276682" ry="1"></ellipse>
                        <path d="M80.8085013,44.2717026 C80.2844221,42.6716105 70.0816033,30.3103357 62.66644,33.3076913 C55.2512766,36.3050469 39.6404064,59.0443838 35.3697183,69.4449824 L63.3800797,82.9668874 C63.3800797,82.9668874 83.7076629,53.0834774 80.8085013,44.2717026 Z" id="路径" fill="#00A39B"></path>
                        <path d="M68.1514085,60.7679625 C68.1514085,60.7679625 70.7104787,74.7904291 80.3967842,78.9014333 C90.0830896,83.0124376 111.285211,77.2119795 111.285211,77.2119795 L111.285211,66.5458945 C111.285211,66.5458945 98.0296762,71.8282534 91.5309846,66.5458945 C85.032293,61.2635356 80.3967842,44.0761589 80.3967842,44.0761589 L68.1514085,60.7679625 Z" id="路径" fill="#00A39B"></path>
                        <path d="M48.3809389,133.956954 C48.3809389,133.956954 44.9352595,140.020146 45.8885641,140.607621 C46.8418688,141.195097 61.5664057,140.72955 61.2448089,139.898217 C60.9232122,139.066883 54.9507011,134.743949 54.9507011,134.743949 L48.3809389,133.956954 Z" id="路径" fill="#231F20"></path>
                        <path d="M49.7104144,141.697595 C48.223242,141.808594 46.7286626,141.67283 45.2819467,141.295324 C44.9204392,141.070526 43.8585107,140.372469 47.541369,133.403725 C47.6535493,133.191653 47.8760294,133.070491 48.1062246,133.096106 L54.5568753,133.959804 C54.6545515,133.970023 54.747999,134.006723 54.828006,134.066288 C56.6355438,135.486066 60.8832577,138.881702 61.210874,139.82822 C61.3092771,140.115769 61.2177392,140.436926 60.9849318,140.62093 C60.2619166,141.224336 54.1275851,141.697595 49.7104144,141.697595 Z M45.9597734,140.325143 C47.439695,140.762908 57.3698561,140.325143 59.8213293,139.840052 C58.0515045,138.163431 56.2000713,136.58379 54.2744475,135.107458 L48.3434639,134.32658 C47.0894846,136.752035 45.9032879,139.567928 45.9597734,140.325143 Z" id="形状" fill="#231F20"></path>
                        <path d="M36.7334702,163.34106 C36.7334702,163.34106 35.8235562,169.755907 36.4560574,170.10983 C37.0885586,170.463752 52.4572282,170.19831 51.7359549,169.003822 C51.0146816,167.809333 42.9364206,164.458128 42.9364206,164.458128 L36.7334702,163.34106 Z" id="路径" fill="#231F20"></path>
                        <path d="M40.0351211,171.099777 C38.6516269,171.155623 37.2655614,171.091009 35.8949423,170.906775 C35.5729284,170.735217 34.8943991,170.38138 35.8949423,163.79786 C35.9222535,163.657528 36.0041569,163.531531 36.1249523,163.444023 C36.251646,163.360143 36.4083833,163.325532 36.5619711,163.347522 L43.0022493,164.419756 C43.0398966,164.410182 43.079607,164.410182 43.1172543,164.419756 C45.1298412,165.181043 51.7426269,167.77585 52.5246606,169.051809 C52.6965884,169.329545 52.6392854,169.681265 52.3866547,169.898875 C51.4551144,170.778107 44.6123189,171.099777 40.0351211,171.099777 Z M36.5849721,169.995376 C38.1030377,170.1991 48.8675027,169.995376 51.213604,169.287701 C48.5193212,167.771569 45.6868976,166.479886 42.7492384,165.427657 L36.99899,164.505535 C36.6625884,166.317838 36.5200495,168.156808 36.5734716,169.995376 L36.5849721,169.995376 Z" id="形状" fill="#231F20"></path>
                        <path d="M53.0508473,99.3874172 L52.9136311,99.3874172 C52.2618541,99.1579288 37.0765937,93.7770745 32.9486728,90.6449353 C32.7623743,90.5023667 32.726538,90.2352607 32.86863,90.0483374 C33.010722,89.8614141 33.2769351,89.8254575 33.4632335,89.9680261 C37.4882423,93.008381 53.0394126,98.5154388 53.1994982,98.5728039 C53.4220523,98.6538291 53.5389972,98.8987066 53.4624959,99.1235097 C53.3897646,99.2857576 53.2281455,99.3893606 53.0508473,99.3874172 L53.0508473,99.3874172 Z" id="路径" fill="#FFFFFF"></path>
                        <path d="M92.0883435,81.2384106 C90.210382,81.2384106 88.1627253,81.1609812 85.9453732,80.9729385 C71.8946014,79.8004367 65.8081962,58.6179744 65.5819357,57.7441286 C65.5027325,57.4450553 65.684292,57.1393259 65.9892045,57.0583257 C66.2888747,56.9806665 66.5966407,57.153325 66.6792988,57.4454725 C66.6792988,57.6556379 72.810956,78.7827936 86.0811294,79.8999887 C99.5662503,81.0061225 106.976279,78.0195612 107.044157,77.9863772 C107.334695,77.8709883 107.666297,78.0036257 107.790816,78.2850333 C107.909348,78.5630246 107.778592,78.8826438 107.496678,79.0040203 C107.202539,79.092511 101.941985,81.2384106 92.0883435,81.2384106 Z" id="路径" fill="#231F20"></path>
                        <path d="M89.2180851,63.9536424 C89.0499473,63.9512412 88.8916012,63.8727219 88.7861092,63.739438 C87.3904945,61.935612 81.5422044,50.2107425 80.766863,45.9830252 C80.4963945,43.953324 79.4789829,42.1038171 77.9202521,40.8082991 C77.7423087,40.7049829 77.6349332,40.5101242 77.6410969,40.3017048 C77.6472606,40.0932855 77.7659566,39.9053533 77.9496832,39.8131179 C78.1334098,39.7208826 78.352153,39.7394119 78.5183727,39.8612904 C80.3440986,41.3157817 81.5370355,43.4406658 81.8412647,45.7800947 C82.5944536,49.8274295 88.3873621,61.417012 89.5946796,63.0404554 C89.6881534,63.1560896 89.7315025,63.3053936 89.7147977,63.4541689 C89.6980928,63.6029441 89.6227653,63.7384431 89.5060691,63.8296293 C89.4234515,63.8977253 89.3236321,63.94071 89.2180851,63.9536424 Z" id="路径" fill="#231F20"></path>
                    </g>
                </g>
            </g>
        </g>
    </g>
</svg>
