<?xml version="1.0" encoding="UTF-8"?>
<svg width="24px" height="25px" viewBox="0 0 24 25" version="1.1" xmlns="http://www.w3.org/2000/svg" xmlns:xlink="http://www.w3.org/1999/xlink">
    <g id="页面-1" stroke="none" stroke-width="1" fill="none" fill-rule="evenodd" opacity="0.300000012">
        <g id="状态说明" transform="translate(-1327.000000, -304.000000)" fill="#26292E">
            <g id="搜索/带删除" transform="translate(1123.000000, 301.000000)">
                <g id="icon/16/箭头备份-11" transform="translate(204.000000, 4.000000)">
                    <path d="M17.1756999,7.28284271 L17.4671573,7.57430014 C17.623367,7.73050986 17.623367,7.98377585 17.4671573,8.13998557 L8.88998557,16.7171573 C8.73377585,16.873367 8.48050986,16.873367 8.32430014,16.7171573 L8.03284271,16.4256999 C7.876633,16.2694901 7.876633,16.0162241 8.03284271,15.8600144 L16.6100144,7.28284271 C16.7662241,7.126633 17.0194901,7.126633 17.1756999,7.28284271 Z" id="矩形"></path>
                    <path d="M8.32430014,7.28284271 L8.03284271,7.57430014 C7.876633,7.73050986 7.876633,7.98377585 8.03284271,8.13998557 L16.6100144,16.7171573 C16.7662241,16.873367 17.0194901,16.873367 17.1756999,16.7171573 L17.4671573,16.4256999 C17.623367,16.2694901 17.623367,16.0162241 17.4671573,15.8600144 L8.88998557,7.28284271 C8.73377585,7.126633 8.48050986,7.126633 8.32430014,7.28284271 Z" id="矩形"></path>
                </g>
            </g>
        </g>
    </g>
</svg>
