<?xml version="1.0" encoding="UTF-8"?>
<svg width="40px" height="40px" viewBox="0 0 40 40" version="1.1" xmlns="http://www.w3.org/2000/svg" xmlns:xlink="http://www.w3.org/1999/xlink">
    <g id="智慧运营v1.3" stroke="none" stroke-width="1" fill="none" fill-rule="evenodd">
        <g id="内容中心-图片预览" transform="translate(-1344.000000, -56.000000)" fill="#FAFBFC">
            <g id="icon/24/添加备份-10" transform="translate(1344.000000, 56.000000)">
                <path d="M27.4246702,12.1380712 L27.9104326,12.6238336 C28.1707821,12.8841831 28.1707821,13.3062931 27.9104326,13.5666426 L13.6151464,27.8619288 C13.3547969,28.1222783 12.9326869,28.1222783 12.6723373,27.8619288 L12.186575,27.3761664 C11.9262254,27.1158169 11.9262254,26.6937069 12.186575,26.4333574 L26.4818612,12.1380712 C26.7422107,11.8777217 27.1643207,11.8777217 27.4246702,12.1380712 Z" id="矩形"></path>
                <path d="M12.6723373,12.1380712 L12.186575,12.6238336 C11.9262254,12.8841831 11.9262254,13.3062931 12.186575,13.5666426 L26.4818612,27.8619288 C26.7422107,28.1222783 27.1643207,28.1222783 27.4246702,27.8619288 L27.9104326,27.3761664 C28.1707821,27.1158169 28.1707821,26.6937069 27.9104326,26.4333574 L13.6151464,12.1380712 C13.3547969,11.8777217 12.9326869,11.8777217 12.6723373,12.1380712 Z" id="矩形"></path>
            </g>
        </g>
    </g>
</svg>