<?xml version="1.0" encoding="UTF-8"?>
<svg width="321px" height="201px" viewBox="0 0 321 201" version="1.1" xmlns="http://www.w3.org/2000/svg" xmlns:xlink="http://www.w3.org/1999/xlink">
    <defs>
        <polygon id="path-1" points="0.5 0.5 320.5 0.5 320.5 200.5 0.5 200.5"></polygon>
    </defs>
    <g id="页面-1" stroke="none" stroke-width="1" fill="none" fill-rule="evenodd">
        <g id="看板空" transform="translate(-658.000000, -364.000000)">
            <g id="编组" transform="translate(658.000000, 364.000000)">
                <g>
                    <mask id="mask-2" fill="white">
                        <use xlink:href="#path-1"></use>
                    </mask>
                    <g id="Clip-2"></g>
                    <polygon id="Stroke-1" stroke="#DBDBDB" mask="url(#mask-2)" points="-4.5 205.5 325.5 205.5 325.5 -4.5 -4.5 -4.5"></polygon>
                </g>
                <polygon id="Stroke-3" points="0.5 200.5 320.5 200.5 320.5 0.5 0.5 0.5"></polygon>
                <g transform="translate(49.000000, 19.000000)">
                    <path d="M112.8643,109.0474 C97.8133,109.0474 83.4643,107.6124 70.3543,105.0004 C83.4643,102.3874 97.8133,100.9524 112.8643,100.9524 C127.9163,100.9524 142.2643,102.3874 155.3743,105.0004 C142.2643,107.6124 127.9163,109.0474 112.8643,109.0474 Z" id="Stroke-4" stroke="#DBDBDB" stroke-width="2"></path>
                    <path d="M112.8643,109.0474 C97.8133,109.0474 83.4643,107.6124 70.3543,105.0004 C83.4643,102.3874 97.8133,100.9524 112.8643,100.9524 C127.9163,100.9524 142.2643,102.3874 155.3743,105.0004 C142.2643,107.6124 127.9163,109.0474 112.8643,109.0474 Z" id="Stroke-6" stroke="#DBDBDB" stroke-width="2"></path>
                    <path d="M112.8643,109.0474 C97.8133,109.0474 83.4643,107.6124 70.3543,105.0004 C83.4643,102.3874 97.8133,100.9524 112.8643,100.9524 C127.9163,100.9524 142.2643,102.3874 155.3743,105.0004 C142.2643,107.6124 127.9163,109.0474 112.8643,109.0474 Z" id="Stroke-8" stroke="#DBDBDB" stroke-width="2"></path>
                    <path d="M1.582,98.5571 C1.74,97.9121 1.922,97.2701 2.126,96.6321 C2.328,97.2631 2.553,97.8901 2.799,98.5141" id="Stroke-10" stroke="#EBF2FF" stroke-width="2"></path>
                    <path d="M4.4658,102.082 C4.9988,103.067 5.5868,104.04 6.2278,105 C8.1778,107.909 10.6108,110.708 13.4958,113.368 C16.6938,116.331 20.4368,119.131 24.6628,121.743 C45.1818,134.4 77.0618,142.534 112.8638,142.534 C148.6678,142.534 180.5478,134.4 201.0658,121.743 C205.2928,119.131 209.0358,116.331 212.2338,113.368 C215.1178,110.708 217.5518,107.909 219.5008,105 C220.5218,103.471 221.4068,101.91 222.1508,100.322" id="Stroke-12" stroke="#EBF2FF" stroke-width="2" stroke-dasharray="3.94,3.94"></path>
                    <path d="M222.9307,98.5137 C223.1767,97.8897 223.4017,97.2627 223.6037,96.6327 C223.8077,97.2707 223.9887,97.9117 224.1467,98.5567" id="Stroke-14" stroke="#EBF2FF" stroke-width="2"></path>
                    <path d="M224.8096,102.4722 C224.8886,103.3102 224.9286,104.1522 224.9286,105.0002 C224.9286,107.8472 224.4766,110.6462 223.6036,113.3752 C222.6836,116.2452 221.3026,119.0452 219.5006,121.7432 C217.5516,124.6522 215.1186,127.4442 212.2416,130.1112 C193.5246,147.4472 156.0446,159.2772 112.8646,159.2772 C69.6846,159.2772 32.2056,147.4472 13.4886,130.1112 C10.6106,127.4442 8.1776,124.6522 6.2276,121.7432 C4.4266,119.0452 3.0456,116.2452 2.1256,113.3752 C1.2516,110.6462 0.7996,107.8472 0.7996,105.0002 C0.7996,103.4862 0.9276,101.9882 1.1786,100.5062" id="Stroke-16" stroke="#EBF2FF" stroke-width="2" stroke-dasharray="3.975,3.975"></path>
                    <path d="M1.582,115.3003 C1.74,114.6553 1.922,114.0133 2.126,113.3753 C2.328,114.0063 2.553,114.6333 2.799,115.2573" id="Stroke-18" stroke="#EBF2FF" stroke-width="2"></path>
                    <path d="M4.4668,118.8257 C4.9988,119.8097 5.5868,120.7837 6.2278,121.7427 C8.1778,124.6527 10.6108,127.4447 13.4878,130.1117 C32.2048,147.4477 69.6848,159.2777 112.8638,159.2777 C156.0448,159.2777 193.5248,147.4477 212.2408,130.1117 C215.1178,127.4447 217.5518,124.6527 219.5008,121.7427 C220.5218,120.2147 221.4068,118.6537 222.1508,117.0657" id="Stroke-20" stroke="#EBF2FF" stroke-width="2" stroke-dasharray="3.94,3.94"></path>
                    <path d="M222.9307,115.2573 C223.1767,114.6333 223.4017,114.0063 223.6037,113.3753 C223.8077,114.0133 223.9887,114.6553 224.1467,115.3003" id="Stroke-22" stroke="#EBF2FF" stroke-width="2"></path>
                    <path d="M224.8096,119.2153 C224.8886,120.0533 224.9286,120.8963 224.9286,121.7433 C224.9286,124.5903 224.4766,127.3893 223.6036,130.1193 C222.6836,132.9883 221.3026,135.7883 219.5006,138.4863 C204.9256,160.2683 162.6896,176.0133 112.8646,176.0133 C63.0396,176.0133 20.8026,160.2683 6.2276,138.4863 C4.4266,135.7883 3.0456,132.9883 2.1256,130.1193 C1.2516,127.3893 0.7996,124.5903 0.7996,121.7433 C0.7996,120.2293 0.9276,118.7313 1.1786,117.2503" id="Stroke-24" stroke="#EBF2FF" stroke-width="2" stroke-dasharray="3.975,3.975"></path>
                    <path d="M112.8643,109.0474 C97.8133,109.0474 83.4643,107.6124 70.3543,105.0004 C83.4643,102.3874 97.8133,100.9524 112.8643,100.9524 C127.9163,100.9524 142.2643,102.3874 155.3743,105.0004 C142.2643,107.6124 127.9163,109.0474 112.8643,109.0474 Z" id="Stroke-26" stroke="#DBDBDB" stroke-width="2"></path>
                    <path d="M112.8643,109.0474 C97.8133,109.0474 83.4643,107.6124 70.3543,105.0004 C83.4643,102.3874 97.8133,100.9524 112.8643,100.9524 C127.9163,100.9524 142.2643,102.3874 155.3743,105.0004 C142.2643,107.6124 127.9163,109.0474 112.8643,109.0474 Z" id="Stroke-28" stroke="#DBDBDB" stroke-width="2"></path>
                    <path d="M1.582,81.8135 C1.74,81.1685 1.922,80.5265 2.126,79.8885 C2.328,80.5195 2.553,81.1465 2.799,81.7705" id="Stroke-30" stroke="#EBF2FF" stroke-width="2"></path>
                    <path d="M4.4668,85.3389 C4.9988,86.3229 5.5868,87.2969 6.2278,88.2569 C8.1778,91.1659 10.6108,93.9649 13.4958,96.6319 C16.6938,99.5959 20.4368,102.3959 24.6628,104.9999 C29.6468,108.0729 35.2928,110.8799 41.5158,113.3759 C60.8958,121.1279 85.7568,125.7909 112.8638,125.7909 C139.9728,125.7909 164.8338,121.1279 184.2128,113.3759 C190.4368,110.8799 196.0818,108.0729 201.0658,104.9999 C205.2928,102.3959 209.0358,99.5959 212.2338,96.6319 C215.1178,93.9649 217.5518,91.1659 219.5008,88.2569 C220.5218,86.7279 221.4068,85.1669 222.1508,83.5789" id="Stroke-32" stroke="#EBF2FF" stroke-width="2" stroke-dasharray="3.94,3.94"></path>
                    <path d="M222.9307,81.7705 C223.1767,81.1465 223.4017,80.5195 223.6037,79.8885 C223.8077,80.5265 223.9887,81.1685 224.1467,81.8135" id="Stroke-34" stroke="#EBF2FF" stroke-width="2"></path>
                    <path d="M224.8096,85.7285 C224.8886,86.5665 224.9286,87.4095 224.9286,88.2565 C224.9286,91.1035 224.4766,93.9025 223.6036,96.6325 C222.6836,99.5015 221.3026,102.3015 219.5006,104.9995 C217.5516,107.9085 215.1186,110.7085 212.2336,113.3675 C209.0366,116.3315 205.2926,119.1305 201.0656,121.7435 C180.5476,134.4005 148.6676,142.5345 112.8646,142.5345 C77.0616,142.5345 45.1816,134.4005 24.6636,121.7435 C20.4366,119.1305 16.6936,116.3315 13.4966,113.3675 C10.6106,110.7085 8.1776,107.9085 6.2276,104.9995 C4.4266,102.3015 3.0456,99.5015 2.1256,96.6325 C1.2516,93.9025 0.7996,91.1035 0.7996,88.2565 C0.7996,86.7435 0.9276,85.2445 1.1786,83.7635" id="Stroke-36" stroke="#EBF2FF" stroke-width="2" stroke-dasharray="3.975,3.975"></path>
                    <path d="M1.582,65.0703 C1.74,64.4253 1.922,63.7833 2.126,63.1453 C2.326,63.7773 2.55,64.4043 2.796,65.0283" id="Stroke-38" stroke="#EBF2FF" stroke-width="2"></path>
                    <path d="M4.4629,68.5962 C4.9959,69.5792 5.5849,70.5522 6.2279,71.5132 C8.1699,74.4222 10.6099,77.2142 13.4879,79.8882 C16.6859,82.8442 20.4289,85.6522 24.6629,88.2572 C29.6469,91.3292 35.2929,94.1372 41.5159,96.6322 C50.1339,100.0792 59.8429,102.9182 70.3549,105.0002 C83.4639,107.6122 97.8139,109.0472 112.8639,109.0472 C127.9159,109.0472 142.2649,107.6122 155.3739,105.0002 C165.8869,102.9182 175.5959,100.0792 184.2129,96.6322 C190.4369,94.1372 196.0819,91.3292 201.0659,88.2572 C205.3009,85.6522 209.0439,82.8442 212.2409,79.8882 C215.1179,77.2142 217.5599,74.4222 219.5009,71.5132 C220.5249,69.9812 221.4119,68.4222 222.1539,66.8372" id="Stroke-40" stroke="#EBF2FF" stroke-width="2" stroke-dasharray="3.94,3.94"></path>
                    <path d="M222.9336,65.0283 C223.1796,64.4043 223.4026,63.7773 223.6036,63.1453 C223.8076,63.7833 223.9886,64.4253 224.1466,65.0703" id="Stroke-42" stroke="#EBF2FF" stroke-width="2"></path>
                    <path d="M224.8096,68.9854 C224.8886,69.8234 224.9286,70.6654 224.9286,71.5134 C224.9286,74.3594 224.4766,77.1594 223.6036,79.8884 C222.6836,82.7584 221.3026,85.5584 219.5006,88.2564 C217.5516,91.1654 215.1186,93.9644 212.2336,96.6324 C209.0366,99.5954 205.2926,102.3954 201.0656,105.0004 C196.0816,108.0724 190.4366,110.8804 184.2126,113.3754 C164.8336,121.1274 139.9726,125.7914 112.8646,125.7914 C85.7566,125.7914 60.8956,121.1274 41.5156,113.3754 C35.2926,110.8804 29.6466,108.0724 24.6636,105.0004 C20.4366,102.3954 16.6936,99.5954 13.4966,96.6324 C10.6106,93.9644 8.1776,91.1654 6.2276,88.2564 C4.4266,85.5584 3.0456,82.7584 2.1256,79.8884 C1.2516,77.1594 0.7996,74.3594 0.7996,71.5134 C0.7996,69.9994 0.9276,68.5014 1.1786,67.0194" id="Stroke-44" stroke="#EBF2FF" stroke-width="2" stroke-dasharray="3.975,3.975"></path>
                    <path d="M155.374,105 C142.265,107.612 127.916,109.047 112.864,109.047 C97.813,109.047 83.464,107.612 70.354,105 C83.464,102.388 97.813,100.953 112.864,100.953 C127.916,100.953 142.265,102.388 155.374,105 Z" id="Stroke-46" stroke="#DBDBDB" stroke-width="2"></path>
                    <path d="M224.9287,54.7778 C224.9287,57.6238 224.4767,60.4158 223.6037,63.1458 C215.2977,37.1448 168.8807,17.2428 112.8647,17.2428 C56.8477,17.2428 10.4317,37.1448 2.1257,63.1458 C1.2517,60.4158 0.7997,57.6238 0.7997,54.7778 C0.7997,24.7998 50.9757,0.4998 112.8647,0.4998 C174.7537,0.4998 224.9287,24.7998 224.9287,54.7778 Z" id="Stroke-48" stroke="#C9DDFF" stroke-width="2"></path>
                    <path d="M223.6035,63.1455 C222.6915,66.0155 221.3105,68.8075 219.5005,71.5135 C204.9255,49.7315 162.6895,33.9865 112.8645,33.9865 C63.0405,33.9865 20.8025,49.7315 6.2275,71.5135 C4.4185,68.8075 3.0385,66.0155 2.1255,63.1455 C10.4315,37.1455 56.8475,17.2435 112.8645,17.2435 C168.8805,17.2435 215.2975,37.1455 223.6035,63.1455 Z" id="Stroke-50" stroke="#C9DDFF" stroke-width="2"></path>
                    <path d="M219.501,71.5132 C217.56,74.4222 215.118,77.2142 212.241,79.8882 C193.524,62.5532 156.045,50.7222 112.864,50.7222 C69.685,50.7222 32.205,62.5532 13.488,79.8882 C10.61,77.2142 8.17,74.4222 6.228,71.5132 C20.803,49.7322 63.04,33.9872 112.864,33.9872 C162.689,33.9872 204.926,49.7322 219.501,71.5132 Z" id="Stroke-52" stroke="#C9DDFF" stroke-width="2"></path>
                    <path d="M212.2412,79.8887 C209.0442,82.8447 205.3002,85.6517 201.0652,88.2567 C180.5482,75.5997 148.6672,67.4657 112.8642,67.4657 C77.0612,67.4657 45.1812,75.5997 24.6632,88.2567 C20.4292,85.6517 16.6852,82.8447 13.4882,79.8887 C32.2052,62.5527 69.6842,50.7217 112.8642,50.7217 C156.0452,50.7217 193.5242,62.5527 212.2412,79.8887 Z" id="Stroke-54" stroke="#C9DDFF" stroke-width="2"></path>
                    <path d="M201.0654,88.2563 C196.0824,91.3293 190.4364,94.1363 184.2124,96.6323 C164.8344,88.8723 139.9724,84.2093 112.8644,84.2093 C85.7564,84.2093 60.8954,88.8723 41.5154,96.6323 C35.2934,94.1363 29.6464,91.3293 24.6634,88.2563 C45.1814,75.5993 77.0614,67.4653 112.8644,67.4653 C148.6674,67.4653 180.5474,75.5993 201.0654,88.2563 Z" id="Stroke-56" stroke="#C9DDFF" stroke-width="2"></path>
                    <path d="M184.2129,96.6323 C175.5959,100.0793 165.8869,102.9183 155.3739,105.0003 C142.2649,102.3873 127.9159,100.9523 112.8639,100.9523 C97.8139,100.9523 83.4639,102.3873 70.3549,105.0003 C59.8429,102.9183 50.1339,100.0793 41.5159,96.6323 C60.8959,88.8723 85.7569,84.2093 112.8639,84.2093 C139.9729,84.2093 164.8339,88.8723 184.2129,96.6323 Z" id="Stroke-58" stroke="#C9DDFF" stroke-width="2"></path>
                    <path d="M155.374,105 C142.265,107.612 127.916,109.047 112.864,109.047 C97.813,109.047 83.464,107.612 70.354,105 C83.464,102.388 97.813,100.953 112.864,100.953 C127.916,100.953 142.265,102.388 155.374,105 Z" id="Stroke-60" stroke="#C9DDFF" stroke-width="2"></path>
                    <path d="M140.8545,72.0107 L140.8545,41.6767 C140.8545,40.9617 140.4735,40.3017 139.8545,39.9437 L113.5835,24.7767 C112.9655,24.4197 112.2035,24.4197 111.5835,24.7767 L85.3145,39.9437 C84.6955,40.3017 84.3145,40.9617 84.3145,41.6767 L84.3145,72.0107 C84.3145,72.7247 84.6955,73.3857 85.3145,73.7427 L111.5835,88.9097 C112.2035,89.2667 112.9655,89.2667 113.5835,88.9097 L139.8545,73.7427 C140.4735,73.3857 140.8545,72.7247 140.8545,72.0107" id="Fill-62" fill="#FFFFFF"></path>
                    <path d="M140.8545,72.0107 L140.8545,41.6767 C140.8545,40.9617 140.4735,40.3017 139.8545,39.9437 L113.5835,24.7767 C112.9655,24.4197 112.2035,24.4197 111.5835,24.7767 L85.3145,39.9437 C84.6955,40.3017 84.3145,40.9617 84.3145,41.6767 L84.3145,72.0107 C84.3145,72.7247 84.6955,73.3857 85.3145,73.7427 L111.5835,88.9097 C112.2035,89.2667 112.9655,89.2667 113.5835,88.9097 L139.8545,73.7427 C140.4735,73.3857 140.8545,72.7247 140.8545,72.0107 Z" id="Stroke-64" stroke="#C9DDFF" stroke-width="2"></path>
                    <g transform="translate(112.000000, 23.000000)">
                        <line x1="0.8643" y1="0.8955" x2="0.8643" y2="66.4025" id="Fill-66" fill="#FFFFFF"></line>
                        <line x1="0.8643" y1="0.8955" x2="0.8643" y2="66.4025" id="Stroke-68" stroke="#C9DDFF" stroke-width="2"></line>
                    </g>
                    <g transform="translate(84.000000, 40.000000)">
                        <line x1="0.0098" y1="0.2725" x2="56.9398" y2="31.4665" id="Fill-69" fill="#FFFFFF"></line>
                        <line x1="0.0098" y1="0.2725" x2="56.9398" y2="31.4665" id="Stroke-71" stroke="#C9DDFF" stroke-width="2"></line>
                    </g>
                    <g transform="translate(84.000000, 40.000000)">
                        <line x1="56.9395" y1="0.2725" x2="0.0095" y2="31.4665" id="Fill-72" fill="#FFFFFF"></line>
                        <line x1="56.9395" y1="0.2725" x2="0.0095" y2="31.4665" id="Stroke-74" stroke="#C9DDFF" stroke-width="2"></line>
                    </g>
                    <polygon id="Fill-75" fill="#FFFFFF" points="182.6611 134.2446 176.4231 140.4836 170.1831 134.2446 176.4231 128.0056"></polygon>
                    <polygon id="Stroke-77" stroke="#C9DDFF" stroke-width="2" points="182.6611 134.2446 176.4231 140.4836 170.1831 134.2446 176.4231 128.0056"></polygon>
                    <polygon id="Fill-79" fill="#FFFFFF" points="30.5898 88.2334 24.3518 94.4724 18.1118 88.2334 24.3518 81.9944"></polygon>
                    <polygon id="Stroke-81" stroke="#C9DDFF" stroke-width="2" points="30.5898 88.2334 24.3518 94.4724 18.1118 88.2334 24.3518 81.9944"></polygon>
                    <path d="M121.5,60.8359 L121.5,52.8509 C121.5,52.1359 121.119,51.4759 120.5,51.1189 L113.584,47.1259 C112.966,46.7689 112.203,46.7689 111.584,47.1259 L104.669,51.1189 C104.05,51.4759 103.669,52.1359 103.669,52.8509 L103.669,60.8359 C103.669,61.5509 104.05,62.2109 104.669,62.5679 L111.584,66.5609 C112.203,66.9179 112.966,66.9179 113.584,66.5609 L120.5,62.5679 C121.119,62.2109 121.5,61.5509 121.5,60.8359" id="Fill-83" fill="#FFFFFF"></path>
                    <path d="M121.5,60.8359 L121.5,52.8509 C121.5,52.1359 121.119,51.4759 120.5,51.1189 L113.584,47.1259 C112.966,46.7689 112.203,46.7689 111.584,47.1259 L104.669,51.1189 C104.05,51.4759 103.669,52.1359 103.669,52.8509 L103.669,60.8359 C103.669,61.5509 104.05,62.2109 104.669,62.5679 L111.584,66.5609 C112.203,66.9179 112.966,66.9179 113.584,66.5609 L120.5,62.5679 C121.119,62.2109 121.5,61.5509 121.5,60.8359 Z" id="Stroke-85" stroke="#C9DDFF" stroke-width="2"></path>
                </g>
            </g>
        </g>
    </g>
</svg>
