<?xml version="1.0" encoding="UTF-8"?>
<svg width="24px" height="24px" viewBox="0 0 24 24" version="1.1" xmlns="http://www.w3.org/2000/svg" xmlns:xlink="http://www.w3.org/1999/xlink">
    <title>复制</title>
    <g id="智慧运营v1.3" stroke="none" stroke-width="1" fill="none">
        <g id="用户旅程-分组" transform="translate(-1300.000000, -404.000000)">
            <g id="编组" transform="translate(56.000000, 336.000000)">
                <g id="编组-6备份" transform="translate(1224.000000, 0.000000)">
                    <g id="表格/内容单元格" transform="translate(0.000000, 48.000000)">
                        <g id="控件/按钮/icon+文字备份-4" transform="translate(20.000000, 20.000000)">
                            <path d="M16,4 C16.5522847,4 17,4.44771525 17,5 L17,7 L15.6,7 L15.6,5.4 L6.4,5.4 L6.4,14.6 L8,14.6 L8,16 L6,16 C5.44771525,16 5,15.5522847 5,15 L5,5 C5,4.44771525 5.44771525,4 6,4 L16,4 Z" id="形状结合" fill="#26292E"></path>
                            <rect id="矩形" stroke="#26292E" stroke-width="1.4" x="8.7" y="7.7" width="10.6" height="10.6" rx="1"></rect>
                            <path d="M16.0602134,12.3852397 C16.1102177,12.4335646 16.1116112,12.5114636 16.0633651,12.5614283 L13.4185788,15.3026886 C13.376819,15.3461967 13.3179876,15.3708047 13.2565298,15.3708047 L12.1974334,15.3708047 C12.075112,15.3707347 11.9759689,15.2749698 11.9758965,15.1568162 L11.9758965,14.1275909 C11.9758965,14.0717789 11.9983522,14.01825 12.0386675,13.9782937 L14.7426791,11.2944944 C14.7671806,11.270156 14.8007597,11.25632 14.8359043,11.2560754 C14.871049,11.2558432 14.904826,11.2692224 14.9296789,11.2932259 L16.0602134,12.3852397 Z M16.1920588,10.5008214 L16.8415679,11.128073 C17.0206726,11.3012215 17.0206726,11.5817954 16.8415679,11.7549439 L16.5449158,12.0622908 C16.5206388,12.0874531 16.4868238,12.1020138 16.451221,12.1026356 C16.4156182,12.1032573 16.3812804,12.089887 16.3560775,12.0655888 L15.2243611,10.9724334 C15.1804783,10.9300748 15.1801267,10.8614727 15.2235732,10.8186965 L15.5425497,10.5008214 C15.6286549,10.4175797 15.7454815,10.3708047 15.8673042,10.3708047 C15.9891693,10.3708047 16.1060441,10.4176107 16.1920588,10.5008214 Z" id="形状" fill="#26292E"></path>
                        </g>
                    </g>
                </g>
            </g>
        </g>
    </g>
</svg>
