<?xml version="1.0" encoding="UTF-8"?>
<svg width="24px" height="24px" viewBox="0 0 24 24" version="1.1" xmlns="http://www.w3.org/2000/svg" xmlns:xlink="http://www.w3.org/1999/xlink">
    <title>删除</title>
    <g id="页面-1" stroke="none" stroke-width="1" fill="none" fill-rule="evenodd">
        <g id="添加标签控件" transform="translate(-1229.000000, -303.000000)" fill="#26292E" fill-rule="nonzero">
            <g id="按钮/icon/正常" transform="translate(1229.000000, 303.000000)">
                <g id="删除" transform="translate(2.000000, 2.000000)">
                    <rect id="矩形" opacity="0" x="0" y="0" width="20" height="20"></rect>
                    <path d="M16.4,6 L3.6,6 C3.1581722,6 2.8,5.6418278 2.8,5.2 C2.8,4.7581722 3.1581722,4.4 3.6,4.4 L16.4,4.4 C16.8418278,4.4 17.2,4.7581722 17.2,5.2 C17.2,5.6418278 16.8418278,6 16.4,6 L16.4,6 Z M11.6,3.6 L8.4,3.6 C7.9581722,3.6 7.6,3.2418278 7.6,2.8 C7.6,2.3581722 7.9581722,2 8.4,2 L11.6,2 C12.0418278,2 12.4,2.3581722 12.4,2.8 C12.4,3.2418278 12.0418278,3.6 11.6,3.6 Z M7.6,14 L7.6,8.4 C7.6,7.9581722 7.9581722,7.6 8.4,7.6 C8.8418278,7.6 9.2,7.9581722 9.2,8.4 L9.2,14 C9.2,14.4418278 8.8418278,14.8 8.4,14.8 C7.9581722,14.8 7.6,14.4418278 7.6,14 Z M10.8,14 L10.8,8.4 C10.8,7.9581722 11.1581722,7.6 11.6,7.6 C12.0418278,7.6 12.4,7.9581722 12.4,8.4 L12.4,14 C12.4,14.4418278 12.0418278,14.8 11.6,14.8 C11.1581722,14.8 10.8,14.4418278 10.8,14 L10.8,14 Z M5.2,6.8 C5.6418278,6.8 6,7.1581722 6,7.6 L6,15.6 C6,16.0418278 6.3581722,16.4 6.8,16.4 L13.2,16.4 C13.6418278,16.4 14,16.0418278 14,15.6 L14,7.6 C14,7.1581722 14.3581722,6.8 14.8,6.8 C15.2418278,6.8 15.6,7.1581722 15.6,7.6 L15.6,15.6 C15.6,16.9254834 14.5254834,18 13.2,18 L6.8,18 C5.4745166,18 4.4,16.9254834 4.4,15.6 L4.4,7.6 C4.4,7.1581722 4.7581722,6.8 5.2,6.8 Z" id="形状" stroke="#FFFFFF" stroke-width="0.2"></path>
                </g>
            </g>
        </g>
    </g>
</svg>
