<?xml version="1.0" encoding="UTF-8"?>
<svg width="24px" height="24px" viewBox="0 0 24 24" version="1.1" xmlns="http://www.w3.org/2000/svg" xmlns:xlink="http://www.w3.org/1999/xlink">
    <g id="icon/24/看板分享备份" stroke="none" stroke-width="1" fill="none" fill-rule="evenodd">
        <g id="下载" transform="translate(4.000000, 3.000000)" fill="#26292E" fill-rule="nonzero">
            <rect id="矩形" opacity="0" x="0" y="0" width="16" height="16"></rect>
            <path d="M14.669622,9.98088097 L14.669622,14.2043055 C14.669622,14.6325911 14.3225773,14.9798437 13.8942917,14.9798437 L2.10612405,14.9798437 C1.67783842,14.9798437 1.330378,14.6325911 1.330378,14.2043055 L1.330378,9.98088097 C1.330378,9.55259534 1.67763056,9.20534278 2.10591619,9.20534278 C2.53420181,9.20534278 2.88145438,9.55259534 2.88145438,9.98088097 L2.88145438,13.4287673 L13.1185456,13.4287673 L13.1185456,9.98088097 C13.1185456,9.55259534 13.4657982,9.20534278 13.8940838,9.20534278 C14.3223694,9.20534278 14.669622,9.55259534 14.669622,9.98088097 Z M7.44611953,10.9535495 C7.59198862,11.1025205 7.79169323,11.1864476 8.00019188,11.1864476 C8.2087065,11.1864476 8.40834714,11.1025205 8.5542802,10.9535495 L11.6482625,7.79468322 C11.9479473,7.48869867 11.9428787,6.99770358 11.6368142,6.6979548 C11.3307657,6.39833394 10.8396747,6.40333855 10.5399899,6.70938705 L8.77553819,8.51072573 L8.77553819,1.79569452 C8.77553819,1.36740889 8.42828563,1.02015633 8,1.02015633 C7.57171437,1.02015633 7.22446181,1.36740889 7.22446181,1.79569452 L7.22446181,8.5106138 L5.46052177,6.70938703 C5.16083695,6.40340248 4.6700497,6.39841388 4.3638573,6.69795478 C4.05787275,6.99763959 4.05275622,7.4886347 4.35244103,7.7946832 L7.44611953,10.9535495 Z" id="形状"></path>
        </g>
    </g>
</svg>
