<?xml version="1.0" encoding="UTF-8"?>
<svg width="24px" height="24px" viewBox="0 0 16 16" version="1.1" xmlns="http://www.w3.org/2000/svg" xmlns:xlink="http://www.w3.org/1999/xlink">
    <g id="页面-1" stroke="" stroke-width="" >
        <g id="分析_事件分析2" transform="translate(-380.000000, -322.000000)" >
            <g id="编组-3" transform="translate(32.000000, 184.000000)">
                <g id="分析/表单备份-6" transform="translate(212.000000, 130.000000)">
                    <g id="icon/16/箭头备份-11" transform="translate(136.000000, 8.000000)">
                        <path d="M8.30989499,7.05854379 L10.2783686,9.02701742 C10.3564735,9.10512228 10.3564735,9.23175527 10.2783686,9.30986013 L9.85410455,9.7341242 C9.77598138,9.81218729 9.64937155,9.81220073 9.57123181,9.73415424 L8.16771068,8.33122921 L8.16771068,8.33122921 L6.76564558,9.73408437 C6.68760257,9.81225104 6.56096958,9.81228671 6.48284272,9.73420386 C6.48282944,9.73419058 6.48281616,9.73417731 6.48284271,9.7341242 L6.05857864,9.30986013 C5.98047379,9.23175527 5.98047379,9.10512228 6.05857864,9.02701742 L8.02705228,7.05854379 C8.10515713,6.98043893 8.23179013,6.98043893 8.30989499,7.05854379 Z" id="路径-2备份-2" transform="translate(8.168474, 8.396351) scale(1, -1) translate(-8.168474, -8.396351) "></path>
                    </g>
                </g>
            </g>
        </g>
    </g>
</svg>