<?xml version="1.0" encoding="UTF-8"?>
<svg width="24px" height="24px" viewBox="0 0 24 24" version="1.1" xmlns="http://www.w3.org/2000/svg" xmlns:xlink="http://www.w3.org/1999/xlink">
    <title>编辑</title>
    <g id="页面-1" stroke="none" stroke-width="1" fill="none" fill-rule="evenodd">
        <g id="数据管理-元事件" transform="translate(-1252.000000, -84.000000)" fill="#26292E" fill-rule="nonzero">
            <g id="按钮/（icon+文字）/默认" transform="translate(1252.000000, 84.000000)">
                <g id="编辑" transform="translate(1.000000, 1.000000)">
                    <rect id="矩形" opacity="0" x="0" y="0" width="22" height="22"></rect>
                    <path d="M13.5098333,4.24783333 C14.2846751,3.47388781 15.5399915,3.47388781 16.3148333,4.24783333 L17.7530833,5.68333333 C18.527134,6.45848949 18.527134,7.71409384 17.7530833,8.48925 L8.49108333,17.7521667 C8.11885911,18.1243355 7.61403207,18.3333333 7.08766667,18.3333333 L4.3285,18.3333333 C3.96297955,18.3333333 3.66666667,18.0370205 3.66666667,17.6715 L3.66666667,14.9123333 C3.66666667,14.3861667 3.87566667,13.8810833 4.24783333,13.5089167 L13.5098333,4.24783333 Z M15.3798333,5.18283333 C15.1214831,4.92501977 14.7031836,4.92501977 14.4448333,5.18283333 L13.2018333,6.42583333 L15.5741667,8.79816667 L16.8171667,7.55516667 C17.0749802,7.29681645 17.0749802,6.8785169 16.8171667,6.62016667 L15.3798333,5.18283333 Z M14.63825,9.73316667 L12.2668333,7.36175 L5.18375,14.4439167 C5.05948751,14.5677783 4.9895741,14.7359663 4.98941667,14.9114167 L4.98941667,17.0105833 L7.08766667,17.0105833 C7.26311709,17.0104259 7.43130502,16.9405125 7.55516667,16.81625 L14.63825,9.73316667 L14.63825,9.73316667 Z" id="形状"></path>
                </g>
            </g>
        </g>
    </g>
</svg>
