<?xml version="1.0" encoding="UTF-8"?>
<svg width="16px" height="16px" viewBox="0 0 16 16" version="1.1" xmlns="http://www.w3.org/2000/svg" xmlns:xlink="http://www.w3.org/1999/xlink">
    <g id="智慧运营v1.3" stroke="none" stroke-width="1" fill="none" fill-rule="evenodd">
        <g id="文本编辑框" transform="translate(-349.000000, -94.000000)" fill-rule="nonzero">
            <g id="内容/文本编辑框备份" transform="translate(333.000000, 86.000000)">
                <g id="icon/16/箭头备份" transform="translate(16.000000, 8.000000)">
                    <rect id="矩形" fill="#000000" opacity="0" x="0" y="0" width="16" height="16"></rect>
                    <path d="M8,1 C4.1340057,1 1,4.1340057 1,8 C1,11.8659943 4.1340057,15 8,15 C11.8659943,15 15,11.8659943 15,8 C15,4.1340057 11.8659943,1 8,1 Z" id="路径" fill="#888D97"></path>
                    <path d="M4.22048,6.03672 C4.22048,5.51896 4.64024,5.09928 5.158,5.09928 C5.67576,5.09928 6.09544,5.51896 6.09544,6.03672 C6.09544,6.55448 5.67584,6.97424 5.158,6.97424 C4.64024,6.97424 4.22048,6.55456 4.22048,6.03672 Z" id="路径" fill="#FFFFFF"></path>
                    <path d="M7.94872,11.4856 C6.6464,11.4856 5.57968,10.47656 5.48824,9.19728 C7.14872,9.17016 9.10936,9.20808 10.40928,9.19728 C10.31784,10.4764 9.25112,11.4856 7.94872,11.4856 Z" id="路径" fill="#FFFFFF"></path>
                    <path d="M10.7828,6.97424 C10.26496,6.97424 9.84528,6.55456 9.84528,6.03672 C9.84528,5.51896 10.26496,5.09928 10.7828,5.09928 C11.30064,5.09928 11.72016,5.51896 11.72016,6.03672 C11.72016,6.55448 11.30064,6.97424 10.7828,6.97424 Z" id="路径" fill="#FFFFFF"></path>
                </g>
            </g>
        </g>
    </g>
</svg>
