<?xml version="1.0" encoding="UTF-8"?>
<svg width="48px" height="48px" viewBox="0 0 48 48" version="1.1" xmlns="http://www.w3.org/2000/svg" xmlns:xlink="http://www.w3.org/1999/xlink">
    <g id="1.3.5" stroke="none" stroke-width="1" fill="none" fill-rule="evenodd">
        <g id="话术库-新建文件" transform="translate(-1019.000000, -249.000000)">
            <g id="编组" transform="translate(1006.000000, 241.000000)">
                <g id="icon/32/分析饼状图" transform="translate(13.000000, 8.000000)">
                    <g id="编组" transform="translate(10.000000, 8.000000)">
                        <path d="M5.91187738,0.0306513448 L19.6436782,0.0306513448 L27.4904214,7.89701148 L27.4904214,25.532567 C27.4904214,28.7827945 24.8555915,31.4176245 21.605364,31.4176245 L5.91187738,31.4176245 C2.66164989,31.4176245 0.026819931,28.7827945 0.026819931,25.532567 L0.026819931,5.91570883 C0.026819931,2.66548134 2.66164989,0.0306513448 5.91187738,0.0306513448 Z" id="路径" fill="#2AAAEF"></path>
                        <path d="M19.7594176,18.4469579 L14.8355862,23.3021303 L14.611954,23.5512644 C13.6668816,24.5434184 12.3589264,25.108523 10.9887203,25.1166897 C8.34632952,25.1755402 6.15708814,23.0176858 6.09431417,20.2948659 C6.17278162,18.9805364 6.71813028,17.7446743 7.6244291,16.822682 L9.65869731,14.8472644 L9.72147128,14.7844904 C10.2432797,14.3450728 10.8925977,14.1037854 11.5654559,14.0959387 C12.2952031,14.0802452 12.9994483,14.3666513 13.5251801,14.8904214 C14.0489502,15.4122299 14.3490881,16.1302069 14.3608582,16.8815326 L14.3608582,17.0070804 C14.4239693,17.4741985 14.2983043,17.9472071 14.0116782,18.32141 L11.5968429,20.6950498 L11.5321073,20.7283985 C11.404635,20.8521564 11.2330544,20.9199413 11.0554176,20.9167203 C10.8641643,20.9230044 10.6788361,20.8498672 10.5434176,20.7146667 C10.4056024,20.5767195 10.3280185,20.389813 10.3276322,20.1948199 C10.3242269,20.0188884 10.3921561,19.8490655 10.515954,19.7240153 L10.6434636,19.5690421 L12.6443831,17.5955862 C12.8123599,17.381434 12.9023136,17.1164165 12.8994023,16.8442606 C12.8951281,16.4799656 12.7478849,16.1319362 12.48941,15.8751877 C12.2357024,15.6230905 11.8896168,15.4862165 11.5321073,15.4965824 C11.2041999,15.5020214 10.889032,15.6244707 10.6434636,15.8418391 L8.64254407,17.815295 C7.9755709,18.4626513 7.57538697,19.3493333 7.52438314,20.2929042 C7.57931034,21.7465134 8.49149424,23.0196475 9.82151724,23.5041839 C11.159443,23.9870895 12.6565182,23.5790816 13.5644138,22.4841073 L18.6471418,17.5053487 C19.4082759,16.8834942 19.8535786,15.9379617 19.8555402,14.9355402 C19.8155299,13.6463159 19.0806416,12.4798027 17.9350498,11.8870804 C16.8026433,11.3121894 15.4426753,11.4260896 14.4216705,12.1813333 L14.2255019,12.3382682 C14.1075942,12.456893 13.9474523,12.5239128 13.7801992,12.5246283 C13.4897552,12.537672 13.2225826,12.3663672 13.1132261,12.0969808 C12.9991401,11.8245375 13.0620266,11.510105 13.2721226,11.3024981 L13.3996322,11.1769502 C14.2627739,10.4903602 15.3260077,10.1156782 16.416705,10.1137165 C17.6960214,10.0693143 18.9375791,10.5514725 19.8516169,11.4476628 C20.7775326,12.3480766 21.3150345,13.5937471 21.3424981,14.9061149 C21.3370294,16.2561109 20.7621887,17.5411328 19.7594176,18.4449962 L19.7594176,18.4469579 Z" id="路径" fill="#FFFFFF" fill-rule="nonzero"></path>
                        <path d="M19.6436782,0.0306513448 L19.6436782,6.07852872 C19.7103755,7.03975479 20.475433,7.80481224 21.436659,7.87150959 L27.4904214,7.87739462 L19.6436782,0.0306513448 Z" id="路径" fill="#6BB7FF" fill-rule="nonzero"></path>
                    </g>
                </g>
            </g>
        </g>
    </g>
</svg>