<?xml version="1.0" encoding="UTF-8"?>
<svg width="24px" height="24px" viewBox="0 0 24 24" version="1.1" xmlns="http://www.w3.org/2000/svg" xmlns:xlink="http://www.w3.org/1999/xlink">
    <title>切片</title>
    <g id="智能分析1.3" stroke="none" stroke-width="1" fill="none">
        <g id="用户分群-新建id" transform="translate(-648.000000, -273.000000)">
            <g id="按钮/icon+文字备份" transform="translate(632.000000, 269.000000)">
                <g id="icon/16/箭头备份" transform="translate(16.000000, 4.000000)">
                    <path d="M9.6,15.2 L11.6378223,15.2 C11.9691932,15.2 12.2378223,14.9313708 12.2378223,14.6 C12.2378223,14.2686292 11.9691932,14 11.6378223,14 L9.6,14 C9.26862915,14 9,14.2686292 9,14.6 C9,14.9313708 9.26862915,15.2 9.6,15.2 Z" id="路径" fill="#2749F1" fill-rule="nonzero"></path>
                    <path d="M12.8412607,10 L9.6,10 C9.26862915,10 9,10.2686292 9,10.6 C9,10.9313708 9.26862915,11.2 9.6,11.2 L12.8412607,11.2 C13.1726316,11.2 13.4412607,10.9313708 13.4412607,10.6 C13.4412607,10.2686292 13.1726316,10 12.8412607,10 Z" id="路径" fill="#2749F1" fill-rule="nonzero"></path>
                    <path d="M9.6,13.2 L15.5633238,13.2 C15.8946946,13.2 16.1633238,12.9313708 16.1633238,12.6 C16.1633238,12.2686292 15.8946946,12 15.5633238,12 L9.6,12 C9.26862915,12 9,12.2686292 9,12.6 C9,12.9313708 9.26862915,13.2 9.6,13.2 Z" id="路径" fill="#2749F1" fill-rule="nonzero"></path>
                    <path d="M13.6368355,5.6 L17.2566787,8.50709934 L17.4,17 L8,17.4 L7.6,6 L13.6368355,5.6 Z" id="矩形" stroke="#2749F1" stroke-width="1.2"></path>
                    <polyline id="路径-17" stroke="#2749F1" points="14 5.68735328 14 8.68735328 17.2665739 8.68735328"></polyline>
                </g>
            </g>
        </g>
    </g>
</svg>
