<?xml version="1.0" encoding="UTF-8"?>
<svg width="24px" height="24px" viewBox="0 0 24 24" version="1.1" xmlns="http://www.w3.org/2000/svg" xmlns:xlink="http://www.w3.org/1999/xlink">
    <g id="icon/24/隐藏" stroke="none" stroke-width="1" fill="none" fill-rule="evenodd">
        <g id="操作-隐藏" transform="translate(3.000000, 5.074286)" fill="#26292E" fill-rule="nonzero">
            <path d="M5.38071429,13.4183571 L6.37521429,12.4238571 C7.14535714,12.6951429 8.01642857,12.8571429 9,12.8571429 C14.0303571,12.8571429 16.1485714,8.60785714 16.6744286,7.30285714 C16.7278737,7.16270809 16.7278737,7.00779191 16.6744286,6.86764286 C16.4365714,6.26528571 15.8740714,5.06764286 14.8641429,3.93492857 L15.7628571,3.03621429 C16.9328571,4.338 17.5872857,5.71371429 17.8707857,6.39257143 C18.0430714,6.83614286 18.0430714,7.30735714 17.8707857,7.75028571 C17.2446429,9.24942857 14.814,14.1428571 9,14.1428571 C7.605,14.1428571 6.40607143,13.8638571 5.38071429,13.4183571 Z M2.23264286,11.1111429 C1.06264286,9.80807143 0.413357143,8.43042857 0.129214286,7.75028571 C-0.0431017318,7.31411656 -0.0431017318,6.82874058 0.129214286,6.39257143 C0.755357143,4.89342857 3.159,0 9,0 C10.3924286,0 11.5907143,0.280285714 12.6160714,0.727714286 L11.6247857,1.719 C10.8546429,1.44771429 9.98357143,1.28571429 9,1.28571429 C3.96964286,1.28571429 1.85142857,5.535 1.32557143,6.84 C1.27212627,6.98014905 1.27212627,7.13506523 1.32557143,7.27521429 C1.56342857,7.87757143 2.12592857,9.07521429 3.13585714,10.2079286 L2.23264286,11.1111429 L2.23264286,11.1111429 Z M8.5455,10.2535714 L10.3210714,8.47735714 C10.3502277,8.44995556 10.378527,8.42165624 10.4059286,8.3925 L12.1821429,6.61692857 C12.2033571,6.76542857 12.2142857,6.91714286 12.2142857,7.07142857 C12.2142857,8.83285714 10.7717143,10.2857143 9,10.2857143 C8.84571429,10.2857143 8.694,10.2747857 8.5455,10.2535714 L8.5455,10.2535714 Z M5.81785714,7.52592857 C5.79634883,7.37538565 5.78560728,7.22350016 5.78571349,7.07142857 C5.78571349,5.31 7.22828571,3.85714286 9,3.85714286 C9.15428571,3.85714286 9.306,3.86807143 9.4545,3.88928571 L5.81785714,7.52592857 L5.81785714,7.52592857 Z M14.9091429,1.16164286 C15.0298567,1.28222245 15.0976843,1.44584405 15.0976843,1.61646429 C15.0976843,1.78708452 15.0298567,1.95070612 14.9091429,2.07128571 L3.99985714,12.9805714 C3.74761357,13.2241964 3.34665979,13.2207122 3.09868806,12.9727405 C2.85071633,12.7247688 2.84723215,12.323815 3.09085714,12.0715714 L14.0001429,1.16228571 C14.2511785,0.911325897 14.6581072,0.911325897 14.9091429,1.16228571 L14.9091429,1.16164286 Z" id="形状"></path>
        </g>
    </g>
</svg>
