<?xml version="1.0" encoding="UTF-8"?>
<svg width="24px" height="24px" viewBox="0 0 24 24" version="1.1" xmlns="http://www.w3.org/2000/svg" xmlns:xlink="http://www.w3.org/1999/xlink">
    <g id="1-1" stroke="none" stroke-width="1" fill="none" fill-rule="evenodd">
        <g id="1-2" transform="translate(-215.000000, -569.000000)" fill="#26292E" fill-rule="nonzero" stroke="#26292E" stroke-width="0.2">
            <g id="1-3" transform="translate(167.000000, 561.000000)">
                <g id="icon-1-4" transform="translate(48.000000, 8.000000)">
                    <path d="M7.42017755,15.6801895 C7.20306388,15.6801895 7.09530526,15.6801895 6.87819159,15.7857143 L6.87819159,5.60217928 C6.87819159,5.28404152 7.09530526,5.07142857 7.42017755,5.07142857 L9.04533719,5.07142857 L9.04533719,10.9057781 C9.04533719,11.2246975 9.26165264,11.4365288 9.58652493,11.4365288 C9.69508176,11.4365288 9.91139721,11.4365288 10.019954,11.3302223 L11.2116846,10.1631961 L12.4034151,11.3302223 C12.5111737,11.4365288 12.6197305,11.4365288 12.8368442,11.4365288 C13.1617165,11.4365288 13.378032,11.2246975 13.378032,10.9057781 L13.378032,5.07142857 L17.3866526,5.07142857 C17.6029681,5.07142857 17.7115249,5.17773505 17.7115249,5.38956633 L17.7115249,15.6809711 L7.42017755,15.6801895 Z M7.42017755,17.9285714 C7.09530526,17.9285714 6.87819159,17.713812 6.87819159,17.3924624 C6.87819159,17.0711127 7.09530526,16.8571429 7.42017755,16.8571429 L17.7115249,16.8571429 L17.7115249,17.9285714 L7.42017755,17.9285714 Z M12.2948583,5.07142857 L12.2948583,9.35714286 L11.6450179,8.67550405 C11.5364451,8.57792208 11.3200978,8.57792208 11.2115249,8.57792208 C11.1029521,8.57792208 10.8866048,8.57792208 10.7780319,8.67550405 L10.1281916,9.35714286 L10.1281916,5.07142857 L12.2948583,5.07142857 Z M18.1496871,4 L7.40659861,4 C6.54689821,4 5.79485826,4.75 5.79485826,5.60736842 L5.79485826,17.5 C5.79485826,18.25 6.54689821,19 7.40659861,19 L18.2573476,19 C18.5795373,19 18.7948583,18.7860526 18.7948583,18.4639474 L18.7948583,4.53684211 C18.6871978,4.21315789 18.4710853,4 18.1496871,4 Z" id="形状"></path>
                </g>
            </g>
        </g>
    </g>
</svg>