<?xml version="1.0" encoding="UTF-8"?>
<svg width="24px" height="24px" viewBox="0 0 24 24" version="1.1" xmlns="http://www.w3.org/2000/svg" xmlns:xlink="http://www.w3.org/1999/xlink">
    <g id="智慧运营v1.3" stroke="none" stroke-width="1" fill="none" fill-rule="evenodd">
        <g id="内容中心-列表-其他" transform="translate(-1310.000000, -137.000000)" fill-rule="nonzero">
            <g id="按钮/（icon+文字）/默认备份-2" transform="translate(1294.000000, 133.000000)">
                <g id="icon/16/箭头备份" transform="translate(16.000000, 4.000000)">
                    <rect id="矩形" fill="#000000" opacity="0" x="0" y="0" width="24" height="24"></rect>
                    <path d="M6.5,6.26404231 L7.75,4.76404231 L16.25,4.76404231 L17.5,6.26404231 L6.5,6.26404231 Z M14,13.5247221 L14,16.5 L10,16.5 L10,13.5247221 L7,13.5247221 L11.6565,8.67172209 C11.846,8.47372209 12.155,8.47422209 12.3435,8.67072209 L17,13.5247221 L14,13.5247221 Z M17.278,4.18104231 C17.125,3.95154231 16.778,3.76404231 16.504,3.76404231 L7.496,3.76404231 C7.2275,3.76404231 6.8755,3.95104231 6.722,4.18104231 L5.278,6.34704231 C5.125,6.57654231 5,6.98854231 5,7.26504231 L5,18.0045 C5,18.555 5.446,19 5.9955,19 L18.0045,19 C18.55,19 19,18.5545 19,18.0045 L19,7.26504231 C19,6.98354231 18.8755,6.57704231 18.722,6.34704231 L17.278,4.18104231 Z" id="形状" fill="#2749F1"></path>
                </g>
            </g>
        </g>
    </g>
</svg>