<?xml version="1.0" encoding="UTF-8"?>
<svg width="24px" height="24px" viewBox="0 0 24 24" version="1.1" xmlns="http://www.w3.org/2000/svg" xmlns:xlink="http://www.w3.org/1999/xlink">
    <g id="1.3.4" stroke="none" stroke-width="1" fill="none" fill-rule="evenodd">
        <g id="DashBoard" transform="translate(-1102.000000, -449.000000)" fill="#26292E" fill-rule="nonzero" stroke="#26292E" stroke-width="0.2">
            <g id="icon/24/-8" transform="translate(1102.000000, 449.000000)">
                <path d="M18.0154966,5 C19.1115146,5 20,5.77944369 20,6.74093468 L20,17.2590653 C20,18.2205563 19.1115146,19 18.0154966,19 L10.6563236,19 C9.82349663,19 9.11048989,18.5499347 8.81608989,17.9119257 L8.01405843,17.9119257 C7.13905618,17.9119257 6.40230112,17.3970158 6.15546966,16.6906464 C6.10036369,16.7068426 6.04262176,16.7150746 5.98450337,16.7150203 C4.89945169,16.7150203 4.01779775,15.9510901 4.00026966,15.0028896 L4,14.9740856 L4,9.09846847 C4,8.13697748 4.88848539,7.35753378 5.98450337,7.35753378 C6.03633258,7.35753378 6.08647191,7.36396622 6.13389663,7.37597973 C6.35383371,6.64446396 7.09378876,6.10120721 7.98177079,6.08832658 L8.01405843,6.08810586 L8.81608989,6.08810586 C9.11048989,5.45003378 9.82349663,5 10.6563236,5 L18.0154966,5 Z M18.0154966,5.94299775 L10.6563236,5.94299775 C10.1539955,5.94299775 9.74676854,6.30025 9.74676854,6.74093468 L9.74676854,17.2590653 C9.74676854,17.69975 10.1539955,18.0570023 10.6563236,18.0570023 L18.0154966,18.0570023 C18.5178427,18.0570023 18.9250697,17.69975 18.9250697,17.2590653 L18.9250697,6.74093468 C18.9250697,6.30025 18.5178427,5.94299775 18.0154966,5.94299775 Z M8.67182022,7.03108784 L8.01405843,7.03108784 C7.54049438,7.03108784 7.15000449,7.37854955 7.1422382,7.81576577 L7.14211236,7.82902477 L7.14211236,16.1710068 C7.14211236,16.6099887 7.52787416,16.9618176 7.99973034,16.9688176 L8.01405843,16.9689279 L8.67182022,16.9689279 L8.67182022,7.03108784 L8.67182022,7.03108784 Z M5.99717753,8.30040541 L5.98450337,8.30053153 C5.48719101,8.30053153 5.08309213,8.65067342 5.07505618,9.08527252 L5.07493034,9.09846847 L5.07493034,14.9741014 C5.07493034,15.4103874 5.47404944,15.7648806 5.96945618,15.7719279 L5.98450337,15.7720383 C6.01262022,15.7720383 6.04023371,15.7739302 6.0672,15.7775878 L6.0672,8.29499775 C6.04401773,8.29813107 6.02062744,8.29993745 5.99717753,8.30040541 L5.99717753,8.30040541 Z M16.917627,9.24829054 C17.1890876,9.34367342 17.3230562,9.61142342 17.2215011,9.85046396 L17.2167191,9.86131081 L14.7846472,15.1879482 C14.6062382,15.5786869 13.9803685,15.5828806 13.7925573,15.2001351 L13.7869843,15.1884054 L11.3475056,9.86176802 C11.236836,9.62014189 11.370409,9.34556532 11.6458427,9.24847973 C11.9171775,9.15284459 12.2249348,9.26512838 12.3398472,9.49947072 L12.3449348,9.51020721 L14.2849438,13.7461847 L16.2188584,9.51064865 C16.3292404,9.26892793 16.6420854,9.15145721 16.9176449,9.24827477 L16.917627,9.24829054 Z" id="形状"></path>
            </g>
        </g>
    </g>
</svg>