<?xml version="1.0" encoding="UTF-8"?>
<svg width="32px" height="32px" viewBox="0 0 32 32" version="1.1" xmlns="http://www.w3.org/2000/svg" xmlns:xlink="http://www.w3.org/1999/xlink">
    <g id="智慧运营v1.3" stroke="none" stroke-width="1" fill="none" fill-rule="evenodd">
        <g id="内容中心-列表-其他" transform="translate(-766.000000, -127.000000)" fill-rule="nonzero">
            <g id="icon/32/分析选中备份-47" transform="translate(766.000000, 127.000000)">
                <rect id="矩形" fill="#000000" opacity="0" x="0" y="0" width="32" height="32"></rect>
                <path d="M16,4 C9.372583,4 4,9.372583 4,16 C4,22.627417 9.372583,28 16,28 C22.627417,28 28,22.627417 28,16 C28,9.372583 22.627417,4 16,4 Z" id="路径备份" fill="#38D392"></path>
                <path d="M13.7270059,22 C11.6663405,22 10,20.4907976 10,18.638037 C10.004232,18.0540708 10.1711833,17.4819472 10.483366,16.9815954 C10.9657147,16.2277977 11.7237916,15.6760795 12.6076321,15.4355832 C12.8129702,15.3708286 13.0276071,15.3377022 13.2436399,15.3374237 C13.7635009,15.3374237 14.1849315,15.7439381 14.1849315,16.2453991 C14.1849315,16.7468601 13.7635009,17.1533745 13.2436399,17.1533745 L13.1800391,17.1533745 C12.7354194,17.2639416 12.3497485,17.530921 12.0988258,17.9018407 C11.9624702,18.1156743 11.8918902,18.3624713 11.8953033,18.6134971 C11.8953033,19.4601228 12.7093933,20.1472394 13.7270059,20.1472394 C14.0795718,20.1476362 14.4260741,20.0587881 14.7318982,19.8895707 C15.2290424,19.6424424 15.5462695,19.1528438 15.5587084,18.6134971 L15.5587084,13.3496937 C15.5587084,12.1717797 16.2201566,11.1042951 17.3395303,10.4907982 C17.9291917,10.1687115 18.5953564,9.99960983 19.2729941,10 C21.3336595,10 23,11.5092031 23,13.3619637 C22.995768,13.9459299 22.8288167,14.5180535 22.516634,15.0184053 C22.0342853,15.772203 21.2762084,16.3239211 20.3923679,16.5644175 C20.1865945,16.6274194 19.9722396,16.6605022 19.7563601,16.662577 C19.2364991,16.662577 18.8150685,16.2560625 18.8150685,15.7546016 C18.8150685,15.2531406 19.2364991,14.8466262 19.7563601,14.8466262 L19.8199609,14.8466262 C20.3033268,14.6993869 20.6976517,14.4417182 20.9138943,14.08589 C21.05025,13.8720564 21.12083,13.6252595 21.1174168,13.3742336 C21.1174168,12.5276079 20.2906067,11.8404914 19.2857143,11.8404914 C18.9331484,11.8400945 18.5866461,11.9289426 18.2808219,12.0981601 C17.7836778,12.3452883 17.4664507,12.8348869 17.4540117,13.3742336 L17.4540117,18.6503069 C17.4540117,19.828221 16.7925636,20.8957056 15.6731898,21.5092025 C15.0778634,21.8287697 14.4083007,21.9976231 13.7270059,22 L13.7270059,22 Z" id="路径" fill="#C0F8F5"></path>
            </g>
        </g>
    </g>
</svg>