<?xml version="1.0" encoding="UTF-8"?>
<svg width="24px" height="24px" viewBox="0 0 24 24" version="1.1" xmlns="http://www.w3.org/2000/svg" xmlns:xlink="http://www.w3.org/1999/xlink">
    <g id="user-center" stroke="none" stroke-width="1" fill="none" fill-rule="evenodd">
        <g id="1-1" transform="translate(-96.000000, -569.000000)" fill="#26292E" fill-rule="nonzero" stroke="#26292E" stroke-width="0.3">
            <g id="1-2" transform="translate(48.000000, 561.000000)">
                <g id="icon-1-3" transform="translate(48.000000, 8.000000)">
                    <path d="M17.5988531,17.7092187 C16.1554273,19.1246094 14.1805767,20 12,20 C7.58171967,20 4,16.4178437 4,11.9997031 C4,7.58157813 7.58171967,4 12,4 C16.4182803,4 20,7.58159375 20,11.9997187 C20,14.237375 19.0794364,16.2572969 17.5988531,17.70925 L17.5988531,17.7092187 Z M12,18.8571875 C13.6239946,18.8571875 15.1142814,18.2897813 16.2891508,17.3458125 C15.66341,15.5687188 13.9914294,14.2853437 12,14.2853437 C10.0085706,14.2853437 8.33657433,15.5687187 7.71084921,17.3458125 C8.88571864,18.2897813 10.3760054,18.8571875 12,18.8571875 Z M12,5.143375 C8.21314812,5.143375 5.14285268,8.2135625 5.14285268,12.0002813 C5.14285268,13.7116563 5.77371861,15.2721563 6.8102863,16.4738438 C7.71428683,14.5093281 9.69543461,13.1430937 12,13.1430937 C14.3039872,13.1430937 16.2857132,14.5093437 17.1897137,16.4738438 C18.2262814,15.27275 18.8571473,13.7116563 18.8571473,12.0002813 C18.8571473,8.2135625 15.7868519,5.143375 12,5.143375 Z M12,12.5716875 C10.4217101,12.5716875 9.1428683,11.2923125 9.1428683,9.71465625 C9.1428683,8.13642187 10.4217101,6.85760937 12,6.85760937 C13.5777117,6.85760937 14.8571317,8.13642187 14.8571317,9.71464063 C14.8571317,11.2922969 13.5777117,12.5716875 12,12.5716875 Z M12,8.00042188 C11.0531386,8.00042188 10.285721,8.76782812 10.285721,9.71407813 C10.285721,10.6608906 11.0531386,11.4282969 12,11.4282969 C12.9468614,11.4282969 13.714279,10.6608906 13.714279,9.71407813 C13.714279,8.76782813 12.9468614,8.00042188 12,8.00042188 L12,8.00042188 Z" id="形状"></path>
                </g>
            </g>
        </g>
    </g>
</svg>