<?xml version="1.0" encoding="UTF-8"?>
<svg width="32px" height="32px" viewBox="0 0 32 32" version="1.1" xmlns="http://www.w3.org/2000/svg" xmlns:xlink="http://www.w3.org/1999/xlink">
    <g id="智慧运营v1.3" stroke="none" stroke-width="1" fill="none" fill-rule="evenodd">
        <g id="内容中心-列表-其他" transform="translate(-946.000000, -127.000000)" fill-rule="nonzero">
            <g id="icon/32/分析选中备份-49" transform="translate(946.000000, 127.000000)">
                <rect id="矩形" fill="#000000" opacity="0" x="0" y="0" width="32" height="32"></rect>
                <path d="M23.4718,4.8798 L8.559,4.8798 C7.285,4.8798 6.2532,5.8682 6.2532,7.0876 L6.2532,25.2008 C6.2532,26.4202 7.285,27.4086 8.559,27.4086 L23.4704,27.4086 C24.7444,27.4086 25.7762014,26.4202 25.7762014,25.2008 L25.7762014,7.0876 C25.7776,5.8682 24.7444,4.8798 23.4718,4.8798 L23.4718,4.8798 Z" id="路径" fill="#F79300"></path>
                <path d="M12.5062,20.1048 C12.8375708,20.1048 13.1062,20.3734292 13.1062,20.7048 L13.1062,22.764 C13.1062,23.0953708 12.8375708,23.364 12.5062,23.364 L10.3014,23.364 C9.97002915,23.364 9.7014,23.0953708 9.7014,22.764 L9.7014,20.7048 C9.7014,20.3734292 9.97002915,20.1048 10.3014,20.1048 L12.5062,20.1048 Z M21.9016,21.054 C22.2329708,21.054 22.5016,21.3226292 22.5016,21.654 L22.5016,21.8162 C22.5016,22.1475708 22.2329708,22.4162 21.9016,22.4162 L16.1632,22.4162 C15.8318292,22.4162 15.5632,22.1475708 15.5632,21.8162 L15.5632,21.654 C15.5632,21.3226292 15.8318292,21.054 16.1632,21.054 L21.9016,21.054 Z M12.5062,14.5146 C12.8375708,14.5146 13.1062,14.7832292 13.1062,15.1146 L13.1062,17.1738 C13.1062,17.5051708 12.8375708,17.7738 12.5062,17.7738 L10.3014,17.7738 C9.97002915,17.7738 9.7014,17.5051708 9.7014,17.1738 L9.7014,15.1146 C9.7014,14.7832292 9.97002915,14.5146 10.3014,14.5146 L12.5062,14.5146 Z M21.9016,15.4624 C22.2329708,15.4624 22.5016,15.7310292 22.5016,16.0624 L22.5016,16.2246 C22.5016,16.5559708 22.2329708,16.8246 21.9016,16.8246 L16.1632,16.8246 C15.8318292,16.8246 15.5632,16.5559708 15.5632,16.2246 L15.5632,16.0624 C15.5632,15.7310292 15.8318292,15.4624 16.1632,15.4624 L21.9016,15.4624 Z M12.5062,8.9244 C12.8375708,8.9244 13.1062,9.19302915 13.1062,9.5244 L13.1062,11.5836 C13.1062,11.9149708 12.8375708,12.1836 12.5062,12.1836 L10.3014,12.1836 C9.97002915,12.1836 9.7014,11.9149708 9.7014,11.5836 L9.7014,9.5244 C9.7014,9.19302915 9.97002915,8.9244 10.3014,8.9244 L12.5062,8.9244 Z M21.9016,9.8722 C22.2329708,9.8722 22.5016,10.1408292 22.5016,10.4722 L22.5016,10.6344 C22.5016,10.9657708 22.2329708,11.2344 21.9016,11.2344 L16.1632,11.2344 C15.8318292,11.2344 15.5632,10.9657708 15.5632,10.6344 L15.5632,10.4722 C15.5632,10.1408292 15.8318292,9.8722 16.1632,9.8722 L21.9016,9.8722 Z" id="形状结合" fill="#FFCE86"></path>
            </g>
        </g>
    </g>
</svg>