<?xml version="1.0" encoding="UTF-8"?>
<svg width="24px" height="24px" viewBox="0 0 24 24" version="1.1" xmlns="http://www.w3.org/2000/svg" xmlns:xlink="http://www.w3.org/1999/xlink">
    <g id="1.3.4" stroke="none" stroke-width="1" fill="none" fill-rule="evenodd">
        <g id="DashBoard备份" transform="translate(-622.000000, -972.000000)">
            <g id="ds/功能入口默认备份" transform="translate(606.000000, 952.000000)">
                <g id="icon/16/布尔备份-6" transform="translate(16.000000, 20.000000)">
                    <rect id="矩形" x="0" y="0" width="24" height="24"></rect>
                    <path d="M11.1161035,14.9326945 C10.4845099,18.7456026 12.966648,20.1341254 13.696544,20.1341254 L11.3618597,20.11938 C10.9551331,20.1206088 10.545949,20.1120073 10.1392224,20.0935756 C9.16386591,20.0499833 8.19016643,19.9749887 7.21963819,19.8687086 C6.77467867,19.8233175 6.3306022,19.7696514 5.88763935,19.7077383 C5.5477242,19.6602115 5.20925772,19.6028443 4.87266606,19.5357089 C4.59496151,19.479185 4.41924578,19.4226611 4.3467477,19.3649083 C4.21403933,19.2739785 4.11450805,18.9925876 4.04815386,18.5195069 C3.98179968,18.0476549 4.00883286,17.4406369 4.12925341,16.7009106 C4.17840465,16.4158334 4.27670716,16.182365 4.42907604,16.0005053 C4.58021613,15.8174169 4.76330454,15.6613617 4.98202759,15.5298821 C5.20935212,15.3947162 5.45265079,15.2878122 5.7070085,15.2140854 C5.97734037,15.1329858 6.25012981,15.0555726 6.52291924,14.9830745 C6.79325111,14.9118052 7.06358298,14.8319344 7.32899973,14.7446909 C7.58950134,14.6586762 7.82788491,14.5530011 8.04537918,14.4288942 C8.2997369,14.2814404 8.4951131,14.1339867 8.63519417,13.9926768 C8.77281767,13.8501382 8.87234894,13.7100572 8.933788,13.5748912 C8.99385268,13.4403398 9.02483809,13.2946247 9.02471781,13.1472753 C9.02471781,12.9998216 9.01734513,12.8339361 9.00628609,12.6508477 C8.99293028,12.4137195 8.88913899,12.1907442 8.71629372,12.0278556 C8.53443409,11.8644277 8.34765934,11.7083725 8.15351193,11.55969 C8.04598865,11.4657668 7.95718657,11.352367 7.89178152,11.2254615 C7.81367129,11.0842704 7.74392028,10.9386138 7.68288871,10.7892442 C7.62144965,10.6135285 7.56001058,10.436584 7.50225788,10.2608682 C7.41134762,10.2351994 7.32537424,10.194497 7.24790017,10.1404477 C7.16124386,10.0693395 7.08218056,9.98945263 7.01197416,9.90206413 C6.91228736,9.76870287 6.83851251,9.61781871 6.79447989,9.45724533 C6.73711218,9.28729074 6.71251111,9.10799484 6.7219818,8.92886941 C6.73426962,8.76912784 6.77113305,8.62658923 6.83011455,8.50125355 C6.87926579,8.37591786 6.9579078,8.2554973 7.06604054,8.14122063 C7.06604054,7.70868963 7.09061616,7.27615865 7.13976742,6.84362767 C7.18768989,6.47867965 7.27124701,6.08669844 7.39289635,5.6639977 C7.507173,5.25727112 7.69763409,4.87389136 7.95444936,4.53720531 C8.17440119,4.24106904 8.43736038,3.97810985 8.73349666,3.76061557 C9.00259975,3.56646815 9.29504968,3.40795536 9.60470255,3.28999237 C9.89469493,3.17940207 10.1945175,3.10198884 10.5017128,3.06021028 C10.7867901,3.02088928 11.0743249,3.00122878 11.3618597,3 C11.7132911,3 12.062265,3.03686344 12.405095,3.11059031 C12.7491537,3.18431719 13.0723232,3.28507723 13.3758321,3.41041294 C13.6584518,3.52468958 13.9275549,3.66845699 14.1819126,3.83680002 C14.4166098,3.99654158 14.600927,4.15628313 14.7348642,4.3160247 C15.0420595,4.66622735 15.2755279,5.07664027 15.4229816,5.52023029 C15.5679778,5.95767641 15.6711954,6.37669081 15.7314057,6.77604471 C15.7928448,7.23438011 15.8223355,7.69640185 15.8223355,8.15842357 C15.9062357,8.2147572 15.9746758,8.29122416 16.0213981,8.38083298 C16.0760394,8.4766713 16.1158136,8.58024995 16.1393611,8.68802828 C16.1700806,8.81336396 16.1725382,8.96819039 16.1491913,9.15005002 C16.1246157,9.40072139 16.0730069,9.59732638 15.9943649,9.739865 C15.9283361,9.86599508 15.8391258,9.97855003 15.7314057,10.0716359 C15.6313793,10.1580366 15.5140879,10.222128 15.387347,10.2596395 L15.3136201,10.4808201 L15.2239191,10.7204324 C15.1993435,10.8003032 15.1698527,10.8850891 15.1342181,10.9760189 C14.5173699,11.2156313 13.9730198,11.5584612 13.4385,11.9307819 C12.0020547,12.9310099 11.264786,14.0344554 11.1161035,14.9326945 L11.1161035,14.9326945 Z M21.5400678,16.477542 C21.5400678,17.0904757 21.4215851,17.6690521 21.1859975,18.2118969 C20.9586761,18.7423731 20.6349154,19.2261234 20.2298701,19.635662 C19.8249052,20.0443102 19.3431734,20.3693387 18.8122114,20.5921683 C18.2634431,20.8250801 17.6726683,20.9434099 17.0763027,20.9398638 C15.8877719,20.9491933 14.7459411,20.4788227 13.9103361,19.635662 C13.5055381,19.2245975 13.181269,18.7417298 12.9542086,18.2118969 C12.7172829,17.6644041 12.5967223,17.0738579 12.6001384,16.477542 C12.6001384,15.8632341 12.718621,15.2846578 12.9542086,14.7404387 C13.18153,14.2113368 13.5052907,13.7275864 13.9103361,13.3166735 C14.3165304,12.9081167 14.7978633,12.5814909 15.3279948,12.3546701 C15.8790769,12.1155435 16.4756233,11.9959802 17.0776805,12.0001031 C17.6907593,12.0001031 18.2693955,12.1169178 18.8135891,12.3546701 C19.3426279,12.581428 19.823447,12.9085092 20.2298701,13.3166735 C20.6349154,13.7289607 20.9586762,14.2113368 21.1859975,14.7418129 C21.4215851,15.2832835 21.5400678,15.8632341 21.5400678,16.477542 Z M17.0567482,19.2092747 L19.6900264,14.7266808 L18.5202266,14.7266808 L17.0567482,17.0855402 L15.8869485,14.7266808 L14.7171487,14.7266808 L17.0567482,19.2092747 Z" id="形状" fill="#FFC069" fill-rule="nonzero"></path>
                </g>
            </g>
        </g>
    </g>
</svg>