<?xml version="1.0" encoding="UTF-8"?>
<svg width="24px" height="24px" viewBox="0 0 24 24" version="1.1" xmlns="http://www.w3.org/2000/svg" xmlns:xlink="http://www.w3.org/1999/xlink">
    <g id="1.3.4" stroke="none" stroke-width="1" fill="none" fill-rule="evenodd">
        <g id="DashBoard" transform="translate(-622.000000, -1076.000000)">
            <g id="ds/-4" transform="translate(606.000000, 1056.000000)">
                <g id="icon/16/-6" transform="translate(16.000000, 20.000000)">
                    <rect id="矩形" x="0" y="0" width="24" height="24"></rect>
                    <path d="M9.67693802,14.4828276 L13.0780331,17.8847386 C13.2615042,18.9122846 13.7588691,19.8311028 14.4674029,20.5384683 C13.6694964,20.7733934 12.8289826,20.8988745 11.9508244,20.8988745 C11.1641826,20.8988745 10.4021234,20.8005443 9.67693802,20.6038839 L9.67693802,20.6038839 L9.67693802,14.4828276 Z M8.55843175,12.1351936 L8.55843175,20.2351455 C6.73932265,19.4853776 5.21520422,18.1456283 4.23190201,16.4617233 L4.23190201,16.4617233 L8.55843175,12.1351936 Z M13.0524464,16.2731633 L12.1229023,15.343217 L13.2809468,15.343448 C13.1763402,15.6414557 13.0991637,15.9523705 13.0524464,16.2731633 Z M9.43111246,9.67693802 C9.43111246,9.67693802 9.39218454,9.71575958 9.32057182,9.78717937 L9.01392232,10.0930101 C8.9485527,10.1582066 8.87657266,10.2299968 8.79876258,10.3076028 L8.26818479,10.8368054 C8.21918046,10.8856842 8.16910881,10.935628 8.1180674,10.9865395 L7.80096211,11.302844 C7.58284098,11.5204185 7.35232514,11.7503654 7.11565772,11.9864615 L6.75682327,12.3444395 C6.57587959,12.5249565 6.39323152,12.707182 6.21151286,12.8884907 L5.67177896,13.4270406 C5.19917626,13.898639 4.75191208,14.3450474 4.37993131,14.716479 L3.99584693,15.1000834 C3.8801614,15.2156576 3.77769642,15.3180628 3.69108579,15.4046734 C3.24859979,14.3353323 3.00277424,13.1799522 3.00277424,11.9508244 C3.00277424,11.1641826 3.10110446,10.4021234 3.2977649,9.67693802 L3.2977649,9.67693802 Z M20.210563,8.49697536 C20.653049,9.55402524 20.8988745,10.7216966 20.8988745,11.9508244 C20.8988745,12.2686386 20.8828244,12.5824404 20.850724,12.891419 C20.041365,12.3293161 19.0591405,12 18,12 C17.4651263,12 16.9498687,12.0839863 16.4666952,12.2394906 Z M15.343217,3.66650323 C17.1623261,4.41627117 18.6864446,5.75602044 19.6697468,7.43992548 L19.6697468,7.43992548 L15.343217,11.7664552 Z M11.9508244,3.00277424 C12.7374662,3.00277424 13.4995254,3.10110446 14.2247108,3.2977649 L14.2247108,3.2977649 L14.2247108,9.41882119 L8.49697536,3.69108579 C9.56631652,3.24859979 10.7216966,3.00277424 11.9508244,3.00277424 Z M7.43992548,4.23190201 L11.7664552,8.55843175 L3.66650323,8.55843175 C4.41627117,6.73932265 5.75602044,5.21520422 7.43992548,4.23190201 L7.43992548,4.23190201 Z" id="形状结合" fill="#71C16F" fill-rule="nonzero"></path>
                    <path d="M18.0328139,12.9510586 C20.170229,12.9510586 21.9029464,14.6837759 21.9029464,16.8211911 C21.9029464,18.9586063 20.170229,20.6913236 18.0328139,20.6913236 C15.8953987,20.6913236 14.1626813,18.9586063 14.1626813,16.8211911 C14.1626813,14.6837759 15.8953987,12.9510586 18.0328139,12.9510586 L18.0328139,12.9510586 Z M20.092683,14.631129 L15.4604652,16.4190025 C15.1984207,16.5185131 15.2050547,16.6677789 15.4737333,16.7457289 L16.5932274,17.0774309 L17.0476591,18.4324333 C17.1073654,18.6098939 17.2632653,18.6480396 17.3959461,18.5153588 L17.9830586,17.9348804 L19.1440154,18.7823789 C19.2932813,18.8934991 19.4475227,18.8354512 19.4889854,18.6513566 L20.3348254,14.8401012 C20.3746297,14.6576651 20.268485,14.5647886 20.092683,14.631129 L20.092683,14.631129 Z M19.3878164,15.493554 L17.4108727,17.2532329 C17.3726099,17.2913689 17.3476098,17.3407877 17.3395568,17.3942062 L17.2516558,18.2151686 C17.2417047,18.3063866 17.210193,18.3113621 17.1803399,18.2218026 L16.7988826,17.0691383 C16.7848387,17.0223399 16.803012,16.9718586 16.8436624,16.9447501 L19.3496706,15.4421402 C19.5105461,15.3459467 19.5271312,15.3691658 19.3878164,15.4918955 L19.3878164,15.493554 Z" id="形状" fill="#71C16F" fill-rule="nonzero"></path>
                </g>
            </g>
        </g>
    </g>
</svg>