<?xml version="1.0" encoding="UTF-8"?>
<svg width="32px" height="32px" viewBox="0 0 32 32" version="1.1" xmlns="http://www.w3.org/2000/svg" xmlns:xlink="http://www.w3.org/1999/xlink">
    <g id="智慧运营v1.3" stroke="none" stroke-width="1" fill="none" fill-rule="evenodd">
        <g id="内容中心-列表-其他" transform="translate(-304.000000, -133.000000)" fill-rule="nonzero">
            <g id="icon/32/分析选中备份-41" transform="translate(304.000000, 133.000000)">
                <rect id="矩形" fill="#000000" opacity="0" x="0" y="0" width="32" height="32"></rect>
                <path d="M23.5507031,27.3812891 L8.51164062,27.3812891 C6.39742187,27.3812891 4.68351562,25.6673828 4.68351562,23.5531641 L4.68351562,8.51410156 C4.68351562,6.39988281 6.39742187,4.68597656 8.51164062,4.68597656 L23.5507031,4.68597656 C25.6649219,4.68597656 27.3788281,6.39988281 27.3788281,8.51410156 L27.3788281,23.5531641 C27.3788281,25.6673828 25.6649219,27.3812891 23.5507031,27.3812891 Z" id="路径" fill="#38D392"></path>
                <path d="M12.5889029,15.877193 C12.5889029,13.6666667 13.4627995,11.619883 14.8530895,10.1461988 L13.7408575,9 C12.3108449,10.5146199 11.3177806,12.5204678 11.0794452,14.7309942 C11.0397226,15.0994152 11,15.4678363 11,15.877193 C11,16.2865497 11.0397226,16.6549708 11.0794452,17.0233918 C11.3575032,19.3567251 12.39029,21.4444444 13.9791929,23 L15.1311475,21.8538012 C13.5422446,20.3391813 12.5889029,18.251462 12.5889029,15.877193 L12.5889029,15.877193 Z M16.1639344,15.877193 C16.1639344,14.6900585 16.6406053,13.5847953 17.3953342,12.7660819 L16.2433796,11.619883 C15.2105927,12.7251462 14.5750315,14.2397661 14.5750315,15.877193 C14.5750315,17.6783626 15.3297604,19.3157895 16.5214376,20.4210526 L17.6733922,19.2748538 C16.7200504,18.4561404 16.1639344,17.2280702 16.1639344,15.877193 Z M18.7459016,14.1988304 C18.3486759,14.6491228 18.1103405,15.2222222 18.1103405,15.877193 C18.1103405,16.6959064 18.5075662,17.3918129 19.0636822,17.8421053 L20.6923077,16.2046784 L18.7459016,14.1988304 L18.7459016,14.1988304 Z" id="形状" fill="#C0F8F5" transform="translate(15.846154, 16.000000) scale(-1, 1) translate(-15.846154, -16.000000) "></path>
            </g>
        </g>
    </g>
</svg>