<?xml version="1.0" encoding="UTF-8"?>
<svg width="16px" height="16px" viewBox="0 0 16 16" version="1.1" xmlns="http://www.w3.org/2000/svg" xmlns:xlink="http://www.w3.org/1999/xlink">
    <title>切片</title>
    <g id="1.3.4" stroke="none" stroke-width="1" fill="none" fill-rule="evenodd">
        <g id="DashBoard" transform="translate(-1102.000000, -231.000000)" fill="#fff" fill-rule="nonzero">
            <g id="icon/16/用户标签" transform="translate(1102.000000, 231.000000)">
                <g id="数译_标签" transform="translate(3.000000, 2.000000)">
                    <rect id="矩形" opacity="0" x="0" y="0" width="12" height="12"></rect>
                    <path d="M6.95,11.8 C6.8,11.8 6.7,11.75 6.6,11.65 L0.350000004,5.4 C0.250000008,5.3 0.200000004,5.15 0.200000004,5.05 L0.3,0.800000004 C0.3,0.550000008 0.500000004,0.3 0.800000004,0.3 L5.05,0.200000004 C5.14999999,0.200000004 5.29999999,0.250000008 5.4,0.350000004 L11.65,6.6 C11.85,6.8 11.85,7.1 11.65,7.3 L7.3,11.65 C7.2,11.75 7.09999999,11.8 6.95,11.8 Z M1.2,4.85 L6.95,10.6 L10.6,6.95 L4.85,1.2 L1.25,1.25 L1.2,4.85 Z M2.55,3.3 C2.55,3.71421356 2.88578644,4.05 3.3,4.05 C3.71421356,4.05 4.05,3.71421356 4.05,3.3 C4.05,2.88578644 3.71421356,2.55 3.3,2.55 C2.88578644,2.55 2.55,2.88578644 2.55,3.3 Z" id="形状"></path>
                </g>
            </g>
        </g>
    </g>
</svg>