<?xml version="1.0" encoding="UTF-8"?>
<svg width="24px" height="24px" viewBox="0 0 24 24" version="1.1" xmlns="http://www.w3.org/2000/svg" xmlns:xlink="http://www.w3.org/1999/xlink">
    <g id="1.3.4" stroke="none" stroke-width="1" fill="none" fill-rule="evenodd">
        <g id="DashBoard" transform="translate(-398.000000, -1388.000000)">
            <g id="ds/-4" transform="translate(382.000000, 1368.000000)">
                <g id="icon/16/-6" transform="translate(16.000000, 20.000000)">
                    <rect id="矩形" x="0" y="0" width="24" height="24"></rect>
                    <path d="M14.9752577,4.79381443 C14.6041237,6.76082474 15.9030928,8.65360824 17.8701031,9.01237113 C18.0927835,9.04948453 18.3154639,9.07422679 18.5381443,9.07422681 C18.7608247,9.07422681 18.9835051,9.04948454 19.1938144,9.01237113 L19.1938144,16.1876289 C19.1938144,19.2061856 17.4123711,20.9876924 14.3938144,20.9876924 L7.81237114,20.9876924 C4.7814433,21 3,19.2061856 3,16.1876289 L3,9.61855671 C3,6.6 4.7814433,4.79381443 7.81237114,4.79381443 L14.9752577,4.79381443 Z M15.0865979,10.1876289 L14.9876289,10.2 C14.814433,10.2247423 14.6536083,10.3237113 14.5546392,10.4597938 L12.3773196,13.2556701 L9.90309278,11.3134021 C9.61855669,11.0907217 9.19793814,11.1402062 8.9628866,11.4247423 C8.9628866,11.4247423 8.9628866,11.4371134 8.95051546,11.4371134 L6.30309278,14.8639175 C6.2041237,14.9752577 6.15463918,15.1237113 6.15463918,15.2721649 L6.15463918,15.371134 C6.19175258,15.7298969 6.51340207,16.0020619 6.87216496,15.9649485 C7.08247423,15.9402062 7.26804124,15.828866 7.3670103,15.6556701 L9.59381444,12.785567 L12.0680412,14.7154639 C12.3525773,14.9505155 12.7731959,14.9010309 13.0082474,14.6164949 L13.0206186,14.6041237 L15.6061856,11.2886598 L15.6061856,11.2762887 C15.828866,10.9793814 15.7670103,10.5587629 15.4824742,10.3360825 C15.3835051,10.2618557 15.2597938,10.2123711 15.1360825,10.2 L15.0865979,10.1876289 L15.0865979,10.1876289 Z M18.7484536,3 C19.985567,3 21,4.00206186 21,5.2515464 C21,6.4886598 19.9979381,7.50309278 18.7484536,7.50309278 C17.5113402,7.50309278 16.4969072,6.50103092 16.4969072,5.2515464 C16.4969072,4.00206188 17.4989691,3 18.7484536,3 Z" id="形状" fill="#26CEBA" fill-rule="nonzero"></path>
                </g>
            </g>
        </g>
    </g>
</svg>