<?xml version="1.0" encoding="UTF-8"?>
<svg width="24px" height="24px" viewBox="0 0 24 24" version="1.1" xmlns="http://www.w3.org/2000/svg" xmlns:xlink="http://www.w3.org/1999/xlink">
    <g id="1.3.4" stroke="none" stroke-width="1" fill="none" fill-rule="evenodd">
        <g id="DashBoard" transform="translate(-398.000000, -1076.000000)">
            <g id="ds" transform="translate(382.000000, 1056.000000)">
                <g id="icon/16/-6" transform="translate(16.000000, 20.000000)">
                    <rect id="矩形" x="0" y="0" width="24" height="24"></rect>
                    <path d="M17.05,11 C19.5076671,11 21.5,12.9923329 21.5,15.45 C21.5,17.9076671 19.5076671,19.9 17.05,19.9 C14.5923329,19.9 12.6,17.9076671 12.6,15.45 C12.6,12.9923329 14.5923329,11 17.05,11 L17.05,11 Z M19.4185023,12.9317977 L14.0922327,14.9875509 C13.7909256,15.1019713 13.7985537,15.2736019 14.1074887,15.3632312 L15.3947182,15.7446325 L15.9172381,17.302657 C15.9858903,17.5067067 16.1651489,17.5505678 16.3177094,17.3980073 L16.9927898,16.730555 L18.3276945,17.7050354 C18.4993251,17.8328048 18.6766767,17.7660596 18.7243518,17.5543818 L19.6969252,13.1720806 C19.7426934,12.9623098 19.620645,12.8555175 19.4185023,12.9317977 L19.4185023,12.9317977 Z M18.6080244,13.9234412 L16.3348725,15.9467752 C16.2908767,15.9906252 16.2621309,16.0474484 16.2528712,16.1088708 L16.1517999,17.0528391 C16.1403578,17.1577244 16.1041247,17.1634455 16.0697986,17.0604671 L15.6311871,15.7350975 C15.6150389,15.6812872 15.6359351,15.6232422 15.6826762,15.592072 L18.5641633,13.864324 C18.7491429,13.7537176 18.768213,13.7804157 18.6080244,13.9215342 L18.6080244,13.9234412 Z" id="形状" fill="#FFC069" fill-rule="nonzero"></path>
                    <path d="M11.1161035,13.9326945 C10.4845099,17.7456026 12.966648,19.1341254 13.696544,19.1341254 L11.3618597,19.11938 C10.9551331,19.1206088 10.545949,19.1120073 10.1392224,19.0935756 C9.16386591,19.0499833 8.19016643,18.9749887 7.21963819,18.8687086 C6.77467867,18.8233175 6.3306022,18.7696514 5.88763935,18.7077383 C5.5477242,18.6602115 5.20925772,18.6028443 4.87266606,18.5357089 C4.59496151,18.479185 4.41924578,18.4226611 4.3467477,18.3649083 C4.21403933,18.2739785 4.11450805,17.9925876 4.04815386,17.5195069 C3.98179968,17.0476549 4.00883286,16.4406369 4.12925341,15.7009106 C4.17840465,15.4158334 4.27670716,15.182365 4.42907604,15.0005053 C4.58021613,14.8174169 4.76330454,14.6613617 4.98202759,14.5298821 C5.20935212,14.3947162 5.45265079,14.2878122 5.7070085,14.2140854 C5.97734037,14.1329858 6.25012981,14.0555726 6.52291924,13.9830745 C6.79325111,13.9118052 7.06358298,13.8319344 7.32899973,13.7446909 C7.58950134,13.6586762 7.82788491,13.5530011 8.04537918,13.4288942 C8.2997369,13.2814404 8.4951131,13.1339867 8.63519417,12.9926768 C8.77281767,12.8501382 8.87234894,12.7100572 8.933788,12.5748912 C8.99385268,12.4403398 9.02483809,12.2946247 9.02471781,12.1472753 C9.02471781,11.9998216 9.01734513,11.8339361 9.00628609,11.6508477 C8.99293028,11.4137195 8.88913899,11.1907442 8.71629372,11.0278556 C8.53443409,10.8644277 8.34765934,10.7083725 8.15351193,10.55969 C8.04598865,10.4657668 7.95718657,10.352367 7.89178152,10.2254615 C7.81367129,10.0842704 7.74392028,9.93861383 7.68288871,9.78924417 C7.62144965,9.61352846 7.56001058,9.43658395 7.50225788,9.26086825 C7.41134762,9.23519941 7.32537424,9.19449703 7.24790017,9.14044768 C7.16124386,9.0693395 7.08218056,8.98945263 7.01197416,8.90206413 C6.91228736,8.76870287 6.83851251,8.61781871 6.79447989,8.45724533 C6.73711218,8.28729074 6.71251111,8.10799484 6.7219818,7.92886941 C6.73426962,7.76912784 6.77113305,7.62658923 6.83011455,7.50125355 C6.87926579,7.37591786 6.9579078,7.2554973 7.06604054,7.14122063 C7.06604054,6.70868963 7.09061616,6.27615865 7.13976742,5.84362767 C7.18768989,5.47867965 7.27124701,5.08669844 7.39289635,4.6639977 C7.507173,4.25727112 7.69763409,3.87389136 7.95444936,3.53720531 C8.17440119,3.24106904 8.43736038,2.97810985 8.73349666,2.76061557 C9.00259975,2.56646815 9.29504968,2.40795536 9.60470255,2.28999237 C9.89469493,2.17940207 10.1945175,2.10198884 10.5017128,2.06021028 C10.7867901,2.02088928 11.0743249,2.00122878 11.3618597,2 C11.7132911,2 12.062265,2.03686344 12.405095,2.11059031 C12.7491537,2.18431719 13.0723232,2.28507723 13.3758321,2.41041294 C13.6584518,2.52468958 13.9275549,2.66845699 14.1819126,2.83680002 C14.4166098,2.99654158 14.600927,3.15628313 14.7348642,3.3160247 C15.0420595,3.66622735 15.2755279,4.07664027 15.4229816,4.52023029 C15.5679778,4.95767641 15.6711954,5.37669081 15.7314057,5.77604471 C15.7928448,6.23438011 15.8223355,6.69640185 15.8223355,7.15842357 C15.9062357,7.2147572 15.9746758,7.29122416 16.0213981,7.38083298 C16.0760394,7.4766713 16.1158136,7.58024995 16.1393611,7.68802828 C16.1700806,7.81336396 16.1725382,7.96819039 16.1491913,8.15005002 C16.1246157,8.40072139 16.0730069,8.59732638 15.9943649,8.739865 C15.9283361,8.86599508 15.8391258,8.97855003 15.7314057,9.07163594 C15.6313793,9.15803665 15.5140879,9.22212799 15.387347,9.25963947 L15.3136201,9.48082009 L15.2239191,9.72043243 C15.1993435,9.80030321 15.1698527,9.88508911 15.1342181,9.97601892 C14.5173699,10.2156313 13.9730198,10.5584612 13.4385,10.9307819 C12.0020547,11.9310099 11.264786,13.0344554 11.1161035,13.9326945 L11.1161035,13.9326945 Z" id="路径" fill="#FFC069"></path>
                    <path d="M15.3994862,3 C15.6577336,3.00110143 15.9159811,3.01872428 16.1720213,3.05396998 C16.4479267,3.09141853 16.7172104,3.1608085 16.977665,3.25993702 C17.2557777,3.3656741 17.5184396,3.50775832 17.7601328,3.68178395 C18.0261056,3.8767367 18.2622806,4.11244231 18.4598288,4.37788646 C18.6904857,4.67967774 18.8615471,5.0233233 18.9641839,5.38789597 C19.0734424,5.76678721 19.1484887,6.11814276 19.1915299,6.44526688 C19.2356748,6.83296954 19.2577472,7.2206722 19.2577472,7.60837487 C19.3548659,7.71080768 19.4254977,7.81874764 19.4696426,7.9310933 C19.5226164,8.04343895 19.5557251,8.17120459 19.5667613,8.31439024 C19.5752673,8.47495078 19.553172,8.63566412 19.5016476,8.7880043 C19.4621,8.93193555 19.3958396,9.06718179 19.3063066,9.18672124 C19.2432512,9.26505264 19.172241,9.33665987 19.0944112,9.40039827 C19.0248284,9.44884585 18.947612,9.48532975 18.8659616,9.50833822 C18.8140914,9.66584243 18.7589103,9.82444807 18.7037292,9.98195227 C18.6489141,10.115841 18.5862677,10.2464014 18.5161135,10.3729592 C18.4573704,10.486712 18.3776134,10.5883588 18.2810421,10.6725477 L18.0241742,10.8774133 L18.0241742,10.8774133 L17.8076528,11.0642395 C17.5614227,11.022004 17.308281,11 17.05,11 C16.7896333,11 16.5344892,11.0223608 16.2863834,11.0652667 C16.4460493,10.9205132 16.6235431,10.7074856 16.7927257,10.5781792 C16.889297,10.4939904 16.969054,10.3923436 17.0277971,10.2785908 C17.0979512,10.152033 17.1605976,10.0214726 17.2154127,9.88758385 L17.3776451,9.4139698 L17.3776451,9.4139698 C17.4592955,9.39096133 17.5365119,9.35447742 17.6060948,9.30602985 C17.6839245,9.24229145 17.7549347,9.17068421 17.8179901,9.09235281 C17.9075231,8.97281336 17.9737835,8.83756713 18.0133311,8.69363587 C18.0648556,8.54129569 18.0869508,8.38058236 18.0784448,8.22002182 C18.0674086,8.07683617 18.0342999,7.94907053 17.9813261,7.83672487 C17.9371812,7.72437921 17.8665495,7.61643926 17.7694308,7.51400644 C17.7694308,7.12630377 17.7473583,6.73860111 17.7032135,6.35089845 C17.6601722,6.02377433 17.585126,5.67241879 17.4758674,5.29352755 C17.3732306,4.92895487 17.2021693,4.58530932 16.9715124,4.28351804 C16.7739641,4.01807388 16.5377891,3.78236828 16.2718163,3.58741552 C16.0301231,3.4133899 15.7674612,3.27130567 15.4893486,3.16556859 C15.3296116,3.10477302 15.1665537,3.05516324 15,3.01777089 C15.1325988,3.00592363 15.2658447,3 15.3994862,3 Z" id="形状" fill="#FFC069"></path>
                </g>
            </g>
        </g>
    </g>
</svg>