<?xml version="1.0" encoding="UTF-8"?>
<svg width="32px" height="32px" viewBox="0 0 32 32" version="1.1" xmlns="http://www.w3.org/2000/svg" xmlns:xlink="http://www.w3.org/1999/xlink">
    <g id="智慧运营v1.3" stroke="none" stroke-width="1" fill="none" fill-rule="evenodd">
        <g id="内容中心-列表-图片" transform="translate(-304.000000, -133.000000)">
            <g id="icon/32/分析选中备份-41" transform="translate(304.000000, 133.000000)">
                <rect id="矩形" fill="#000000" fill-rule="nonzero" opacity="0" x="0" y="0" width="32" height="32"></rect>
                <path d="M8,10 C8,10.7145312 8.38119781,11.3747852 9,11.7320508 C9.61880214,12.0893164 10.3811979,12.0893164 11,11.7320508 C11.6188022,11.3747852 12,10.7145312 12,10 C12,9.28546883 11.6188022,8.62521479 11,8.2679492 C10.3811979,7.9106836 9.61880214,7.9106836 9,8.2679492 C8.38119781,8.62521479 8,9.28546883 8,10 L8,10 Z" id="路径" fill="#2749F1" fill-rule="nonzero"></path>
                <path d="M20.3752415,7.5837704 L29.1800682,23.5163139 C29.4472007,23.9996964 29.2718953,24.6081091 28.7885128,24.8752415 C28.6404337,24.9570747 28.4740131,25 28.3048267,25 L10.6951733,25 C10.1428886,25 9.69517333,24.5522847 9.69517333,24 C9.69517333,23.8308135 9.73809865,23.6643929 9.8199318,23.5163139 L18.6247585,7.5837704 C18.8918909,7.10038785 19.5003036,6.92508251 19.9836861,7.19221497 C20.1484598,7.28327413 20.2841824,7.41899669 20.3752415,7.5837704 Z" id="三角形" fill="#2749F1"></path>
                <path d="M13.8637789,14.4807638 L19.1227419,23.496129 C19.4010222,23.9731809 19.2398859,24.5854986 18.762834,24.8637789 C18.609898,24.9529916 18.4360176,25 18.258963,25 L7.741037,25 C7.18875225,25 6.741037,24.5522847 6.741037,24 C6.741037,23.8229454 6.7880454,23.649065 6.8772581,23.496129 L12.1362211,14.4807638 C12.4145014,14.0037119 13.0268191,13.8425757 13.503871,14.120856 C13.6528747,14.2077747 13.7768601,14.3317602 13.8637789,14.4807638 Z" id="三角形备份" fill="#8CE8E5"></path>
            </g>
        </g>
    </g>
</svg>