<?xml version="1.0" encoding="UTF-8"?>
<svg width="32px" height="32px" viewBox="0 0 32 32" version="1.1" xmlns="http://www.w3.org/2000/svg" xmlns:xlink="http://www.w3.org/1999/xlink">
    <g id="智慧运营v1.3" stroke="none" stroke-width="1" fill="none" fill-rule="evenodd">
        <g id="内容中心-列表-其他" transform="translate(-458.000000, -127.000000)" fill-rule="nonzero">
            <g id="icon/32/分析选中备份-51" transform="translate(458.000000, 127.000000)">
                <rect id="矩形" fill="#000000" opacity="0" x="0" y="0" width="32" height="32"></rect>
                <path d="M23.6759261,10.3566582 C23.6759261,8.50254431 22.0944425,7 20.1433821,7 L6.53266308,7 C4.58160273,7 3,8.50254431 3,10.3566582 L3,21.6431139 C3,23.4972278 4.58160273,25 6.53254393,25 L20.1433821,25 C22.0944425,25 23.6759261,23.497 23.6759261,21.6432278 C23.6759048,21.5246874 23.7344586,21.4131068 23.8338588,21.3422701 C23.933259,21.2714334 24.0618174,21.2496701 24.1806093,21.2835696 L27.1618857,22.1331013 C27.9185531,22.3487595 28.7148945,21.937038 28.9404293,21.2133924 C28.9799246,21.0866921 29,20.9551836 29,20.8229747 L29,11.1235949 C29,10.3686203 28.359853,9.75650634 27.5703026,9.75650634 C27.4319989,9.75650443 27.2944268,9.77569166 27.1618857,9.81346835 L24.1271147,10.6782658 C24.0209022,10.708568 23.9059611,10.6890999 23.8170957,10.6257566 C23.7282303,10.5624133 23.675891,10.4626437 23.6759261,10.3566582 L23.6759261,10.3566582 Z" id="路径" fill="#F96F70"></path>
                <path d="M11,18.567198 L11,12.4325032 C11,11.6412839 11.6656577,11 12.4866728,11 C12.7682815,11 13.0441068,11.077014 13.2820427,11.2221574 L18.3084834,14.289266 C19.002264,14.7125707 19.208416,15.597619 18.7691042,16.266001 C18.6515252,16.4448827 18.4942533,16.5964241 18.3086073,16.7097189 L13.2821666,19.7774245 C12.5885098,20.2008485 11.6701177,20.0022081 11.2306821,19.333826 C11.079984,19.104538 11,18.8387176 11,18.5673174 L11,18.567198 Z" id="路径" fill="#FDE0D9"></path>
            </g>
        </g>
    </g>
</svg>