<?xml version="1.0" encoding="UTF-8"?>
<svg width="24px" height="24px" viewBox="0 0 24 24" version="1.1" xmlns="http://www.w3.org/2000/svg" xmlns:xlink="http://www.w3.org/1999/xlink">
    <g id="1.3.4" stroke="none" stroke-width="1" fill="none" fill-rule="evenodd">
        <g id="DashBoard" transform="translate(-174.000000, -1388.000000)">
            <g id="ds/-12" transform="translate(158.000000, 1368.000000)">
                <g id="icon/16/-6" transform="translate(16.000000, 20.000000)">
                    <rect id="矩形" x="0" y="0" width="24" height="24"></rect>
                    <path d="M11.9520896,3.0113442 C14.0124984,3.0113442 15.6828613,4.67898337 15.6828613,6.73629903 C15.6828613,7.35390961 15.5314663,7.93577875 15.2648539,8.44896501 L18.2844395,10.7884446 C18.6582472,10.5258602 19.113459,10.3710149 19.6052939,10.3710149 C20.8745271,10.3710149 21.9039273,11.3984169 21.9039273,12.6661471 C21.9039273,13.9336303 20.8745271,14.9610734 19.6052939,14.9610734 C18.3355956,14.9610734 17.3062729,13.9336509 17.3062729,12.6661471 C17.3062729,12.3802567 17.3590373,12.106884 17.4549356,11.8543674 L14.4355438,9.51517607 C13.9357448,9.96064711 13.3144889,10.2733436 12.6279896,10.3986446 L12.6279896,13.97316 C13.9705659,14.2796182 14.9719853,15.4785832 14.9719853,16.9115559 C14.9719853,18.5765186 13.6195265,19.9267259 11.9520121,19.9267259 C10.2840907,19.9267259 8.93211644,18.5765186 8.93211644,16.9115559 C8.93211644,15.4785215 9.93353583,14.2796182 11.2760152,13.97316 L11.2760152,10.3986446 C10.5892059,10.2733436 9.96825997,9.96075005 9.46844163,9.5152996 L6.44924356,11.8544498 C6.54708653,12.1124786 6.59739628,12.3880664 6.59744123,12.6662501 C6.59744123,13.9337538 5.56842855,14.9611763 4.29880781,14.9611763 C3.02938085,14.9611763 2,13.9337538 2,12.6662501 C2,11.3985198 3.02940022,10.3710973 4.29880781,10.3710973 C4.79056519,10.3710973 5.24575758,10.5258602 5.61966216,10.7884446 L8.6388796,8.44896501 C8.37255785,7.93588169 8.22114355,7.35390961 8.22114355,6.73640197 C8.22104667,4.67898337 9.89150644,3.0113442 11.9520896,3.0113442" id="路径" fill="#488BFF" fill-rule="nonzero"></path>
                </g>
            </g>
        </g>
    </g>
</svg>