<?xml version="1.0" encoding="UTF-8"?>
<svg width="24px" height="24px" viewBox="0 0 24 24" version="1.1" xmlns="http://www.w3.org/2000/svg" xmlns:xlink="http://www.w3.org/1999/xlink">
    <g id="1.3.4" stroke="none" stroke-width="1" fill="none" fill-rule="evenodd">
        <g id="DashBoard" transform="translate(-622.000000, -1180.000000)">
            <g id="ds/-5" transform="translate(606.000000, 1160.000000)">
                <g id="icon/16/-6" transform="translate(16.000000, 20.000000)">
                    <rect id="矩形" x="0" y="0" width="24" height="24"></rect>
                    <path d="M20.6953427,4.54941532 C20.6663105,3.85844758 20.1030847,3.29231855 19.4092137,3.26328629 L13.2688911,3.00489919 C12.8246976,2.98747984 12.3834073,3.15586694 12.0669556,3.47522177 L3.50243952,12.0397379 C2.83766828,12.7054181 2.83766828,13.7837351 3.50243952,14.4494153 L9.50921371,20.4561895 C9.83147177,20.7784476 10.258246,20.9555444 10.7140524,20.9555444 C11.1698589,20.9555444 11.5966331,20.7784476 11.9188911,20.4561895 L20.4834073,11.8916734 C20.8003231,11.5737468 20.970708,11.1383186 20.9537298,10.6897379 L20.6953427,4.54941532 L20.6953427,4.54941532 Z M17.4088911,9.5865121 C16.9948329,10.0028805 16.4312512,10.2360507 15.8440524,10.2339458 C15.2517944,10.2339458 14.6972782,10.0045766 14.2792137,9.5865121 C13.4169556,8.72425403 13.4169556,7.31909274 14.2792137,6.45683468 C14.6932719,6.04046628 15.2568537,5.8072961 15.8440524,5.809401 C16.4363105,5.809401 16.9908266,6.03877016 17.4088911,6.45683468 C18.2711492,7.31909274 18.2711492,8.72425403 17.4088911,9.5865121 Z" id="形状" fill="#488BFF" fill-rule="nonzero"></path>
                </g>
            </g>
        </g>
    </g>
</svg>