<?xml version="1.0" encoding="UTF-8"?>
<svg width="32px" height="32px" viewBox="0 0 32 32" version="1.1" xmlns="http://www.w3.org/2000/svg" xmlns:xlink="http://www.w3.org/1999/xlink">
    <g id="智慧运营v1.3" stroke="none" stroke-width="1" fill="none" fill-rule="evenodd">
        <g id="内容中心-列表-其他" transform="translate(-847.000000, -127.000000)" fill-rule="nonzero">
            <g id="icon/32/分析选中备份-48" transform="translate(847.000000, 127.000000)">
                <rect id="矩形" fill="#000000" opacity="0" x="0" y="0" width="32" height="32"></rect>
                <g id="图文" transform="translate(4.000000, 4.000000)">
                    <rect id="矩形" fill="#000000" opacity="0" x="0" y="0.00722673893" width="24.0740741" height="24.0740741"></rect>
                    <path d="M24.071809,12.0442638 C24.1921576,19.515558 19.5081906,24.1947448 12.0369503,24.0792093 C4.56570995,24.1947448 -0.113443156,19.5155579 0.00209149123,12.0442638 C-0.113443156,4.57296958 4.56570995,-0.106217235 12.0369503,0.00931824525 C19.5081906,-0.106217235 24.1873437,4.5729696 24.071809,12.0442638 Z" id="路径" fill="#F96F70"></path>
                    <path d="M12.7314815,5.56278229 L17.8240741,5.56278229 C18.2870371,5.56278229 18.5185185,5.87142427 18.5185185,6.48870822 L18.5185185,6.48870822 C18.5185185,7.10599217 18.287037,7.41463415 17.8240741,7.41463415 L12.7314815,7.41463415 C12.2685185,7.41463415 12.037037,7.10599217 12.037037,6.48870822 L12.037037,6.48870822 C12.037037,5.87142427 12.2685185,5.56278229 12.7314815,5.56278229 Z" id="路径" fill="#FFFFFF"></path>
                    <path d="M12.7314815,9.266486 L17.8240741,9.266486 C18.2870371,9.266486 18.5185185,9.57512797 18.5185185,10.1924119 L18.5185185,10.1924119 C18.5185185,10.8096959 18.287037,11.1183379 17.8240741,11.1183379 L12.7314815,11.1183379 C12.2685185,11.1183379 12.037037,10.8096959 12.037037,10.1924119 L12.037037,10.1924119 C12.037037,9.57512797 12.2685185,9.266486 12.7314815,9.266486 Z" id="路径" fill="#FFFFFF"></path>
                    <path d="M6.94444443,5.56278229 L9.72222221,5.56278229 C10.6481481,5.56278229 11.1111111,6.02574525 11.1111111,6.95167117 L11.1111111,9.72944897 C11.1111111,10.6553749 10.6481481,11.1183379 9.72222221,11.1183379 L6.94444443,11.1183379 C6.0185185,11.1183379 5.55555556,10.6553749 5.55555556,9.72944897 L5.55555556,6.95167117 C5.55555556,6.02574524 6.01851851,5.56278229 6.94444443,5.56278229 Z" id="路径" fill="#FFCBBD"></path>
                    <path d="M6.94444443,12.9701897 L9.72222221,12.9701897 C10.6481481,12.9701897 11.1111111,13.4331527 11.1111111,14.3590786 L11.1111111,17.1368564 C11.1111111,18.0627823 10.6481481,18.5257453 9.72222221,18.5257453 L6.94444443,18.5257453 C6.0185185,18.5257453 5.55555556,18.0627823 5.55555556,17.1368564 L5.55555556,14.3590786 C5.55555556,13.4331527 6.01851851,12.9701897 6.94444443,12.9701897 Z" id="路径" fill="#FFCBBD"></path>
                    <path d="M12.7314815,13.8961156 L17.8240741,13.8961156 C18.2870371,13.8961156 18.5185185,14.2047576 18.5185185,14.8220416 L18.5185185,14.8220416 C18.5185185,15.4393255 18.287037,15.7479675 17.8240741,15.7479675 L12.7314815,15.7479675 C12.2685185,15.7479675 12.037037,15.4393255 12.037037,14.8220416 L12.037037,14.8220416 C12.037037,14.2047576 12.2685185,13.8961156 12.7314815,13.8961156 Z" id="路径" fill="#FFFFFF"></path>
                    <path d="M12.7314815,16.6738934 L17.8240741,16.6738934 C18.2870371,16.6738934 18.5185185,16.9825354 18.5185185,17.5998193 L18.5185185,17.5998193 C18.5185185,18.2171033 18.287037,18.5257453 17.8240741,18.5257453 L12.7314815,18.5257453 C12.2685185,18.5257453 12.037037,18.2171033 12.037037,17.5998193 L12.037037,17.5998193 C12.037037,16.9825354 12.2685185,16.6738934 12.7314815,16.6738934 Z" id="路径" fill="#FFFFFF"></path>
                </g>
            </g>
        </g>
    </g>
</svg>