<?xml version="1.0" encoding="UTF-8"?>
<svg width="24px" height="24px" viewBox="0 0 24 24" version="1.1" xmlns="http://www.w3.org/2000/svg" xmlns:xlink="http://www.w3.org/1999/xlink">
    <g id="1.3.4" stroke="none" stroke-width="1" fill="none" fill-rule="evenodd">
        <g id="DashBoard" transform="translate(-846.000000, -1076.000000)">
            <g id="ds/-5" transform="translate(830.000000, 1056.000000)">
                <g id="icon/16/-6" transform="translate(16.000000, 20.000000)">
                    <rect id="矩形" x="0" y="0" width="24" height="24"></rect>
                    <path d="M12,3 C16.9705627,3 21,7.02943725 21,12 C21,16.9705627 16.9705627,21 12,21 C7.02943725,21 3,16.9705627 3,12 L3,5 C3,3.8954305 3.8954305,3 5,3 L12,3 Z M12,6.52173913 C8.97444007,6.52173913 6.52173913,8.97444007 6.52173913,12 C6.52173913,15.0255599 8.97444007,17.4782609 12,17.4782609 C15.0255599,17.4782609 17.4782609,15.0255599 17.4782609,12 C17.4782609,8.97444007 15.0255599,6.52173913 12,6.52173913 Z" id="形状结合" fill="#FFC069"></path>
                    <path d="M13.89,10.7165217 C12.9586956,10.1569565 11.37,9.75391305 11.013913,10.3486956 C10.6578261,10.9434782 11.3034783,11.7026087 12.453913,11.823913 C13.3930435,11.9256522 14.1247826,12.2934783 14.3243478,12.8256522 C14.6373913,14.2891304 13.713913,15.5217391 11.9491304,15.5217391 C11.1195652,15.5217391 8.84217392,14.5630435 9.58956521,13.616087 C9.60130434,13.623913 9.90260869,13.6669565 9.91434782,13.6747826 C10.8691304,14.2343478 12.5086956,14.6373913 12.8726087,14.0426087 C13.2365217,13.4478261 12.6965217,13.0017391 11.3934783,12.5634783 C11.0295652,12.4421739 9.89478261,12.3678261 9.60521739,11.5656522 C9.3,10.0982609 10.196087,8.86956521 11.913913,8.86956521 C12.716087,8.86956521 14.9308696,9.82826085 14.2030435,10.7752174 C14.1913044,10.7673913 13.9017391,10.7243478 13.89,10.7165217 L13.89,10.7165217 Z" id="路径" fill="#FFC069" fill-rule="nonzero"></path>
                </g>
            </g>
        </g>
    </g>
</svg>