<?xml version="1.0" encoding="UTF-8"?>
<svg width="32px" height="32px" viewBox="0 0 32 32" version="1.1" xmlns="http://www.w3.org/2000/svg" xmlns:xlink="http://www.w3.org/1999/xlink">
    <g id="智慧运营v1.3" stroke="none" stroke-width="1" fill="none" fill-rule="evenodd">
        <g id="内容中心-列表-其他" transform="translate(-1052.000000, -127.000000)">
            <g id="icon/32/分析选中备份-50" transform="translate(1052.000000, 127.000000)">
                <path d="M9,5 L24,5 C25.1045695,5 26,5.8954305 26,7 L26,21 C26,24.8659932 22.8659932,28 19,28 L9,28 C7.8954305,28 7,27.1045695 7,26 L7,7 C7,5.8954305 7.8954305,5 9,5 Z" id="矩形" fill="#00AC83"></path>
                <polygon id="多边形" fill="#6FD782" points="22.5 8 28.9951905 11.75 28.9951905 19.25 22.5 23 16.0048095 19.25 16.0048095 11.75"></polygon>
                <path d="M22.5,8 L25.9998095,10.021 L26,20 C26,20.344524 25.9782217,20.6839614 25.9359666,21.0170106 L22.5,23 L16.0048095,19.25 L16.0048095,11.75 L22.5,8 Z" id="形状结合" fill="#6FD782"></path>
                <path d="M22.5,17.5819866 C23.6045695,17.5819866 24.5,16.6865561 24.5,15.5819866 C24.5,14.4774171 23.6045695,13.5819866 22.5,13.5819866 C21.3954305,13.5819866 20.5,14.4774171 20.5,15.5819866 C20.5,16.6865561 21.3954305,17.5819866 22.5,17.5819866 Z" id="椭圆形" fill="#B6EED8"></path>
            </g>
        </g>
    </g>
</svg>