<?xml version="1.0" encoding="UTF-8"?>
<svg width="24px" height="24px" viewBox="0 0 24 24" version="1.1" xmlns="http://www.w3.org/2000/svg" xmlns:xlink="http://www.w3.org/1999/xlink">
    <g id="icon/24/说明" stroke="none" stroke-width="1" fill="none" fill-rule="evenodd">
        <g id="表规格说明书" transform="translate(4.981366, 4.000000)" fill-rule="nonzero">
            <path d="M8.99556108,0.00836645081 L1.01530435,0.00836645081 C0.750740397,0.00836645081 0.497002206,0.113413358 0.30992724,0.300488324 C0.122852275,0.487563289 0.0178053677,0.74130148 0.0178053677,1.00586543 L0.0178053677,14.9712484 C0.0178053677,15.2357894 0.122902943,15.4894936 0.309974098,15.6765399 C0.497045252,15.8635862 0.750763358,15.9686149 1.01530435,15.9686149 L12.9855569,15.9686149 C13.5363569,15.9686149 13.9829096,15.5221809 13.9830559,14.971381 L13.9830559,4.9961263 L8.99556108,0.00836645081 Z" id="路径" fill="#3AAD73"></path>
            <path d="M8.99556108,0.00836645963 L8.99556108,3.99849482 C8.99556108,4.5493251 9.44209726,4.99586128 9.99292754,4.99586128 L13.9830559,4.99586128 L8.99556108,0.00836645963 Z" id="路径" fill="#434854"></path>
            <polygon id="路径" fill="#256D50" points="9.99306003 4.9961263 13.9831884 8.98612215 13.9831884 4.9961263"></polygon>
            <path d="M6.50168115,7.4898737 L10.990559,7.4898737 L10.990559,9.48500413 L6.50168115,9.48500413 L6.50168115,7.4898737 Z M3.01043478,7.4898737 L6.00293168,7.4898737 L6.00293168,9.48500413 L3.01043478,9.48500413 L3.01043478,7.4898737 Z M6.50168115,9.98401863 L10.990559,9.98401863 L10.990559,11.4801346 L6.50168115,11.4801346 L6.50168115,9.98401863 Z M3.01043478,9.98401863 L6.00293168,9.98401863 L6.00293168,11.4801346 L3.01043478,11.4801346 L3.01043478,9.98401863 Z M6.50168115,11.9787516 L10.990559,11.9787516 L10.990559,13.4751325 L6.50168115,13.4751325 L6.50168115,11.9787516 Z M3.01043478,11.9787516 L6.00293168,11.9787516 L6.00293168,13.4751325 L3.01043478,13.4751325 L3.01043478,11.9787516 Z" id="形状" fill="#FFFFFF"></path>
        </g>
    </g>
</svg>
