<?xml version="1.0" encoding="UTF-8"?>
<svg width="24px" height="24px" viewBox="0 0 24 24" version="1.1" xmlns="http://www.w3.org/2000/svg" xmlns:xlink="http://www.w3.org/1999/xlink">
    <g id="1.3.4" stroke="none" stroke-width="1" fill="none" fill-rule="evenodd">
        <g id="DashBoard" transform="translate(-174.000000, -1284.000000)">
            <g id="ds/-11" transform="translate(158.000000, 1264.000000)">
                <g id="icon/16/-6" transform="translate(16.000000, 20.000000)">
                    <rect id="矩形" x="0" y="0" width="24" height="24"></rect>
                    <path d="M18,4 C19.6568542,4 21,5.34314575 21,7 L21,16 C21,17.6568542 19.6568542,19 18,19 L6,19 C4.34314575,19 3,17.6568542 3,16 L3,7 C3,5.34314575 4.34314575,4 6,4 L18,4 Z M17,6 L14,6 L14,17 L17,17 C18.1045695,17 19,16.1045695 19,15 L19,15 L19,8 C19,6.8954305 18.1045695,6 17,6 L17,6 Z" id="形状结合" fill="#26CEBA"></path>
                </g>
            </g>
        </g>
    </g>
</svg>