<?xml version="1.0" encoding="UTF-8"?>
<svg width="32px" height="32px" viewBox="0 0 32 32" version="1.1" xmlns="http://www.w3.org/2000/svg" xmlns:xlink="http://www.w3.org/1999/xlink">
    <g id="智慧运营v1.3" stroke="none" stroke-width="1" fill="none" fill-rule="evenodd">
        <g id="内容中心-列表-其他" transform="translate(-595.000000, -127.000000)">
            <g id="icon/32/分析选中备份-45" transform="translate(595.000000, 127.000000)">
                <rect id="矩形" fill="#F79300" x="4" y="4.5" width="24" height="23" rx="2"></rect>
                <path d="M6,4.5 L26,4.5 C27.1045695,4.5 28,5.3954305 28,6.5 L28,8.5 L28,8.5 L4,8.5 L4,6.5 C4,5.3954305 4.8954305,4.5 6,4.5 Z" id="矩形" fill="#FFB800"></path>
                <path d="M14.984375,16.9125 C15.3359375,16.940625 15.6,17.2484375 15.571875,17.6 C15.5640625,17.690625 15.5390625,17.7734375 15.5,17.8484375 C15.321875,18.25 15.4,18.7390625 15.728125,19.06875 L17.446875,20.790625 C17.8734375,21.2171875 18.5671875,21.2171875 18.99375,20.790625 C19.4203125,20.3640625 19.4203125,19.6703125 18.99375,19.24375 L18.353125,18.603125 L18.3578125,18.5984375 C18.209375,18.4703125 18.1234375,18.275 18.1390625,18.065625 C18.1671875,17.7140625 18.475,17.45 18.8265625,17.478125 C18.9953125,17.490625 19.1421875,17.56875 19.2484375,17.684375 L19.25,17.6828125 L19.903125,18.3359375 C20.83125,19.2640625 20.83125,20.7671875 19.903125,21.6953125 C18.975,22.6234375 17.471875,22.6234375 16.54375,21.6953125 L14.8203125,19.971875 C14.0984375,19.2484375 13.9421875,18.178125 14.3453125,17.3 C14.35,17.290625 14.353125,17.28125 14.3578125,17.271875 C14.359375,17.2703125 14.359375,17.26875 14.3609375,17.265625 C14.4734375,17.0390625 14.715625,16.8921875 14.984375,16.9125 Z M15.446875,14.021875 L17.1703125,15.7453125 C17.8921875,16.4671875 18.0484375,17.5375 17.646875,18.415625 C17.6421875,18.425 17.6390625,18.434375 17.634375,18.44375 C17.6328125,18.4453125 17.6328125,18.446875 17.63125,18.45 C17.51875,18.6765625 17.2765625,18.8234375 17.0078125,18.803125 C16.65625,18.775 16.3921875,18.4671875 16.4203125,18.115625 C16.428125,18.025 16.453125,17.9421875 16.4921875,17.8671875 C16.6703125,17.465625 16.5921875,16.9765625 16.2640625,16.646875 L14.54375,14.9265625 C14.1171875,14.5 13.4234375,14.5 12.996875,14.9265625 C12.5703125,15.353125 12.5703125,16.046875 12.996875,16.4734375 L13.6375,17.1140625 L13.6328125,17.11875 C13.78125,17.246875 13.8671875,17.4421875 13.8515625,17.6515625 C13.8234375,18.003125 13.515625,18.2671875 13.1640625,18.2390625 C12.9953125,18.2265625 12.8484375,18.1484375 12.7421875,18.0328125 L12.740625,18.034375 L12.0875,17.38125 C11.1609375,16.453125 11.1609375,14.9484375 12.0875,14.021875 C13.015625,13.09375 14.51875,13.09375 15.446875,14.021875 Z" id="形状结合" fill="#FFCE86" fill-rule="nonzero"></path>
            </g>
        </g>
    </g>
</svg>