<?xml version="1.0" encoding="UTF-8"?>
<svg width="24px" height="24px" viewBox="0 0 24 24" version="1.1" xmlns="http://www.w3.org/2000/svg" xmlns:xlink="http://www.w3.org/1999/xlink">
    <defs>
        <filter id="filter-1">
            <feColorMatrix in="SourceGraphic" type="matrix" values="0 0 0 0 0.282353 0 0 0 0 0.545098 0 0 0 0 1.000000 0 0 0 1.000000 0"></feColorMatrix>
        </filter>
    </defs>
    <g id="1.3.4" stroke="none" stroke-width="1" fill="none" fill-rule="evenodd">
        <g id="DashBoard" transform="translate(-846.000000, -1388.000000)">
            <g id="ds/-14" transform="translate(830.000000, 1368.000000)">
                <g id="icon/16/-6" transform="translate(16.000000, 20.000000)">
                    <rect id="矩形" x="0" y="0" width="24" height="24"></rect>
                    <g filter="url(#filter-1)" id="编组">
                        <g transform="translate(2.000000, 2.000000)">
                            <polygon id="路径" fill-opacity="0.01" fill="#515151" fill-rule="nonzero" points="0 0 20 0 20 20 0 20"></polygon>
                            <path d="M15.6771484,10.5357227 C15.9385742,10.5357227 16.1928516,10.56 16.44,10.6057227 C16.6542773,10.6442773 16.7971484,10.8442773 16.7685742,11.06 C16.7085742,11.5457227 16.8614258,11.9842773 17.2114258,12.1857227 C17.5571289,12.3857227 18.01,12.3028516 18.3971484,12.0128711 C18.5696337,11.881909 18.8144552,11.9088931 18.9542773,12.0742773 C19.2528516,12.4328711 19.4942773,12.8414258 19.6614258,13.2842773 C19.6986524,13.38657 19.6936718,13.4994677 19.6475819,13.5980848 C19.601492,13.6967019 19.5180765,13.7729421 19.4157227,13.81 C18.9385742,13.9928516 18.6157227,14.3557031 18.6157227,14.7728516 C18.6157227,15.1957031 18.9457227,15.5614258 19.43,15.7442773 C19.6428516,15.8228516 19.7585742,16.0528711 19.6814258,16.2657227 C19.5311952,16.6746386 19.319212,17.0581291 19.0528516,17.4028516 C18.9822642,17.4903153 18.8785577,17.544579 18.7664575,17.5527052 C18.6543573,17.5608314 18.5439089,17.5220918 18.4614453,17.4457227 C18.0528516,17.0842773 17.5471484,16.9628516 17.1671484,17.1828516 C16.7728516,17.4114258 16.6285742,17.9371484 16.7571484,18.4914453 C16.7842874,18.6002148 16.765542,18.7153575 16.7053032,18.8099018 C16.6450645,18.9044461 16.5486247,18.9700858 16.4385742,18.9914453 C15.9651742,19.0765419 15.480874,19.0818495 15.0057227,19.0071484 C14.8987023,18.988725 14.8035344,18.9281678 14.741513,18.8390268 C14.6794917,18.7498857 14.6557941,18.6396019 14.6757227,18.5328516 C14.7685742,18.0142969 14.6185742,17.5328516 14.2471484,17.3185742 C13.8757227,17.1028516 13.3814258,17.2142773 12.9785742,17.5571484 C12.8960265,17.6304683 12.7874738,17.6675339 12.6773224,17.6600114 C12.5671709,17.652489 12.4646651,17.6010099 12.3928516,17.5171484 C12.0791099,17.1385892 11.8335543,16.708378 11.6671484,16.2457227 C11.5947932,16.035647 11.7023036,15.8060742 11.91,15.7271484 C12.3728516,15.5414258 12.6871484,15.1842773 12.6871484,14.7728516 C12.6871484,14.3628516 12.3771484,14.0085742 11.9157227,13.8214258 C11.7104843,13.7385995 11.6085093,13.5074153 11.6857227,13.3 C11.8714258,12.8 12.1514258,12.3457031 12.5,11.9571484 C12.6386464,11.8009209 12.8728021,11.7744252 13.0428516,11.8957227 C13.4242969,12.17 13.8642773,12.2442773 14.2014453,12.0485742 C14.53,11.86 14.6842773,11.4628516 14.6514453,11.0157227 C14.637857,10.8076081 14.785354,10.6235312 14.9914258,10.5914258 C15.2142773,10.5542773 15.4428516,10.5357227 15.6771484,10.5357227 L15.6771484,10.5357227 Z M10.5685547,0.861425781 L16.9728516,1.52857422 C17.3088197,1.56318693 17.5746244,1.82838871 17.61,2.16427734 L18.2771484,8.56857422 C18.2992029,8.78257194 18.2236305,8.99511174 18.0714258,9.14714844 L17.7457227,9.47429688 C15.6415943,8.67264153 13.2628562,9.18137219 11.6706846,10.7735396 C10.078513,12.365707 9.56977601,14.7444437 10.3714258,16.8485742 L8.96285156,18.2557227 C8.68392501,18.5345715 8.23177811,18.5345715 7.95285156,18.2557227 L0.881445313,11.1857227 C0.60259645,10.9067961 0.60259645,10.4546492 0.881445313,10.1757227 L9.99,1.06572266 C10.1422947,0.914037838 10.3548007,0.839001113 10.5685742,0.861425781 L10.5685547,0.861425781 Z M16.7471484,15.7757227 C17.7985742,14.3042773 16.1757227,12.6814258 14.7042773,13.7328516 C14.6686639,13.7587663 14.637333,13.7901038 14.6114258,13.8257227 C13.56,15.2971484 15.1828516,16.9185547 16.6542969,15.8685547 C16.6904002,15.8426432 16.7218095,15.8107517 16.747168,15.7742578 L16.7471484,15.7757227 Z M12.5042773,4.61285156 C11.9464697,5.17105827 11.9467933,6.07576662 12.505,6.63357422 C13.0632067,7.19138182 13.9679151,7.19105827 14.5257227,6.63285156 C15.0666192,6.07190827 15.0581964,5.18097947 14.5067912,4.63036278 C13.955386,4.07974608 13.064446,4.07259819 12.5042773,4.61429688 L12.5042773,4.61285156 Z" id="形状" fill="#515151" fill-rule="nonzero"></path>
                        </g>
                    </g>
                </g>
            </g>
        </g>
    </g>
</svg>