<?xml version="1.0" encoding="UTF-8"?>
<svg width="24px" height="24px" viewBox="0 0 24 24" version="1.1" xmlns="http://www.w3.org/2000/svg" xmlns:xlink="http://www.w3.org/1999/xlink">
    <g id="1.3.4" stroke="none" stroke-width="1" fill="none" fill-rule="evenodd">
        <g id="DashBoard备份" transform="translate(-622.000000, -1388.000000)">
            <g id="ds/功能入口默认备份-13" transform="translate(606.000000, 1368.000000)">
                <g id="icon/16/布尔备份-6" transform="translate(16.000000, 20.000000)">
                    <rect id="矩形" x="0" y="0" width="24" height="24"></rect>
                    <path d="M13.2366529,5.80677711 L19.1869541,5.80677711 C19.6871047,5.80677711 20.0910203,6.21204819 20.0910203,6.71084337 L20.0910203,7.61490964 L3.82596009,7.61490964 L3.82596009,4.90406627 C3.82596009,4.40391566 4.22987575,4 4.73002636,4 L11.4285203,4 L13.2366529,5.80677711 Z M3.90457455,9.42168667 L20.0124059,9.42168667 C20.2652012,9.42168667 20.5064926,9.52732757 20.6777554,9.71326996 C20.8490181,9.89921235 20.9346065,10.1483667 20.9137613,10.4003012 L20.1601468,19.4368976 C20.1207253,19.9047809 19.7296878,20.2646062 19.2601468,20.2650602 L4.65683358,20.2650602 C4.18729266,20.2646062 3.79625511,19.9047809 3.75683358,19.4368976 L3.00321913,10.4003012 C2.98237391,10.1483667 3.06796233,9.89921235 3.23922505,9.71326996 C3.41048778,9.52732757 3.65177921,9.42168667 3.90457455,9.42168667 Z" id="形状" fill="#FFC069" fill-rule="nonzero"></path>
                </g>
            </g>
        </g>
    </g>
</svg>