<?xml version="1.0" encoding="UTF-8"?>
<svg width="32px" height="32px" viewBox="0 0 32 32" version="1.1" xmlns="http://www.w3.org/2000/svg" xmlns:xlink="http://www.w3.org/1999/xlink">
    <g id="智慧运营v1.3" stroke="none" stroke-width="1" fill="none" fill-rule="evenodd">
        <g id="内容中心-列表-其他" transform="translate(-676.000000, -127.000000)" fill-rule="nonzero">
            <g id="icon/32/分析选中备份-46" transform="translate(676.000000, 127.000000)">
                <rect id="矩形" fill="#000000" opacity="0" x="0" y="0" width="32" height="32"></rect>
                <path d="M25.1018605,5 L6.89813954,5 C4.9488372,5 4,5.90415563 4,7.71101325 L4,20.673 C4,22.4798576 4.89023256,23.3345899 6.79069767,23.3345899 L9.58139535,23.3345899 L9.23813954,26.0964801 C9.24578105,26.442328 9.44487843,26.7523138 9.74883721,26.8916138 C10.0653529,27.0502724 10.4369947,27.0339134 10.7395349,26.848005 L16.2790698,23.3345899 L25.2093023,23.3345899 C27.1418605,23.3345899 28,22.4798576 28,20.673 L28,7.71101325 C28,5.90367108 27.0339535,5 25.1018605,5 Z" id="路径" fill="#2749F1"></path>
                <path d="M14.9486047,15.363997 C15.4286016,15.3560765 15.8514643,15.6886538 15.9718605,16.1687775 C16.0469837,16.48446 15.9773537,16.8182979 15.7830548,17.0739977 C15.5887558,17.3296976 15.291395,17.4788241 14.9767442,17.4783627 L10.6560465,17.4783627 C10.1762028,17.4858016 9.75359543,17.1534251 9.63279069,16.6735823 C9.55766742,16.3578998 9.62729744,16.0240619 9.82159639,15.7683621 C10.0158954,15.5126622 10.3132562,15.3635357 10.627907,15.363997 L14.9486047,15.363997 Z M21.3439535,10.87097 C21.8239504,10.8630494 22.2468131,11.1956267 22.3672093,11.6757504 C22.4423326,11.9914329 22.3727026,12.3252708 22.1784036,12.5809706 C21.9841046,12.8366705 21.6867438,12.985797 21.372093,12.9853356 L10.6560465,12.9853356 C10.1762028,12.9927745 9.75359543,12.660398 9.63279069,12.1805552 C9.55766742,11.8648727 9.62729744,11.5310348 9.82159639,11.275335 C10.0158954,11.0196351 10.3132562,10.8705086 10.627907,10.87097 L21.3439535,10.87097 Z" id="形状结合" fill="#8CE8E5"></path>
            </g>
        </g>
    </g>
</svg>