<?xml version="1.0" encoding="UTF-8"?>
<svg width="32px" height="32px" viewBox="0 0 32 32" version="1.1" xmlns="http://www.w3.org/2000/svg" xmlns:xlink="http://www.w3.org/1999/xlink">

    <g id="1.3.5" stroke="none" stroke-width="1" fill="none" fill-rule="evenodd">
        <g id="内容中心-文件列表" transform="translate(-304.000000, -133.000000)" fill-rule="nonzero">
            <g id="icon/32/分析选中备份-41" transform="translate(304.000000, 133.000000)">
                <g id="编组" transform="translate(5.000000, 3.000000)">
                    <path d="M14.9998933,4.72222486 C14.9998933,2.66293193 13.3305066,0.993545178 11.2712137,0.993545178 C11.2708779,0.993545178 11.2705421,0.993545223 11.2702063,0.993546543 C10.4346593,0.993772274 9.8544423,0.996034538 9.52955545,1.00033333 L6.60609858,1.00033333 C1.3587774,1.00033333 -0.000106665993,3.63 -0.000106665993,8.10147222 L-0.000106665993,12.9349167 C-0.00436612857,13.289287 4.99563387,10.5517231 14.9998933,4.72222486 Z" id="路径" fill="#8CE8E5"></path>
                    <path d="M23.4725,7.97741667 C23.2781176,7.41993482 22.9814199,6.90361759 22.5976389,6.45497222 C22.4769162,6.31320609 22.3448905,6.18146836 22.2028611,6.06105556 C20.9695,5.09108333 19.4154722,4.61980556 17.8498056,4.74088889 L6.1135,4.74088889 C3.31813889,4.74088889 1.61105556,5.64583333 0.778833333,7.42377778 C0.497940222,7.99975303 0.300361423,8.61273833 0.192027778,9.24433333 C0.192027778,9.47855556 0.117333333,9.71277778 0.0853333333,9.95766667 C0.028375166,10.480956 -3.24628786e-07,11.0069533 -3.24628786e-07,11.5333333 L-3.24628786e-07,17.8360278 C-3.24628786e-07,18.3673889 0.0425833333,18.8978889 0.128055556,19.4223333 C0.262510302,20.3493987 0.581786398,21.2400185 1.06694444,22.0413611 C1.28806145,22.4283443 1.55689579,22.786031 1.86713889,23.1060278 C3.29338889,24.4102778 5.18436111,25.0890833 7.11644444,24.9904444 L16.8682222,24.9904444 C18.7971667,25.0898333 20.6851111,24.4107222 22.1068333,23.106 C22.4208307,22.7866374 22.6932786,22.4289329 22.9177222,22.0413611 C23.4057751,21.2394407 23.7320017,20.3496761 23.8779722,19.4223333 C23.9545752,18.8970076 23.9937941,18.3669071 23.9953333,17.8360278 L23.9953333,11.5333333 C24.0317855,10.3264915 23.8547985,9.12269613 23.4725278,7.97741667 L23.4725,7.97741667 Z" id="路径" fill="#2749F1"></path>
                    <path d="M18.0418333,17.2504722 L5.96416667,17.2504722 C5.41616667,17.2504722 4.97191667,16.8071667 4.97191667,16.2603611 C4.97191667,15.7135278 5.41616667,15.2702222 5.96413889,15.2702222 L18.1378611,15.2702222 C18.433223,15.2734747 18.7098597,15.4154405 18.8847222,15.6535 C19.0364894,15.8304183 19.1130705,16.0596631 19.0981111,16.2922778 C19.0897492,16.5569696 18.9756026,16.8072558 18.7812222,16.9871111 C18.5866008,17.1671925 18.3280689,17.2620042 18.0631667,17.2504444 L18.0418333,17.2504444 L18.0418333,17.2504722 Z" id="路径" fill="#8CE8E5"></path>
                </g>
            </g>
        </g>
    </g>
</svg>