<?xml version="1.0" encoding="UTF-8"?>
<svg width="24px" height="24px" viewBox="0 0 24 24" version="1.1" xmlns="http://www.w3.org/2000/svg" xmlns:xlink="http://www.w3.org/1999/xlink">
    <g id="1.3.4" stroke="none" stroke-width="1" fill="none" fill-rule="evenodd">
        <g id="DashBoard" transform="translate(-174.000000, -1180.000000)">
            <g id="ds/-8" transform="translate(158.000000, 1160.000000)">
                <g id="icon/16/-6" transform="translate(16.000000, 20.000000)">
                    <rect id="矩形" x="0" y="0" width="24" height="24"></rect>
                    <path d="M12.5617676,21.75 C16.1341553,21.6804199 19.1242676,21.1219482 19.6131592,21.0047607 C20.1496582,20.8875732 20.477417,20.7960205 20.5946045,20.7026367 C20.7355957,20.6092529 20.8289795,20.3071289 20.8985596,19.7944336 C20.946167,19.2817383 20.9223633,19.1425781 20.8051758,18.3497314 C20.7355957,17.8846436 20.5488281,17.5349121 20.244873,17.3023682 C19.940918,17.0698242 19.5911865,16.8830566 19.1938477,16.7438965 C18.7965088,16.626709 16.9050293,15.9748535 16.4857178,15.8594971 C16.0645752,15.7423096 15.69104,15.5793457 15.3651123,15.3706055 C15.1087646,15.2076416 14.8981934,15.0446777 14.7572021,14.9055176 C14.6162109,14.7663574 14.5008545,14.6033936 14.4532471,14.4624023 C14.383667,14.3232422 14.3598633,14.1602783 14.3598633,13.9973145 C14.3598633,13.8343506 14.3598633,13.6713867 14.383667,13.4846191 C14.4074707,13.1824951 14.5008545,12.9481201 14.6638184,12.7851562 C14.8267822,12.5983887 15.0373535,12.4354248 15.2241211,12.2724609 C15.3339844,12.1662598 15.4200439,12.039917 15.4804688,11.8989258 C15.5500488,11.7597656 15.62146,11.5968018 15.69104,11.4338379 C15.7111816,11.3825684 15.7276611,11.3312988 15.7441406,11.2781982 C15.7532959,11.2763672 15.7624512,11.2727051 15.7716064,11.270874 C15.8192139,11.1317139 15.8411865,10.9907227 15.8887939,10.8515625 C16.0297852,10.8057861 16.1451416,10.734375 16.2385254,10.6428223 C16.3319092,10.5494385 16.425293,10.434082 16.5186768,10.2692871 C16.6120605,10.1063232 16.6578369,9.89575195 16.7054443,9.64123535 C16.729248,9.43249512 16.729248,9.2677002 16.7054443,9.12854004 C16.6816406,9.01135254 16.6358643,8.89599609 16.5882568,8.8026123 C16.5406494,8.70922852 16.4710693,8.63964844 16.3776855,8.57006836 C16.3776855,8.08117676 16.3538818,7.56848145 16.2843018,7.07958984 C16.2147217,6.68408203 16.0975342,6.2409668 15.956543,5.7520752 C15.9455566,5.71911621 15.9327393,5.68615723 15.9199219,5.65319824 C15.8027344,5.30529785 15.6397705,4.98486328 15.4310303,4.6809082 C15.1966553,4.33117676 14.9165039,4.05285645 14.6363525,3.84228516 C14.3562012,3.63354492 14.0522461,3.44677734 13.748291,3.32958984 C13.4443359,3.21240234 13.1403809,3.12084961 12.8382568,3.07324219 C12.5983887,3.03662109 12.3713379,3.01464844 12.1369629,3.00732422 C12.1186523,3.00732422 12.1003418,3.00549316 12.0802002,3.00549316 L11.8531494,3.00549316 C11.8348389,3.00549316 11.8165283,3.00732422 11.7963867,3.00732422 C11.5620117,3.01464844 11.3349609,3.03662109 11.0950928,3.07324219 C10.7911377,3.11901855 10.4871826,3.21240234 10.1850586,3.32958984 C9.88110352,3.44677734 9.57714844,3.63171387 9.29699707,3.84228516 C9.0168457,4.05102539 8.73669434,4.33117676 8.50231934,4.6809082 C8.29174805,4.98486328 8.12878418,5.30529785 8.01342773,5.65319824 C8.00061035,5.68615723 7.98962402,5.71911621 7.97680664,5.7520752 C7.83764648,6.2409668 7.72045898,6.68408203 7.64904785,7.07958984 C7.57946777,7.56848145 7.55566406,8.08117676 7.55566406,8.57006836 C7.46228027,8.63964844 7.3927002,8.70922852 7.34509277,8.8026123 C7.29748535,8.89599609 7.25170898,9.01135254 7.22790527,9.12854004 C7.20410156,9.2677002 7.20410156,9.43066406 7.22790527,9.64123535 C7.2755127,9.89758301 7.32128906,10.1063232 7.41467285,10.2692871 C7.50805664,10.432251 7.60144043,10.5494385 7.69482422,10.6428223 C7.78820801,10.7362061 7.90539551,10.8057861 8.04455566,10.8515625 C8.09216309,10.9907227 8.11413574,11.1317139 8.16174316,11.270874 C8.17089844,11.2727051 8.18005371,11.2763672 8.18920898,11.2781982 C8.20568848,11.3294678 8.22399902,11.3825684 8.24230957,11.4338379 C8.31188965,11.5968018 8.38330078,11.7597656 8.45288086,11.8989258 C8.51330566,12.0380859 8.60119629,12.1662598 8.70922852,12.2724609 C8.89599609,12.4354248 9.10656738,12.5983887 9.26953125,12.7851562 C9.43249512,12.9481201 9.52587891,13.1806641 9.54968262,13.4846191 C9.57348633,13.6713867 9.57348633,13.8343506 9.57348633,13.9973145 C9.57348633,14.1602783 9.54968262,14.3232422 9.48010254,14.4624023 C9.43249512,14.6015625 9.31713867,14.7645264 9.17614746,14.9055176 C9.03515625,15.0446777 8.82641602,15.2076416 8.5682373,15.3706055 C8.24047852,15.5793457 7.86694336,15.7441406 7.44763184,15.8594971 C7.02648926,15.9766846 5.13500977,16.62854 4.73950195,16.7438965 C4.34216309,16.8830566 3.99243164,17.0698242 3.68847656,17.3023682 C3.38452148,17.5349121 3.19775391,17.8846436 3.12817383,18.3497314 C3.01098633,19.1407471 2.98718262,19.2817383 3.03479004,19.7944336 C3.10437012,20.3071289 3.19775391,20.6092529 3.33874512,20.7026367 C3.45593262,20.7960205 3.78186035,20.8894043 4.32019043,21.0047607 C4.81091309,21.1219482 7.79919434,21.6804199 11.371582,21.75 L12.5617676,21.75 Z" id="路径" fill="#71C16F" fill-rule="nonzero"></path>
                </g>
            </g>
        </g>
    </g>
</svg>