<?xml version="1.0" encoding="UTF-8"?>
<svg width="24px" height="24px" viewBox="0 0 24 24" version="1.1" xmlns="http://www.w3.org/2000/svg" xmlns:xlink="http://www.w3.org/1999/xlink">
    <g id="1.3.4" stroke="none" stroke-width="1" fill="none" fill-rule="evenodd">
        <g id="DashBoard" transform="translate(-398.000000, -1284.000000)">
            <g id="ds/-3" transform="translate(382.000000, 1264.000000)">
                <g id="icon/16/-6" transform="translate(16.000000, 20.000000)">
                    <rect id="矩形" x="0" y="0" width="24" height="24"></rect>
                    <path d="M19.0052024,6.58190696 L15.8142933,6.58190696 L13.8097479,4.57736151 C13.4517933,4.21940696 12.9608842,4.01486151 12.4597479,4.01486151 L4.93247514,4.01486151 C3.86883878,4.01486151 3.00974787,4.87395241 3.00974787,5.93758878 L3.00974787,18.7216797 C3.00974787,19.7853161 3.86883878,20.644407 4.93247514,20.644407 L18.9949751,20.644407 C20.0586115,20.644407 20.9177024,19.7853161 20.9177024,18.7216797 L20.9177024,8.49440696 C20.9177024,7.4307706 20.0586115,6.58190696 19.0052024,6.58190696 Z M12.2858842,16.1648615 L7.81656605,16.1648615 C7.28474787,16.1648615 6.85520241,15.7353161 6.85520241,15.2034979 C6.85520241,14.6716797 7.28474787,14.2421342 7.81656605,14.2421342 L12.2858842,14.2421342 C12.8177024,14.2421342 13.2472479,14.6716797 13.2472479,15.2034979 C13.2472479,15.7353161 12.8177024,16.1648615 12.2858842,16.1648615 Z M16.1211115,12.3296342 L7.81656605,12.3296342 C7.28474787,12.3296342 6.85520241,11.9000888 6.85520241,11.3682706 C6.85520241,10.8364524 7.28474787,10.406907 7.81656605,10.406907 L16.1211115,10.406907 C16.6529297,10.406907 17.0824751,10.8364524 17.0824751,11.3682706 C17.0824751,11.9000888 16.6529297,12.3296342 16.1211115,12.3296342 Z" id="形状" fill="#71C16F" fill-rule="nonzero"></path>
                </g>
            </g>
        </g>
    </g>
</svg>