<?xml version="1.0" encoding="UTF-8"?>
<svg width="24px" height="24px" viewBox="0 0 24 24" version="1.1" xmlns="http://www.w3.org/2000/svg" xmlns:xlink="http://www.w3.org/1999/xlink">
    <g id="智慧运营v1.3" stroke="none" stroke-width="1" fill="none" fill-rule="evenodd">
        <g id="内容中心-列表-图片" transform="translate(-1238.000000, -185.000000)" fill-rule="nonzero">
            <g id="按钮/（icon+文字）/默认备份-2" transform="translate(1222.000000, 181.000000)">
                <g id="icon/16/箭头备份" transform="translate(16.000000, 4.000000)">
                    <rect id="矩形" fill="#000000" opacity="0" x="0" y="0" width="24" height="24"></rect>
                    <path d="M12.4666734,11.2979456 C12.6364154,11.2118195 12.703464,11.2513681 12.7760184,11.2991779 L12.7760184,11.2991779 L12.8307107,11.3452893 L14.8307107,13.3452893 C14.9138865,13.4284651 14.956,13.5400964 14.956,13.652 C14.956,13.7639036 14.9138865,13.8755349 14.8307107,13.9587107 C14.7665482,14.0228731 14.6904287,14.07279 14.5981421,14.0829949 L14.5981421,14.0829949 L14.5351068,14.092 L13.292,14.092 L13.292,19.656 C13.292,19.775381 13.2429105,19.8845109 13.1637107,19.9637107 C13.0845109,20.0429105 12.975381,20.092 12.856,20.092 L12.856,20.092 L12.192,20.092 C12.072619,20.092 11.9634891,20.0429105 11.8842893,19.9637107 C11.8050895,19.8845109 11.756,19.775381 11.756,19.656 L11.756,19.656 L11.756,14.092 L10.52,14.092 C10.400619,14.092 10.2914891,14.0429105 10.2122893,13.9637107 C10.1330895,13.8845109 10.084,13.775381 10.084,13.656 C10.1367707,13.4980919 10.1572734,13.4378964 10.165723,13.4143398 L10.1713708,13.3997498 L10.1713708,13.3997498 C10.1739058,13.3966853 10.1755314,13.3950535 10.1771583,13.3934206 C11.1290886,12.4379515 11.6957394,11.9007504 12.0433781,11.6061605 C12.2448687,11.4354168 12.3764068,11.3437464 12.4666734,11.2979456 Z M17.5701673,11.220039 C17.6918234,11.2184112 17.8032228,11.2678015 17.8837107,11.3482893 C17.9629105,11.4274891 18.012,11.536619 18.012,11.656 L18.012,11.656 L18.012,17.22 L19.2551068,17.22 L19.3229703,17.2296948 C19.4058647,17.2494821 19.4886645,17.2912431 19.5507107,17.3532893 C19.6338865,17.4364651 19.676,17.5480964 19.676,17.66 C19.676,17.7719036 19.6338865,17.8835349 19.5507107,17.9667107 L19.5507107,17.9667107 L17.5440184,19.9728221 L17.4886529,20.0184042 C17.4050669,20.0758695 17.3032157,20.0998614 17.2038393,20.0904863 C17.1053603,20.0811958 17.0097876,20.0392089 16.9372893,19.9667107 L16.9372893,19.9667107 L14.9311779,17.9600184 L14.8866267,17.9061238 C14.8345175,17.833171 14.804,17.7392308 14.804,17.656 C14.804,17.536619 14.8530895,17.4274891 14.9322893,17.3482893 C15.0114891,17.2690895 15.120619,17.22 15.24,17.22 L15.24,17.22 L16.476,17.22 L16.476,11.656 Z M17.232,3.9 C17.4437108,3.9 17.6346569,3.98523553 17.7727107,4.12328932 C17.9107645,4.26134311 17.996,4.45228916 17.996,4.664 L17.996,4.664 L17.996,9.268 L16.46,9.268 L16.46,5.436 L6.66,5.436 L6.66,17.236 L9.7,17.236 L9.7,18.764 L5.896,18.764 C5.68428916,18.764 5.49334311,18.6787645 5.35528932,18.5407107 C5.21723553,18.4026569 5.132,18.2117108 5.132,18 L5.132,18 L5.132,4.664 C5.132,4.45228916 5.21723553,4.26134311 5.35528932,4.12328932 C5.49334311,3.98523553 5.68428916,3.9 5.896,3.9 L5.896,3.9 Z" id="形状" stroke="#26292E" stroke-width="0.2" fill="#26292E"></path>
                </g>
            </g>
        </g>
    </g>
</svg>