<?xml version="1.0" encoding="UTF-8"?>
<svg width="24px" height="24px" viewBox="0 0 24 24" version="1.1" xmlns="http://www.w3.org/2000/svg" xmlns:xlink="http://www.w3.org/1999/xlink">
    <g id="1.3.4" stroke="none" stroke-width="1" fill="none" fill-rule="evenodd">
        <g id="DashBoard备份" transform="translate(-174.000000, -972.000000)">
            <g id="ds/功能入口默认" transform="translate(158.000000, 952.000000)">
                <g id="icon/16/布尔备份-6" transform="translate(16.000000, 20.000000)">
                    <rect id="矩形" x="0" y="0" width="24" height="24"></rect>
                    <path d="M11.288577,13.5925694 L11.288577,18.8870139 C11.2888713,19.1500654 11.1845812,19.4024439 10.9986798,19.5885537 C10.8127784,19.7746634 10.5605169,19.8792361 10.2974653,19.8792361 L5.00413194,19.8792361 C4.74108031,19.8792361 4.48881879,19.7746634 4.30291743,19.5885537 C4.11701607,19.4024439 4.01272593,19.1500654 4.01302021,18.8870139 L4.01302021,13.5925694 C4.01302021,13.3298125 4.11747645,13.0778336 4.30337785,12.8921406 C4.48927924,12.7064476 4.74137516,12.6022745 5.00413194,12.6025688 L10.2985764,12.6025688 C10.5612311,12.6022742 10.8132131,12.7064826 10.9989382,12.8922077 C11.1846632,13.0779327 11.2888717,13.3299147 11.288577,13.5925694 L11.288577,13.5925694 Z M18.9552431,11.2892361 L13.6574653,11.2892361 C13.1100897,11.2892361 12.6663542,10.8455006 12.6663542,10.298125 L12.6663542,5.00479167 C12.6663542,4.45784974 13.1094126,4.01429372 13.6563542,4.01368056 L18.9552431,4.01368056 C19.5026186,4.01368056 19.9463542,4.45741611 19.9463542,5.00479167 L19.9463542,10.2992361 C19.9463542,10.8466117 19.5026186,11.2903472 18.9552431,11.2903472 L18.9552431,11.2892361 Z M10.3663542,11.2892361 L5.06635417,11.2892361 C4.51941258,11.2886229 4.07635354,10.8450669 4.07635354,10.298125 L4.07635354,5.00479167 C4.07605927,4.74203488 4.18023234,4.48993897 4.36592532,4.30403757 C4.55161831,4.11813617 4.80359722,4.01367993 5.06635417,4.01367993 L10.3607986,4.01367993 C10.6238501,4.01338565 10.8762286,4.11767579 11.0623384,4.30357715 C11.2484482,4.48947851 11.3530208,4.74174003 11.3530208,5.00479167 L11.3530208,10.2992361 C11.3530208,10.5622877 11.2484482,10.8145493 11.0623384,11.0004506 C10.8762286,11.186352 10.6238501,11.2906421 10.3607986,11.2903478 L10.3663542,11.2892361 Z" id="形状" fill="#71C16F" fill-rule="nonzero"></path>
                    <path d="M19.6452431,17.7147917 C19.8092671,17.7154037 19.9419097,17.8485443 19.9419097,18.0125694 L19.9419097,19.5803472 C19.9419097,19.6593228 19.9105368,19.7350637 19.8546926,19.7909079 C19.7988485,19.8467521 19.7231075,19.878125 19.6441319,19.878125 L18.0763542,19.878125 C17.911896,19.878125 17.7785764,19.7448053 17.7785764,19.5803472 L17.7785764,18.0114583 C17.7791884,17.8474343 17.912329,17.7147917 18.0763542,17.7147917 L19.6452431,17.7147917 Z M14.5963542,17.7147917 C14.7608123,17.7147917 14.8941319,17.8481113 14.8941319,18.0125694 L14.8941319,19.5803472 C14.8941319,19.7448053 14.7608123,19.878125 14.5963542,19.878125 L13.0274653,19.878125 C12.8634412,19.877513 12.7307986,19.7443724 12.7307986,19.5803472 L12.7307986,18.0114583 C12.7314106,17.8474343 12.8645512,17.7147917 13.0285764,17.7147917 L14.5963542,17.7147917 Z M14.8374653,12.668125 C15.0014905,12.6681239 15.134631,12.8007676 15.1352431,12.9647917 L15.1352431,14.8936806 C15.1349478,14.9723616 15.1659209,15.0479373 15.2213484,15.1037816 C15.276776,15.1596259 15.3521175,15.1911642 15.4307986,15.1914583 L17.2407986,15.1914583 C17.4048227,15.1908463 17.5374664,15.0577057 17.5374653,14.8936806 L17.5374653,12.9647917 C17.5374653,12.8003335 17.6707849,12.6670139 17.8352431,12.6670139 L19.6441319,12.6670139 C19.808156,12.6676259 19.9407986,12.8007665 19.9407986,12.9647917 L19.9407986,16.1559028 C19.9407986,16.2348784 19.9094257,16.3106193 19.8535815,16.3664635 C19.7977374,16.4223076 19.7219964,16.4536806 19.6430208,16.4536806 L17.8341319,16.4536806 C17.6705405,16.4542898 17.5380746,16.5867558 17.5374653,16.7503472 L17.5374653,17.4170139 C17.5374653,17.581472 17.4041456,17.7147917 17.2396875,17.7147917 L15.4307986,17.7147917 C15.2667746,17.7141796 15.1341308,17.5810391 15.1341319,17.4170139 L15.1341319,16.7503472 C15.1335199,16.5863232 15.0003794,16.4536794 14.8363542,16.4536806 L13.0274653,16.4536806 C12.8634412,16.4530685 12.7307986,16.319928 12.7307986,16.1559028 L12.7307986,12.9670139 C12.7307986,12.8025558 12.8641183,12.6692361 13.0285764,12.6692361 L14.8374653,12.668125 Z" id="形状" fill="#71C16F" fill-rule="nonzero"></path>
                </g>
            </g>
        </g>
    </g>
</svg>