<?xml version="1.0" encoding="UTF-8"?>
<svg width="24px" height="24px" viewBox="0 0 24 24" version="1.1" xmlns="http://www.w3.org/2000/svg" xmlns:xlink="http://www.w3.org/1999/xlink">
    <g id="1.3.4" stroke="none" stroke-width="1" fill="none" fill-rule="evenodd">
        <g id="DashBoard" transform="translate(-398.000000, -1180.000000)">
            <g id="ds/-2" transform="translate(382.000000, 1160.000000)">
                <g id="icon/16/-6" transform="translate(16.000000, 20.000000)">
                    <rect id="矩形" x="0" y="0" width="24" height="24"></rect>
                    <path d="M12.2949231,14.4230769 C12.3118237,14.5285385 12.3435207,14.6310879 12.3890769,14.7276923 C12.4264615,14.7983077 12.5136923,14.8758462 12.6493846,14.9589231 C12.972,15.15 13.3209231,15.3050769 13.6933846,15.4241539 C14.0658461,15.5432308 14.4230769,15.6733846 14.7650769,15.8173846 C15.1056923,15.96 15.4047692,16.1483077 15.6595385,16.3809231 C15.9129231,16.6135385 16.0721539,16.9430769 16.1344615,17.3723077 C16.1593846,17.5038461 16.1746154,17.6312308 16.1801539,17.7572308 C16.1870769,17.8818462 16.1967692,17.9981539 16.2078461,18.1061539 C16.2189903,18.1276856 16.2314765,18.1484958 16.2452308,18.1684615 C16.2589851,18.1884272 16.2714712,18.2092375 16.2826154,18.2307692 C16.7672308,18.1947692 17.2587692,18.1532308 17.7558461,18.1061539 C18.2529231,18.0576923 18.7084615,18.0036923 19.1252308,17.9441539 C19.5406154,17.8846154 19.8923077,17.8250769 20.1775385,17.7655385 C20.4641539,17.706 20.6441539,17.6464615 20.7175385,17.5869231 C20.8296923,17.5038461 20.9141539,17.2546154 20.9695385,16.8364615 C21.0249231,16.4196923 21.0041539,15.8769231 20.9044615,15.2095385 C20.8421539,14.8398461 20.6829231,14.5573846 20.4295385,14.3607692 C20.157183,14.1547993 19.8513039,13.9974097 19.5253846,13.8955385 C19.1778461,13.782 18.8206154,13.6781539 18.4536923,13.5826154 C18.1113834,13.4968998 17.7824652,13.3645871 17.4761539,13.1893846 C17.2918792,13.0769099 17.1201371,12.9450862 16.9638461,12.7961539 C16.7562271,12.6016715 16.6380092,12.3301711 16.6370769,12.0456923 C16.6370769,11.9141539 16.644,11.7715385 16.6564615,11.6164615 C16.668966,11.4044561 16.7580224,11.2042023 16.9070769,11.0529231 C17.0496923,10.9158461 17.2089231,10.776 17.382,10.6333846 C17.4910485,10.5631737 17.5783256,10.463908 17.634,10.3467692 C17.7032308,10.2166154 17.7613846,10.0850769 17.8112308,9.95353846 C17.8610769,9.81092307 17.9109231,9.64892307 17.9607692,9.47169231 C18.0394429,9.44550415 18.1143784,9.40919997 18.1836923,9.36369231 C18.2587113,9.30187254 18.3244598,9.22959578 18.3789231,9.14907693 C18.4481539,9.05353846 18.5132308,8.92338461 18.5755385,8.75584615 C18.6819971,8.47834292 18.6755356,8.1701815 18.5575385,7.89738461 C18.5137097,7.77620077 18.4432028,7.66641812 18.3512308,7.57615385 C18.3634846,7.18806802 18.3449651,6.79962137 18.2958461,6.41446154 C18.2394002,6.06353375 18.1584327,5.7169927 18.0535385,5.37738461 C17.9462736,5.016692 17.7761194,4.67778987 17.5509231,4.37630769 C17.3684122,4.10757278 17.1412932,3.87202464 16.8793846,3.67984615 C16.4311791,3.34494959 15.9051441,3.12958019 15.3507692,3.054 C15.0984387,3.01877644 14.8440068,3.0007349 14.5892308,3 C13.9675385,3 13.4081539,3.12461539 12.9110769,3.37523078 C12.4153846,3.62446155 12.0415385,3.89446155 11.7936923,4.17969231 C11.6316923,4.38184617 11.5306154,4.57015385 11.4863077,4.74323078 C11.4337738,4.94418351 11.3741986,5.14322927 11.3076923,5.34 C11.5430769,5.47153846 11.7950769,5.66538461 12.0623077,5.92153846 C12.3295385,6.17769231 12.5621538,6.43661539 12.7615385,6.69969231 C13.0107692,7.032 13.1963077,7.40169231 13.3209231,7.80738461 C13.4455385,8.21307693 13.5383077,8.58830769 13.5992308,8.93307693 C13.6615385,9.35123078 13.6933846,9.768 13.6933846,10.1847692 C13.790155,10.2882633 13.8658688,10.4095936 13.9163077,10.542 C14.0360583,10.845648 14.0429362,11.1821742 13.9356923,11.4904615 C13.8908171,11.6544022 13.8217501,11.8107361 13.7307692,11.9543077 C13.6706907,12.0442498 13.6020643,12.128178 13.5258461,12.2049231 C13.4629016,12.2689087 13.3861846,12.3176855 13.3015385,12.3475385 C13.2516923,12.5386154 13.2018461,12.7172308 13.152,12.8847692 C13.1003746,13.0333283 13.0416926,13.1793404 12.9761539,13.3223077 C12.9222796,13.4526062 12.8354357,13.5666485 12.7241539,13.6532308 C12.6536931,13.710253 12.5853398,13.7698312 12.5192308,13.8318461 C12.4749995,13.8731968 12.4342466,13.9181177 12.3973846,13.9661539 C12.3637324,14.0162932 12.3445676,14.0747459 12.342,14.1350769 C12.3350769,14.2070769 12.3198461,14.3012308 12.2949231,14.4216923 L12.2949231,14.4230769 Z M3.16338461,17.6686154 C3.10869135,17.8674594 3.06934496,18.070209 3.04569231,18.2750769 C3.01533694,18.5138774 3,18.7543549 3,18.9950769 C3,19.2387692 3.018,19.4686154 3.05538461,19.6818461 C3.07588784,19.8514096 3.13102906,20.0149481 3.21738461,20.1623077 C3.26584615,20.2343077 3.40707693,20.3049231 3.64246154,20.3769231 C3.87784615,20.4475385 4.16861539,20.5126154 4.51892307,20.5721539 C5.32535568,20.7064741 6.1369619,20.8076362 6.95169231,20.8753846 C7.38092309,20.9113846 7.79353846,20.9404615 8.19092307,20.964 C8.5896923,20.9875385 8.93861539,21 9.24046154,21 C9.54230769,21 9.88846154,20.9875385 10.2803077,20.964 C10.6721538,20.9404615 11.0792308,20.9113846 11.5015385,20.8753846 C11.9238461,20.8393846 12.3392308,20.8006154 12.7490769,20.7590769 C13.1603077,20.7175385 13.5369231,20.6704615 13.8803077,20.6164615 C14.2236923,20.5638461 14.5130769,20.5098461 14.7484615,20.4572308 C14.9838461,20.4032308 15.132,20.3533846 15.1915385,20.3049231 C15.2884615,20.2218461 15.366,19.9726154 15.4269231,19.5572308 C15.4864615,19.1418462 15.4684615,18.6073846 15.3715385,17.9538461 C15.312,17.5744615 15.1583077,17.2892308 14.9118461,17.0981539 C14.6456499,16.8983548 14.3493201,16.7422442 14.034,16.6356923 C13.6923956,16.5158009 13.3454062,16.4118427 12.9941539,16.3241539 C12.4501801,16.1922792 11.9509046,15.9185138 11.5472308,15.5307692 C11.4433246,15.4272763 11.3576566,15.3069667 11.2938461,15.1749231 C11.2398399,15.057702 11.2119654,14.9301405 11.2121539,14.8010769 C11.2121539,14.6695385 11.2176923,14.5213846 11.2301539,14.3552308 C11.2426754,14.143482 11.332901,13.9438024 11.4835385,13.7944615 C11.6338049,13.653002 11.7909165,13.518995 11.9543077,13.3929231 C12.0488351,13.3082921 12.1255585,13.2056804 12.18,13.0910769 C12.3220126,12.8148239 12.4285488,12.5217333 12.4970769,12.2187692 C12.5735124,12.1924231 12.6461388,12.1561099 12.7130769,12.1107692 C12.7861535,12.0491028 12.8500314,11.9772984 12.9027692,11.8975385 C12.9692308,11.802 13.0329231,11.6718461 13.0938461,11.5056923 C13.1516373,11.3553476 13.1761997,11.1942748 13.1658461,11.0335385 C13.1596047,10.9070424 13.1290477,10.7829339 13.0758461,10.668 C13.0283339,10.5502631 12.9608851,10.4415957 12.8764615,10.3467692 C12.8878191,9.9600727 12.8693026,9.57307643 12.8210769,9.18923078 C12.7687429,8.83758343 12.6933495,8.48975661 12.5953846,8.148 C12.4939169,7.78772712 12.3319147,7.44733535 12.1163077,7.14138461 C11.9405354,6.87433503 11.7204488,6.63926387 11.4655385,6.44630769 C11.0246531,6.11734225 10.5088578,5.90322056 9.96461539,5.82323078 C9.72478384,5.78837985 9.48280951,5.77033588 9.24046154,5.76923078 C8.62569231,5.76923078 8.07738461,5.89384617 7.59415385,6.14307693 C7.1123077,6.3923077 6.75646154,6.65953846 6.528,6.94615385 C6.26423533,7.26341934 6.06440314,7.62875962 5.93953846,8.022 C5.82098829,8.38682397 5.7270845,8.75920108 5.65846154,9.13661539 C5.59853082,9.53705716 5.57443536,9.94204626 5.58646154,10.3467692 C5.52053095,10.4014905 5.46556208,10.4682048 5.42446154,10.5433846 C5.38707693,10.614 5.35523076,10.7067692 5.32476922,10.8203077 C5.29370296,10.9576534 5.29040762,11.0998239 5.31507693,11.2384615 C5.34,11.4516923 5.38707693,11.6233846 5.46046154,11.7549231 C5.51791126,11.8656133 5.5906213,11.967687 5.67646154,12.0581539 C5.76092307,12.1412308 5.85784615,12.1938462 5.96723078,12.2173846 C6.0143077,12.396 6.06415385,12.5566154 6.11123078,12.6992308 C6.15969231,12.8293846 6.21923078,12.9595385 6.29123078,13.0910769 C6.34738487,13.2025536 6.42781925,13.3000211 6.52661539,13.3763077 C6.62353846,13.4593846 6.71076924,13.53 6.78969231,13.5895385 C6.86723078,13.6490769 6.93784617,13.7113846 6.99738461,13.7764615 C7.05830769,13.8415385 7.10815383,13.9149231 7.15107693,13.998 C7.19261539,14.0810769 7.22723078,14.1835385 7.25076922,14.3026154 C7.27430769,14.4563077 7.284,14.6141539 7.27846154,14.7733846 C7.27156563,14.937109 7.23152744,15.0977328 7.16076922,15.2455385 C7.07519487,15.4169838 6.95496684,15.5688012 6.80769231,15.6913846 C6.6443077,15.834 6.42,15.9586154 6.12923078,16.0652308 C5.85655258,16.1788465 5.57557808,16.2714246 5.28876922,16.3421539 C4.98832896,16.4174287 4.69245764,16.5098885 4.40261539,16.6190769 C4.13085448,16.7188091 3.87449139,16.8563129 3.64107693,17.0275385 C3.42203931,17.1893759 3.25582262,17.4124435 3.16338461,17.6686154 L3.16338461,17.6686154 Z" id="形状" fill="#26CEBA" fill-rule="nonzero"></path>
                </g>
            </g>
        </g>
    </g>
</svg>