<?xml version="1.0" encoding="UTF-8"?>
<svg width="26px" height="20px" viewBox="0 0 26 20" version="1.1" xmlns="http://www.w3.org/2000/svg" xmlns:xlink="http://www.w3.org/1999/xlink">
    <g id="1.3.7" stroke="none" stroke-width="1">
        <g id="制作落地页-首次" transform="translate(-164.000000, -384.000000)">
            <path d="M174.702391,397.844461 L172.566403,395.116482 C172.283416,394.755065 171.824611,394.755068 171.541627,395.116482 L167.603862,400.145603 C167.320875,400.50702 167.489725,400.8 167.980993,400.8 L175.132699,400.8 L186.022366,400.8 C186.51391,400.8 186.679001,400.507661 186.393265,400.147043 L180.152974,392.27136 C179.865347,391.908354 179.403969,391.910741 179.118234,392.27136 L174.702391,397.844461 L174.702391,397.844461 Z M170.066667,389.6 C170.066667,390.483656 170.842706,391.2 171.8,391.2 C172.757294,391.2 173.533333,390.483656 173.533333,389.6 C173.533333,388.716344 172.757294,388 171.8,388 C170.842706,388 170.066667,388.716344 170.066667,389.6 Z M165.298159,385.6 L188.701841,385.6 C188.458292,385.6 188.266667,385.420996 188.266667,385.201422 L188.266667,402.798578 C188.266667,402.578543 188.459244,402.4 188.701841,402.4 L165.298159,402.4 C165.541708,402.4 165.733333,402.579004 165.733333,402.798578 L165.733333,385.201422 C165.733333,385.421457 165.540756,385.6 165.298159,385.6 Z M164,402.798578 C164,403.458423 164.579763,404 165.298159,404 L188.701841,404 C189.418239,404 190,403.460636 190,402.798578 L190,385.201422 C190,384.541577 189.420237,384 188.701841,384 L165.298159,384 C164.581761,384 164,384.539364 164,385.201422 L164,402.798578 Z" id="形状"></path>
        </g>
    </g>
</svg>
