<?xml version="1.0" encoding="UTF-8"?>
<svg width="24px" height="24px" viewBox="0 0 24 24" version="1.1" xmlns="http://www.w3.org/2000/svg" xmlns:xlink="http://www.w3.org/1999/xlink">
    <g id="1.3.7" stroke="none" stroke-width="1" fill="none" fill-rule="evenodd">
        <g id="制作落地页-有内容" transform="translate(-939.000000, -401.000000)" fill="#26292E">
            <g id="icon/24/添加备份-14" transform="translate(939.000000, 401.000000)">
                <path d="M11.2841723,18.782578 C11.4726639,18.987726 11.7307217,19.103302 12.0001431,19.103302 C12.2695852,19.103302 12.5275603,18.987726 12.7161346,18.782578 L16.7141705,14.4325031 C17.1014224,14.0111318 17.0948728,13.3349825 16.6993771,12.9221984 C16.303902,12.5095905 15.6693154,12.5164824 15.2820635,12.9379418 L13.0020436,15.4185653 L13.0020436,6.17129562 C13.0020436,5.58150347 12.5533248,5.10330196 11.9998952,5.10330196 C11.4464656,5.10330196 10.9977468,5.58150347 10.9977468,6.17129562 L10.9977468,15.4184112 L8.71838802,12.9379417 C8.33113609,12.5165704 7.69694208,12.5097006 7.30128105,12.9221984 C6.90588862,13.3348943 6.89927705,14.0110437 7.28652898,14.4325031 L11.2841723,18.782578 Z" id="路径" transform="translate(12.000359, 12.103302) scale(1, -1) translate(-12.000359, -12.103302) "></path>
            </g>
        </g>
    </g>
</svg>
