<?xml version="1.0" encoding="UTF-8"?>
<svg width="24px" height="24px" viewBox="0 0 24 24" version="1.1" xmlns="http://www.w3.org/2000/svg" xmlns:xlink="http://www.w3.org/1999/xlink">
    <g id="页面-1" stroke="" stroke-width="" fill="none" fill-rule="">
        <g id="选择器" transform="translate(-686.000000, -186.000000)" fill="currentColor" fill-rule="">
            <g id="控件/按钮/icon+文字备份-3" transform="translate(678.000000, 182.000000)">
                <g id="icon/16/箭头备份-2" transform="translate(8.000000, 4.000000)">
                    <g id="漏斗" transform="translate(3.000000, 3.000000)">
                        <rect id="矩形" opacity="0" x="0" y="0" width="18" height="18"></rect>
                        <path d="M15.4705078,2.70703125 L2.52949219,2.70703125 C2.09882812,2.70703125 1.82988281,3.17636719 2.04609375,3.55078125 L6.13476562,10.6769531 L6.13476562,14.7304688 C6.13476562,15.0416016 6.384375,15.2929688 6.69375,15.2929688 L11.30625,15.2929688 C11.615625,15.2929688 11.8652344,15.0416016 11.8652344,14.7304688 L11.8652344,10.6769531 L15.9556641,3.55078125 C16.1701172,3.17636719 15.9011719,2.70703125 15.4705078,2.70703125 Z M10.6066406,14.0273438 L7.39335937,14.0273438 L7.39335937,11.4257812 L10.6083984,11.4257812 L10.6083984,14.0273438 L10.6066406,14.0273438 Z M10.7753906,10.0441406 L10.6277344,10.3007812 L7.37050781,10.3007812 L7.22285156,10.0441406 L5.878125,7.69921875 L12.121875,7.69921875 L10.7753906,10.0441406 Z M12.7669922,6.57421875 L5.23300781,6.57421875 L3.73886719,3.97265625 L14.2611328,3.97265625 L12.7669922,6.57421875 Z" id="形状"></path>
                    </g>
                </g>
            </g>
        </g>
    </g>
</svg>