<?xml version="1.0" encoding="UTF-8"?>
<svg width="16px" height="16px" viewBox="0 0 16 16" version="1.1" xmlns="http://www.w3.org/2000/svg" xmlns:xlink="http://www.w3.org/1999/xlink">
    <g id="智慧运营v1.3" stroke="none" stroke-width="1" fill="none" fill-rule="evenodd">
        <g id="文本编辑框" transform="translate(-501.000000, -94.000000)" fill-rule="nonzero">
            <g id="内容/文本编辑框备份" transform="translate(333.000000, 86.000000)">
                <g id="按钮/无框icon+文字备份-7" transform="translate(152.000000, 0.000000)">
                    <g id="icon/16/箭头备份" transform="translate(16.000000, 8.000000)">
                        <rect id="矩形" fill="#000000" opacity="0" transform="translate(8.000000, 8.000000) scale(-1, 1) translate(-8.000000, -8.000000) " x="0" y="0" width="16" height="16"></rect>
                        <path d="M1,8 C1,11.8659932 4.13400675,15 8,15 C11.8659932,15 15,11.8659932 15,8 C15,4.13400675 11.8659932,1 8,1 C4.13400675,1 1,4.13400675 1,8 Z" id="路径" fill="#888D97" transform="translate(8.000000, 8.000000) scale(-1, 1) translate(-8.000000, -8.000000) "></path>
                        <path d="M6.984375,6.9125 C7.3359375,6.940625 7.6,7.2484375 7.571875,7.6 C7.5640625,7.690625 7.5390625,7.7734375 7.5,7.8484375 C7.321875,8.25 7.4,8.7390625 7.728125,9.06875 L9.446875,10.790625 C9.8734375,11.2171875 10.5671875,11.2171875 10.99375,10.790625 C11.4203125,10.3640625 11.4203125,9.6703125 10.99375,9.24375 L10.353125,8.603125 L10.3578125,8.5984375 C10.209375,8.4703125 10.1234375,8.275 10.1390625,8.065625 C10.1671875,7.7140625 10.475,7.45 10.8265625,7.478125 C10.9953125,7.490625 11.1421875,7.56875 11.2484375,7.684375 L11.25,7.6828125 L11.903125,8.3359375 C12.83125,9.2640625 12.83125,10.7671875 11.903125,11.6953125 C10.975,12.6234375 9.471875,12.6234375 8.54375,11.6953125 L6.8203125,9.971875 C6.0984375,9.2484375 5.9421875,8.178125 6.3453125,7.3 C6.35,7.290625 6.353125,7.28125 6.3578125,7.271875 C6.359375,7.2703125 6.359375,7.26875 6.3609375,7.265625 C6.4734375,7.0390625 6.715625,6.8921875 6.984375,6.9125 Z M7.446875,4.021875 L9.1703125,5.7453125 C9.8921875,6.4671875 10.0484375,7.5375 9.646875,8.415625 C9.6421875,8.425 9.6390625,8.434375 9.634375,8.44375 C9.6328125,8.4453125 9.6328125,8.446875 9.63125,8.45 C9.51875,8.6765625 9.2765625,8.8234375 9.0078125,8.803125 C8.65625,8.775 8.3921875,8.4671875 8.4203125,8.115625 C8.428125,8.025 8.453125,7.9421875 8.4921875,7.8671875 C8.6703125,7.465625 8.5921875,6.9765625 8.2640625,6.646875 L6.54375,4.9265625 C6.1171875,4.5 5.4234375,4.5 4.996875,4.9265625 C4.5703125,5.353125 4.5703125,6.046875 4.996875,6.4734375 L5.6375,7.1140625 L5.6328125,7.11875 C5.78125,7.246875 5.8671875,7.4421875 5.8515625,7.6515625 C5.8234375,8.003125 5.515625,8.2671875 5.1640625,8.2390625 C4.9953125,8.2265625 4.8484375,8.1484375 4.7421875,8.0328125 L4.740625,8.034375 L4.0875,7.38125 C3.1609375,6.453125 3.1609375,4.9484375 4.0875,4.021875 C5.015625,3.09375 6.51875,3.09375 7.446875,4.021875 Z" id="形状结合" fill="#FFFFFF"></path>
                    </g>
                </g>
            </g>
        </g>
    </g>
</svg>
