<?xml version="1.0" encoding="UTF-8"?>
<svg width="32px" height="32px" viewBox="0 0 32 32" version="1.1" xmlns="http://www.w3.org/2000/svg" xmlns:xlink="http://www.w3.org/1999/xlink">
    <title>素材库</title>
    <g id="1.3.3" stroke="none" stroke-width="1" fill="none" fill-rule="evenodd">
        <g id="sucaiku" transform="translate(-602.000000, -80.000000)" fill-rule="nonzero">
            <g id="icon/-35" transform="translate(602.000000, 80.000000)">
                <path d="M25.0751224,26 L6.95454545,26 L9.49370008,14.7598157 C9.49370008,14.3911999 9.64529142,14.0381595 9.91599023,13.778571 C10.186689,13.5189824 10.5548394,13.3684211 10.9392316,13.3684211 L27.6142771,13.3684211 C28.4155455,13.3684211 29.0598086,13.9914336 29.0598086,14.7598157 L26.526068,24.6086054 C26.526068,25.3769875 25.8763909,26 25.0751224,26 Z" id="路径" fill="#3964F9"></path>
                <path d="M25.5864058,11.794004 L25.5864058,10.4130428 C25.5864058,9.63592391 24.9462351,9.00582755 24.1566912,9.00582755 L15.5837384,9.00582755 L15.5837384,7.72988242 C15.5837384,6.95276356 14.9435677,6.3226672 14.1593586,6.3226672 L7.01078565,6.3226672 C6.22124176,6.3226672 5.58640581,6.95276356 5.58640581,7.72463158 L5.58640581,24.217404 L8.08307158,13.1959684 C8.08307158,12.4241003 8.72324228,11.794004 9.51278617,11.794004 L25.5864058,11.794004 Z" id="路径" fill="#55BCFC"></path>
            </g>
        </g>
    </g>
</svg>