<?xml version="1.0" encoding="UTF-8"?>
<svg width="24px" height="24px" viewBox="0 0 24 24" version="1.1" xmlns="http://www.w3.org/2000/svg" xmlns:xlink="http://www.w3.org/1999/xlink">
    <g id="智慧运营v1.3" stroke="none" stroke-width="1" fill="none" fill-rule="evenodd">
        <g id="内容中心-视频/预览" transform="translate(-799.000000, -824.000000)" fill="#FFFFFF">
            <g id="编组-2" transform="translate(605.000000, 812.000000)">
                <g id="内容中心/预览/下载备份-4" transform="translate(206.000000, 24.000000) scale(-1, 1) translate(-206.000000, -24.000000) translate(182.000000, 0.000000)">
                    <g id="icon/24/看板分享备份" transform="translate(12.000000, 12.000000)">
                        <path d="M16.5866247,9.31280067 L17.0852458,9.93840202 C17.2229362,10.1111571 17.1945107,10.3628228 17.0217556,10.5005132 L11.854261,14.6191451 C11.7448553,14.7063444 11.589701,14.7063444 11.4802953,14.6191451 L6.31280067,10.5005132 C6.14004563,10.3628228 6.11162013,10.1111571 6.24931053,9.93840202 L6.74793159,9.31280067 C6.88560211,9.14002978 7.13726786,9.11160428 7.3100229,9.24929468 C7.31002953,9.24929996 7.31003616,9.24930525 7.31002694,9.24933041 L11.4800422,12.5733779 C11.5894491,12.6605895 11.7446143,12.6605935 11.8540257,12.5733876 L16.0245165,9.24931421 C16.1972669,9.11161809 16.448933,9.14004063 16.5866255,9.31279405 C16.5866264,9.31279528 16.5866274,9.31279651 16.5866247,9.31280067 Z" id="路径-7" transform="translate(11.667278, 11.884088) rotate(-270.000000) translate(-11.667278, -11.884088) "></path>
                    </g>
                </g>
            </g>
        </g>
    </g>
</svg>