<?xml version="1.0" encoding="UTF-8"?>
<svg width="118px" height="40px" viewBox="0 0 118 40" version="1.1" xmlns="http://www.w3.org/2000/svg" xmlns:xlink="http://www.w3.org/1999/xlink">
    <defs>
        <linearGradient x1="50%" y1="0%" x2="50%" y2="100%" id="linearGradient-1">
            <stop stop-color="#1D3243" offset="0%"></stop>
            <stop stop-color="#2D404F" offset="100%"></stop>
        </linearGradient>
        <radialGradient cx="13.5500934%" cy="4.93036223%" fx="13.5500934%" fy="4.93036223%" r="176.128354%" id="radialGradient-2">
            <stop stop-color="#25DFDE" offset="0%"></stop>
            <stop stop-color="#009AA0" offset="58.1677854%"></stop>
            <stop stop-color="#48489C" offset="100%"></stop>
        </radialGradient>
        <path d="M21.5,4.8660254 L32.3564065,11.1339746 C33.2846097,11.669873 33.8564065,12.660254 33.8564065,13.7320508 L33.8564065,26.2679492 C33.8564065,27.339746 33.2846097,28.330127 32.3564065,28.8660254 L21.5,35.1339746 C20.5717968,35.669873 19.4282032,35.669873 18.5,35.1339746 L7.64359354,28.8660254 C6.71539031,28.330127 6.14359354,27.339746 6.14359354,26.2679492 L6.14359354,13.7320508 C6.14359354,12.660254 6.71539031,11.669873 7.64359354,11.1339746 L18.5,4.8660254 C19.4282032,4.33012702 20.5717968,4.33012702 21.5,4.8660254 Z" id="path-3"></path>
        <linearGradient x1="50%" y1="0%" x2="50%" y2="100%" id="linearGradient-5">
            <stop stop-color="#FFFFFF" offset="0%"></stop>
            <stop stop-color="#FFFFFF" stop-opacity="0" offset="100%"></stop>
        </linearGradient>
        <linearGradient x1="50%" y1="13.5218418%" x2="50%" y2="87.1920554%" id="linearGradient-6">
            <stop stop-color="#FFFFFF" offset="0%"></stop>
            <stop stop-color="#FFFFFF" stop-opacity="0" offset="100%"></stop>
        </linearGradient>
    </defs>
    <g id="1.3.7" stroke="none" stroke-width="1" fill="none" fill-rule="evenodd">
        <g id="制作落地页-有内容" transform="translate(-24.000000, -8.000000)">
            <g id="导航/产品切换" transform="translate(24.000000, 8.000000)">
                <path d="M20,4 L82.8242037,4 L112,4 C115.313708,4 118,6.6862915 118,10 L118,30 C118,33.3137085 115.313708,36 112,36 L20,36 L20,36 L20,4 Z" id="矩形" fill="url(#linearGradient-1)"></path>
                <g id="编组">
                    <mask id="mask-4" fill="white">
                        <use xlink:href="#path-3"></use>
                    </mask>
                    <use id="多边形" fill="url(#radialGradient-2)" xlink:href="#path-3"></use>
                    <path d="M23.8142435,17.1411417 L37,28 L37,28 L3,28 L16.1857565,17.1411417 C18.4012913,15.3165836 21.5987087,15.3165836 23.8142435,17.1411417 Z" id="三角形" fill="url(#linearGradient-5)" opacity="0.699999988" mask="url(#mask-4)"></path>
                    <path d="M23.8142435,15.1411417 L37,26 L37,26 L3,26 L16.1857565,15.1411417 C18.4012913,13.3165836 21.5987087,13.3165836 23.8142435,15.1411417 Z" id="三角形备份" fill="url(#linearGradient-6)" opacity="0.895482381" mask="url(#mask-4)" transform="translate(20.000000, 19.000000) scale(-1, -1) translate(-20.000000, -19.000000) "></path>
                </g>
                <g id="编组" transform="translate(100.000000, 12.000000)" fill="#F0F3F5" fill-rule="nonzero">
                    <g>
                        <path d="M8.30989499,3.05857864 L10.2783686,5.02705228 C10.3564735,5.10515713 10.3564735,5.23179013 10.2783686,5.30989499 L9.85410455,5.73415906 C9.77598138,5.81222214 9.64937155,5.81223559 9.57123181,5.7341891 L8.16771068,4.33126407 L8.16771068,4.33126407 L6.76564558,5.73411923 C6.68760257,5.8122859 6.56096958,5.81232157 6.48284272,5.73423872 C6.48282944,5.73422544 6.48281616,5.73421216 6.48284271,5.73415906 L6.05857864,5.30989499 C5.98047379,5.23179013 5.98047379,5.10515713 6.05857864,5.02705228 L8.02705228,3.05857864 C8.10515713,2.98047379 8.23179013,2.98047379 8.30989499,3.05857864 Z" id="路径-2"></path>
                        <path d="M8.30989499,10.0585438 L10.2783686,12.0270174 C10.3564735,12.1051223 10.3564735,12.2317553 10.2783686,12.3098601 L9.85410455,12.7341242 C9.77598138,12.8121873 9.64937155,12.8122007 9.57123181,12.7341542 L8.16771068,11.3312292 L8.16771068,11.3312292 L6.76564558,12.7340844 C6.68760257,12.812251 6.56096958,12.8122867 6.48284272,12.7342039 C6.48282944,12.7341906 6.48281616,12.7341773 6.48284271,12.7341242 L6.05857864,12.3098601 C5.98047379,12.2317553 5.98047379,12.1051223 6.05857864,12.0270174 L8.02705228,10.0585438 C8.10515713,9.98043893 8.23179013,9.98043893 8.30989499,10.0585438 Z" id="路径-2备份-2" transform="translate(8.168474, 11.396351) scale(1, -1) translate(-8.168474, -11.396351) "></path>
                    </g>
                </g>
                <text id="智慧运营" font-family="PingFangSC-Semibold, PingFang SC" font-size="14" font-weight="500" fill="#FFFFFF">
                    <tspan x="42" y="24"></tspan>
                </text>
            </g>
        </g>
    </g>
</svg>
