<?xml version="1.0" encoding="UTF-8"?>
<svg width="16px" height="16px" viewBox="0 0 16 16" version="1.1" xmlns="http://www.w3.org/2000/svg" xmlns:xlink="http://www.w3.org/1999/xlink">
    <g id="1.3.6" stroke="none" stroke-width="1" fill="none" fill-rule="evenodd">
        <g id="DashBoard优化" transform="translate(-114.000000, -173.000000)">
            <g id="卡片/纯数据展示备份-8" transform="translate(40.000000, 153.000000)">
                <g id="编组-2备份" transform="translate(22.000000, 20.000000)">
                    <g id="icon/24/折线备份-13" transform="translate(52.000000, 0.000000)">
                        <g id="编组" transform="translate(2.000000, 2.000000)">
                            <circle id="椭圆形" stroke="#888D97" stroke-width="1.3" cx="6" cy="6" r="5.35"></circle>
                            <path d="M6.30663616,7.55131074 L6.30663616,7.34221983 C6.30663616,7.09676529 6.36155606,6.87858347 6.4805492,6.67858347 C6.57208238,6.5149471 6.70938215,6.35131074 6.91075515,6.17858347 C7.31350114,5.82403801 7.56064073,5.58767438 7.65217391,5.47858347 C7.88100686,5.17858347 8,4.82403801 8,4.4149471 C8,3.86949256 7.82608696,3.44221983 7.48741419,3.13312892 C7.13043478,2.80585619 6.66361556,2.65131074 6.0778032,2.65131074 C5.4187643,2.65131074 4.90617849,2.85131074 4.54004577,3.25131074 C4.17391304,3.63312892 4,4.14221983 4,4.77858347 L4.72311213,4.77858347 C4.72311213,4.33312892 4.82379863,3.98767438 5.02517162,3.73312892 C5.24485126,3.43312892 5.58352403,3.28767438 6.04118993,3.28767438 C6.42562929,3.28767438 6.72768879,3.38767438 6.9382151,3.60585619 C7.1395881,3.80585619 7.24942792,4.08767438 7.24942792,4.45131074 C7.24942792,4.70585619 7.15789474,4.94221983 6.97482838,5.16949256 C6.91990847,5.24221983 6.81006865,5.35131074 6.66361556,5.49676529 C6.16933638,5.93312892 5.86727689,6.27858347 5.73913043,6.55131074 C5.62929062,6.77858347 5.57437071,7.04221983 5.57437071,7.34221983 L5.57437071,7.55131074 L6.30663616,7.55131074 Z" id="？" stroke="#888D97" stroke-width="0.4" fill="#888D97" fill-rule="nonzero"></path>
                            <path d="M5.99449036,9.65131074 C6.18181818,9.65131074 6.33608815,9.5807225 6.46831956,9.45131074 C6.60055096,9.32189898 6.66666667,9.15719309 6.66666667,8.94542839 C6.66666667,8.74542839 6.60055096,8.5807225 6.47933884,8.45131074 C6.34710744,8.31013427 6.18181818,8.25131074 5.99449036,8.25131074 C5.80716253,8.25131074 5.65289256,8.31013427 5.52066116,8.45131074 C5.38842975,8.5807225 5.33333333,8.74542839 5.33333333,8.94542839 C5.33333333,9.14542839 5.38842975,9.31013427 5.52066116,9.45131074 C5.65289256,9.5807225 5.80716253,9.65131074 5.99449036,9.65131074 Z" id="路径" fill="#888D97" fill-rule="nonzero"></path>
                        </g>
                    </g>
                </g>
            </g>
        </g>
    </g>
</svg>
