<?xml version="1.0" encoding="UTF-8"?>
<svg width="25px" height="24px" viewBox="0 0 25 24" version="1.1" xmlns="http://www.w3.org/2000/svg" xmlns:xlink="http://www.w3.org/1999/xlink">
    <g id="1.3.2" stroke="none" stroke-width="1" fill="none" fill-rule="evenodd">
        <g id="数据管理-授权中" transform="translate(-83.000000, -250.000000)" fill="#00A39B" fill-rule="nonzero">
            <g id="步骤/组合" transform="translate(80.000000, 246.000000)">
                <g id="控件/选择/多选空备份-21" transform="translate(3.500000, 4.000000)">
                    <path d="M17.240202,7.2119279 L18.6793112,8.51705342 C18.9247735,8.73966273 18.9432995,9.11910973 18.7206902,9.36457202 C18.7160611,9.36967636 18.7113444,9.37470058 18.7065422,9.37964243 L10.4596703,17.8663541 C10.2287515,18.1040159 9.84889151,18.1094604 9.61124295,17.8785279 C9.61123841,17.8785235 9.61123386,17.8785191 9.61124257,17.878501 L5.48214059,13.8658355 C5.26804656,13.6577787 5.23948094,13.3239711 5.415112,13.0825635 L6.43367847,11.6825284 C6.62862637,11.4145695 7.00388646,11.3553824 7.27184532,11.5503303 C7.27911077,11.5556162 7.28625656,11.5610645 7.2932773,11.5666713 L9.61656258,13.4220447 C9.85749022,13.6144493 10.2050275,13.5929288 10.4203771,13.3722702 L16.407734,7.23730962 C16.6332095,7.00627559 17.0010701,6.99505962 17.240202,7.2119279 Z" id="路径-6"></path>
                </g>
            </g>
        </g>
    </g>
</svg>
