<?xml version="1.0" standalone="no"?><!DOCTYPE svg PUBLIC "-//W3C//DTD SVG 1.1//EN" "http://www.w3.org/Graphics/SVG/1.1/DTD/svg11.dtd"><svg t="1662622237437" class="icon" viewBox="0 0 1024 1024" version="1.1" xmlns="http://www.w3.org/2000/svg" p-id="5450" xmlns:xlink="http://www.w3.org/1999/xlink" width="200" height="200"><path d="M868.386589 1024H191.778021c-50.523263 0-91.439428-40.916164-91.439428-91.447427V91.447427C100.338593 40.916164 141.246758 0 191.778021 0h91.439427v320.041996c0 10.119051 4.071618 19.1982 10.758992 25.877574l98.950723-98.950723 98.950723 98.950723a36.636565 36.636565 0 0 0 10.750993-25.877574V0h365.765709c50.515264 0 91.447427 40.916164 91.447427 91.447427V932.552573c-0.015999 50.523263-40.940162 91.447427-91.455426 91.447427zM758.676874 539.453426H319.750023a45.723713 45.723713 0 1 0 0 91.447427h438.926851a45.715714 45.715714 0 0 0 45.723713-45.723713 45.707715 45.707715 0 0 0-45.723713-45.723714z m0 219.41143H319.750023a45.715714 45.715714 0 1 0 0 91.439428h438.926851a45.715714 45.715714 0 0 0 45.723713-45.723713 45.707715 45.707715 0 0 0-45.723713-45.715715z" fill="#17A29E" p-id="5451"></path></svg>