<?xml version="1.0" encoding="UTF-8"?>
<svg width="32px" height="32px" viewBox="0 0 32 32" version="1.1" xmlns="http://www.w3.org/2000/svg" xmlns:xlink="http://www.w3.org/1999/xlink">
    <title>切片</title>
    <g id="1.3.3" stroke="none" stroke-width="1" fill="none" fill-rule="evenodd">
        <g id="话术库-入口" transform="translate(-786.000000, -80.000000)" fill-rule="nonzero">
            <g id="icon/32/分析选中备份-36" transform="translate(786.000000, 80.000000)">
                <g id="编组" transform="translate(3.000000, 5.000000)">
                    <path d="M14.3574994,19.06858 L9.67958166,19.06858 L4.48181602,21.4761905 L4.49964347,19.06858 C2.01378657,19.06858 0,17.0263052 0,14.5070836 L0,10.3240944 C0,7.80417955 2.01378653,5.76190476 4.49964347,5.76190476 L14.3574994,5.76190476 C16.8433563,5.76190476 18.8571429,7.80417959 18.8571429,10.3240944 L18.8571429,14.5056971 C18.8571429,17.0256119 16.8433563,19.0678868 14.3574994,19.0678868 L14.3574994,19.06858 Z" id="路径" fill="#00A39B"></path>
                    <path d="M5.5967118,4.66345492 C5.5967118,4.66345492 5.30435064,0 8.96314391,0 L21.0733147,0 C21.0733147,0 24.4483037,0.362665071 24.4483037,4.00085208 L24.4483037,9.6845279 C24.4483037,9.6845279 23.8721383,13.6190476 20.4600693,13.6190476 L20.4600693,9.61747452 C20.4600693,9.61747452 20.214058,4.66345492 15.9876562,4.66345492 L5.5967118,4.66345492 Z" id="路径" fill="#00A39B" opacity="0.6"></path>
                    <path d="M5.33570935,13.6190476 C6.0429092,13.6190476 6.61620795,13.0468249 6.61620795,12.3409524 C6.61620795,11.6350799 6.0429092,11.0628571 5.33570935,11.0628571 C4.6285095,11.0628571 4.05521074,11.6350799 4.05521074,12.3409524 C4.05521074,13.0468249 4.6285095,13.6190476 5.33570935,13.6190476 Z M8.53335067,12.340751 C8.53327877,12.7974184 8.77732466,13.2194273 9.1735419,13.4477818 C9.56975914,13.6761362 10.0579397,13.6761362 10.454157,13.4477818 C10.8503742,13.2194273 11.0944201,12.7974184 11.0943482,12.340751 C11.0942366,11.6349572 10.5209705,11.0628571 9.81384943,11.0628571 C9.10672835,11.0628571 8.53346223,11.6349572 8.53335067,12.340751 Z M13.651682,13.4477818 C14.0478992,13.6761362 14.5360798,13.6761362 14.9322971,13.4477818 C15.3285143,13.2194273 15.5725602,12.7974184 15.5724883,12.340751 C15.5723767,11.6349572 14.9991106,11.0628571 14.2919895,11.0628571 C13.5848685,11.0628571 13.0116023,11.6349572 13.0114908,12.340751 C13.0114189,12.7974184 13.2554648,13.2194273 13.651682,13.4477818 Z" id="形状" fill="#FFFFFF"></path>
                </g>
            </g>
        </g>
    </g>
</svg>