<?xml version="1.0" encoding="UTF-8"?>
<svg width="24px" height="24px" viewBox="0 0 24 24" version="1.1" xmlns="http://www.w3.org/2000/svg" xmlns:xlink="http://www.w3.org/1999/xlink">
    <title>icon/24/显示</title>
    <g id="icon/24/显示" stroke="none" stroke-width="1" fill="none" fill-rule="evenodd">
        <g id="显示-(1)" transform="translate(3.000000, 5.000000)" fill="#26292E" fill-rule="nonzero">
            <path d="M9.00154533,14.7884397 C3.49994694,14.7884397 0.0105363474,9.68064748 0.0105363474,7.52460353 L0.0105363474,7.26925887 C0.0105363474,5.11321492 3.49994694,0.00452360491 9.00154533,0.00452360491 C14.5570898,0.00452360491 17.9736732,5.04218595 17.9925543,7.25757056 L17.9925543,7.52370442 C17.9736732,9.74808005 14.5579889,14.7884397 9.00154533,14.7884397 Z M9.00154533,1.35407405 C4.36128559,1.35407405 1.35918768,5.74977834 1.35918768,7.27015797 L1.35918768,7.52550262 C1.35918768,9.04588225 4.36128559,13.4406874 9.00154533,13.4406874 C13.5680788,13.4406874 16.6286183,9.22660154 16.643903,7.52010801 L16.643903,7.26476336 C16.6286183,5.56366446 13.5680788,1.35407405 9.00154533,1.35407405 Z M9.00154533,10.9294986 C7.05123793,10.9275172 5.47055658,9.34723802 5.4680788,7.39693119 C5.4680788,5.44857954 7.05319368,3.86346467 9.00154533,3.86346467 C10.949897,3.86346467 12.5350119,5.44857954 12.5350119,7.39693119 C12.5325341,9.34723802 10.9518527,10.9275172 9.00154533,10.9294986 Z M9.00154533,5.21211602 C7.79675013,5.21211602 6.81673014,6.19213599 6.81673014,7.39693119 C6.81673014,8.6008273 7.79675011,9.58084727 9.00154533,9.58084727 C10.2063406,9.58084727 11.1863605,8.6008273 11.1863605,7.39693119 C11.1863605,6.19213599 10.2063406,5.21211602 9.00154533,5.21211602 L9.00154533,5.21211602 Z" id="形状"></path>
        </g>
    </g>
</svg>