<?xml version="1.0" encoding="UTF-8"?>
<svg width="16px" height="16px" viewBox="0 0 16 16" version="1.1" xmlns="http://www.w3.org/2000/svg" xmlns:xlink="http://www.w3.org/1999/xlink">
    <title>切片</title>
    <g id="智慧运营v1.3" stroke="none" stroke-width="1" fill="none" fill-rule="evenodd">
        <g id="微信运营-关注回复-设置-音频3" transform="translate(-1021.000000, -250.000000)" fill="#000000" fill-rule="nonzero">
            <g id="编组" transform="translate(1006.000000, 241.000000)">
                <g id="icon/16/语音" transform="translate(15.000000, 9.000000)">
                    <g id="语音-粗线条2" transform="translate(8.000000, 8.000000) scale(-1, 1) translate(-8.000000, -8.000000) ">
                        <rect id="矩形" opacity="0" x="0" y="0" width="16" height="16"></rect>
                        <path d="M5.26666667,7.9 C5.26666667,6.1 6,4.43333333 7.16666667,3.23333333 L6.23333333,2.3 C5.03333333,3.53333333 4.2,5.16666667 4,6.96666667 C3.96666667,7.26666667 3.93333333,7.56666667 3.93333333,7.9 C3.93333333,8.23333333 3.96666666,8.53333333 4,8.83333333 C4.23333333,10.7333333 5.1,12.4333333 6.43333333,13.7 L7.4,12.7666667 C6.06666667,11.5333333 5.26666667,9.83333334 5.26666667,7.9 L5.26666667,7.9 Z M8.26666667,7.9 C8.26666667,6.93333333 8.66666667,6.03333333 9.3,5.36666667 L8.33333333,4.43333333 C7.46666666,5.33333333 6.93333333,6.56666666 6.93333333,7.9 C6.93333333,9.36666667 7.56666666,10.7 8.56666667,11.6 L9.53333333,10.6666667 C8.73333333,10 8.26666666,9 8.26666667,7.9 Z M10.4333333,6.53333333 C10.1,6.9 9.9,7.36666666 9.9,7.9 C9.9,8.56666667 10.2333333,9.13333333 10.7,9.5 L12.0666667,8.16666667 L10.4333333,6.53333333 L10.4333333,6.53333333 Z" id="形状"></path>
                    </g>
                </g>
            </g>
        </g>
    </g>
</svg>