<?xml version="1.0" encoding="UTF-8"?>
<svg width="160px" height="160px" viewBox="0 0 160 160" version="1.1" xmlns="http://www.w3.org/2000/svg" xmlns:xlink="http://www.w3.org/1999/xlink">
    <defs>
        <radialGradient cx="50%" cy="50.9833916%" fx="50%" fy="50.9833916%" r="99.0166084%" id="radialGradient-1">
            <stop stop-color="#34363F" offset="0%"></stop>
            <stop stop-color="#202128" offset="100%"></stop>
        </radialGradient>
        <linearGradient x1="0%" y1="50%" x2="100%" y2="50%" id="linearGradient-2">
            <stop stop-color="#24272A" offset="0%"></stop>
            <stop stop-color="#171719" offset="50.5201724%"></stop>
            <stop stop-color="#24272A" offset="100%"></stop>
        </linearGradient>
    </defs>
    <g id="内容中心/160音频预览备份" stroke="none" stroke-width="1" fill="none" fill-rule="evenodd">
        <rect id="图片备份" fill="url(#radialGradient-1)" x="0" y="0" width="160" height="160"></rect>
        <path d="M80.5,49 C81.8808091,49 83,50.1144188 83,51.4891544 L83,108.510846 C83,109.885581 81.8808091,111 80.5,111 C79.1192745,111 78,109.885581 78,108.510846 L78,51.4891544 C78,50.1144188 79.1192745,49 80.5,49 Z M63.4999582,59 C64.8610187,59 65.9679878,60.1053779 65.9993313,61.4809801 L66,61.5409072 L66,99.4590078 C66,100.862406 64.8807442,102 63.5000418,102 C62.1390649,102 61.0320122,100.894622 61.0006687,99.5190199 L61,99.4590928 L61,61.5409922 C61,60.137594 62.1193394,59 63.4999582,59 Z M96.4999582,59 C97.8609351,59 98.9679042,60.1053779 98.9992478,61.4809801 L99,61.5409072 L99,99.4590078 C99,100.862406 97.8806606,102 96.5000418,102 C95.1389813,102 94.0320122,100.894622 94.0006687,99.5190199 L94,99.4590928 L94,61.5409922 C94,60.137594 95.1192558,59 96.4999582,59 Z M47.4999582,72 C48.8609351,72 49.9679042,73.1334205 49.9993313,74.5440291 L50,74.6055684 L50,86.3944316 C50,87.8333692 48.8806606,89 47.5000418,89 C46.1389813,89 45.0320122,87.8664923 45.0006687,86.4558837 L45,86.3944316 L45,74.6055684 C45,73.1664564 46.1192558,72 47.4999582,72 Z M112.500042,72 C113.861019,72 114.967988,73.1334205 114.999331,74.5440291 L115,74.6055684 L115,86.3944316 C115,87.8333692 113.880744,89 112.500042,89 C111.139065,89 110.032096,87.8664923 110.000669,86.4558837 L110,86.3944316 L110,74.6055684 C110,73.1664564 111.119339,72 112.499958,72 L112.500042,72 Z" id="形状" fill="url(#linearGradient-2)" fill-rule="nonzero"></path>
        <rect id="矩形" stroke="#DBDEE4" x="0.5" y="0.5" width="159" height="159"></rect>
    </g>
</svg>