<?xml version="1.0" encoding="UTF-8"?>
<svg width="16px" height="16px" viewBox="0 0 16 16" version="1.1" xmlns="http://www.w3.org/2000/svg" xmlns:xlink="http://www.w3.org/1999/xlink">
    <g id="页面-1" stroke="none" stroke-width="1" fill="none" fill-rule="evenodd">
        <g id="状态说明" transform="translate(-87.000000, -805.000000)" fill-rule="nonzero">
            <g id="分析/表单备份-4" transform="translate(71.000000, 797.000000)">
                <g id="警告2" transform="translate(16.000000, 8.000000)">
                    <rect id="矩形" fill="#000000" opacity="0" x="0" y="0" width="16" height="16"></rect>
                    <path d="M14.5809067,12.58752 C14.5718044,12.5693156 14.5718044,12.5511111 14.5627022,12.5329067 L8.79189333,2.54776889 C8.79189333,2.53866667 8.78279111,2.53866667 8.78279111,2.52956444 C8.77368889,2.51136 8.49152,2.11996444 8.01820444,2.11996444 C7.55399111,2.11996444 7.23541333,2.49315556 7.22631111,2.51136 C7.21720889,2.52046222 7.20810667,2.52956444 7.20810667,2.53866667 L1.47370667,12.4782933 C1.46460444,12.4873956 1.46460444,12.4964978 1.45550222,12.5147022 C1.43729778,12.5693156 1.28256,13.0426311 1.51011556,13.40672 C1.73767111,13.7799111 2.22008889,13.8709333 2.27470222,13.8800356 L13.65248,13.8800356 C13.6706844,13.8800356 14.1713067,13.8345244 14.4443733,13.4704356 C14.71744,13.1063467 14.5900089,12.6148267 14.5809067,12.58752 L14.5809067,12.58752 Z" id="形状" fill="#FFB800"></path>
                    <path d="M8,10.8672 C8.4096,10.8672 8.74638222,11.2039822 8.74638222,11.6135822 C8.74638222,12.0231822 8.4096,12.3599644 8,12.3599644 C7.5904,12.3599644 7.25361778,12.0231822 7.25361778,11.6135822 C7.25361778,11.2039822 7.5904,10.8672 8,10.8672 Z M8,5.31484444 C8.25486222,5.31484444 8.46421333,5.52419556 8.46421333,5.77905778 L8.46421333,9.62929778 C8.46421333,9.88416 8.25486222,10.0935111 8,10.0935111 C7.74513778,10.0935111 7.53578667,9.88416 7.53578667,9.62929778 L7.53578667,5.77905778 C7.53578667,5.52419556 7.74513778,5.31484444 8,5.31484444 Z" id="形状结合" fill="#26292E"></path>
                </g>
            </g>
        </g>
    </g>
</svg>