<?xml version="1.0" encoding="UTF-8"?>
<svg width="24px" height="24px" viewBox="0 0 24 24" version="1.1" xmlns="http://www.w3.org/2000/svg" xmlns:xlink="http://www.w3.org/1999/xlink">
    <g id="wenhao" stroke="none" stroke-width="1" fill="none" fill-rule="evenodd">
        <g id="wenhao1" transform="translate(-696.000000, -163.000000)">
            <g id="icon/24/折线备份-12" transform="translate(696.000000, 163.000000)">
                <circle id="椭圆形" fill="#545860" cx="12" cy="12" r="9"></circle>
                <path d="M12.544,14.976 L12.544,14.608 C12.544,14.176 12.64,13.792 12.848,13.44 C13.008,13.152 13.248,12.864 13.6,12.56 C14.304,11.936 14.736,11.52 14.896,11.328 C15.296,10.8 15.504,10.176 15.504,9.456 C15.504,8.496 15.2,7.744 14.608,7.2 C13.984,6.624 13.168,6.352 12.144,6.352 C10.992,6.352 10.096,6.704 9.456,7.408 C8.816,8.08 8.512,8.976 8.512,10.096 L9.776,10.096 C9.776,9.312 9.952,8.704 10.304,8.256 C10.688,7.728 11.28,7.472 12.08,7.472 C12.752,7.472 13.28,7.648 13.648,8.032 C14,8.384 14.192,8.88 14.192,9.52 C14.192,9.968 14.032,10.384 13.712,10.784 C13.616,10.912 13.424,11.104 13.168,11.36 C12.304,12.128 11.776,12.736 11.552,13.216 C11.36,13.616 11.264,14.08 11.264,14.608 L11.264,14.976 L12.544,14.976 Z M11.904,18 C12.176,18 12.4,17.904 12.592,17.728 C12.784,17.552 12.88,17.328 12.88,17.04 C12.88,16.768 12.784,16.544 12.608,16.368 C12.416,16.176 12.176,16.096 11.904,16.096 C11.632,16.096 11.408,16.176 11.216,16.368 C11.024,16.544 10.944,16.768 10.944,17.04 C10.944,17.312 11.024,17.536 11.216,17.728 C11.408,17.904 11.632,18 11.904,18 Z" id="？" fill="#FFFFFF" fill-rule="nonzero"></path>
            </g>
        </g>
    </g>
</svg>
